<svg xmlns="http://www.w3.org/2000/svg" xmlns:xlink="http://www.w3.org/1999/xlink" width="28.241" height="26.977" viewBox="0 0 28.241 26.977">
  <defs>
    <clipPath id="clip-path">
      <path id="Trazado_1018" data-name="Trazado 1018" d="M16.218-12.187l3.447,6.976L27.379-4.09a1.685,1.685,0,0,1,.935,2.876l-5.58,5.379,1.32,7.666a1.689,1.689,0,0,1-2.449,1.776l-6.9-3.571-6.9,3.62a1.689,1.689,0,0,1-2.45-1.776l1.32-7.666L1.1-1.212a1.686,1.686,0,0,1,.935-2.876L9.747-5.21l3.447-6.976A1.688,1.688,0,0,1,16.218-12.187Z" transform="translate(588.299 147.5)" fill="#3fc69a"/>
    </clipPath>
  </defs>
  <g id="rating-02" transform="translate(-588.885 -134.375)" clip-path="url(#clip-path)">
    <rect id="Rectángulo_1071" data-name="Rectángulo 1071" width="32.372" height="28.775" transform="translate(587.293 133.701)" fill="#3fc69a" opacity="0.32"/>
    <path id="Unión_19" data-name="Unión 19" d="M-8075.872-20848.023v-29h2.855v29Zm-2.851,0v-29h2.851v29Z" transform="translate(8667.609 21010.725)" fill="#3fc69a"/>
    <rect id="Rectángulo_1074" data-name="Rectángulo 1074" width="2.854" height="29" transform="translate(594.297 133.701)" fill="#3fc69a" opacity="0"/>
    <rect id="Rectángulo_1075" data-name="Rectángulo 1075" width="2.854" height="29" transform="translate(597.151 133.701)" fill="#3fc69a" opacity="0"/>
    <rect id="Rectángulo_1076" data-name="Rectángulo 1076" width="2.854" height="29" transform="translate(600.004 133.701)" fill="#3fc69a" opacity="0"/>
    <rect id="Rectángulo_1077" data-name="Rectángulo 1077" width="2.854" height="29" transform="translate(602.858 133.701)" fill="#3fc69a" opacity="0"/>
    <rect id="Rectángulo_1078" data-name="Rectángulo 1078" width="2.854" height="29" transform="translate(605.712 133.701)" fill="#3fc69a" opacity="0"/>
    <rect id="Rectángulo_1079" data-name="Rectángulo 1079" width="2.854" height="29" transform="translate(608.565 133.701)" fill="#3fc69a" opacity="0"/>
    <rect id="Rectángulo_1080" data-name="Rectángulo 1080" width="2.854" height="29" transform="translate(611.419 133.701)" fill="#3fc69a" opacity="0"/>
    <rect id="Rectángulo_1081" data-name="Rectángulo 1081" width="2.854" height="29" transform="translate(614.272 133.701)" fill="#3fc69a" opacity="0"/>
  </g>
</svg>
