<svg xmlns="http://www.w3.org/2000/svg" xmlns:xlink="http://www.w3.org/1999/xlink" width="45.412" height="55" viewBox="0 0 45.412 55">
  <defs>
    <linearGradient id="linear-gradient" x1="-0.003" y1="0.559" x2="1" y2="0.334" gradientUnits="objectBoundingBox">
      <stop offset="0" stop-color="#3fc698"/>
      <stop offset="1" stop-color="#3fb6c6"/>
    </linearGradient>
  </defs>
  <g id="Grupo_2819" data-name="Grupo 2819" transform="translate(-10.689 -2.5)">
    <path id="Trazado_628" data-name="Trazado 628" d="M38.947,35.28c.694.174,1.388.231,2.082.347a5.363,5.363,0,0,1,4.048-1.735,5.745,5.745,0,0,1,3.991,1.619l.058.058a18.657,18.657,0,0,0,1.909-.347.969.969,0,0,0,.752-1.1l-.4-3.759A4.741,4.741,0,0,0,46.7,26.2H43.4a4.741,4.741,0,0,0-4.685,4.164L38.2,34.181A1.021,1.021,0,0,0,38.947,35.28Z" transform="translate(-11.596 -9.993)" fill="#465b61"/>
    <circle id="Elipse_204" data-name="Elipse 204" cx="4.453" cy="4.453" r="4.453" transform="translate(28.971 5.97)" fill="#465b61"/>
    <path id="Trazado_629" data-name="Trazado 629" d="M24.344,28.139l-.463-3.875A4.741,4.741,0,0,0,19.2,20.1H15.9a4.741,4.741,0,0,0-4.685,4.164L10.7,28.139a1.021,1.021,0,0,0,.752,1.1,13.74,13.74,0,0,0,2.14.347l.521,9.022a1.376,1.376,0,0,0,1.33,1.272h4.106a1.376,1.376,0,0,0,1.33-1.272l.521-9.022c.752-.116,1.446-.231,2.14-.347A1.012,1.012,0,0,0,24.344,28.139Z" transform="translate(0 -7.421)" fill="url(#linear-gradient)"/>
    <circle id="Elipse_205" data-name="Elipse 205" cx="4.453" cy="4.453" r="4.453" transform="translate(13.067 2.5)" fill="url(#linear-gradient)"/>
    <path id="Trazado_630" data-name="Trazado 630" d="M78.882,24.264A4.741,4.741,0,0,0,74.2,20.1H70.9a4.741,4.741,0,0,0-4.685,4.164l-.52,3.875a1.021,1.021,0,0,0,.752,1.1,13.74,13.74,0,0,0,2.14.347l.521,9.022a1.376,1.376,0,0,0,1.33,1.272h4.106a1.376,1.376,0,0,0,1.33-1.272l.521-9.022c.752-.116,1.446-.231,2.14-.347a1.021,1.021,0,0,0,.752-1.1Z" transform="translate(-23.191 -7.421)" fill="url(#linear-gradient)"/>
    <circle id="Elipse_206" data-name="Elipse 206" cx="4.453" cy="4.453" r="4.453" transform="translate(44.875 2.5)" fill="url(#linear-gradient)"/>
    <path id="Trazado_631" data-name="Trazado 631" d="M56.8,57.466a2.453,2.453,0,0,0-2.14,1.215v-.058a2.567,2.567,0,0,0-2.545-2.545,2.529,2.529,0,0,0-2.14,1.157v-.058a2.567,2.567,0,0,0-2.545-2.545,2.529,2.529,0,0,0-2.14,1.157V47.345A2.567,2.567,0,0,0,42.742,44.8h0A2.567,2.567,0,0,0,40.2,47.345V62.96a.317.317,0,0,1-.231.347.356.356,0,0,1-.4-.058L37.016,60.7a2.545,2.545,0,0,0-3.239-.289,2.679,2.679,0,0,0-1.1,1.735,2.623,2.623,0,0,0,.578,2.024l6.362,7.692a9.415,9.415,0,0,0,7.345,3.47h3.991a8.362,8.362,0,0,0,5.9-2.429,8.262,8.262,0,0,0,2.429-5.9v-7A2.482,2.482,0,0,0,56.8,57.466Z" transform="translate(-9.26 -17.836)" fill="url(#linear-gradient)"/>
  </g>
</svg>
