<svg xmlns="http://www.w3.org/2000/svg" xmlns:xlink="http://www.w3.org/1999/xlink" width="56.118" height="34.5" viewBox="0 0 56.118 34.5">
  <defs>
    <linearGradient id="linear-gradient" x1="-0.003" y1="0.559" x2="1" y2="0.334" gradientUnits="objectBoundingBox">
      <stop offset="0" stop-color="#3fc698"/>
      <stop offset="1" stop-color="#3fb6c6"/>
    </linearGradient>
  </defs>
  <g id="Grupo_2827" data-name="Grupo 2827" transform="translate(-2.5 -20.8)">
    <path id="Trazado_625" data-name="Trazado 625" d="M80.038,53.112a20.979,20.979,0,0,1-4.017-4.253,15.429,15.429,0,0,0,5.435-11.578c0-9.1-8.388-16.481-18.726-16.481a21.662,21.662,0,0,0-4.43.473,19.858,19.858,0,0,1,8.506,16.008A19.858,19.858,0,0,1,58.3,53.289a21.662,21.662,0,0,0,4.43.473,19.981,19.981,0,0,0,5.966-.886,28.747,28.747,0,0,0,10.692,2.363A1.161,1.161,0,0,0,80.038,53.112Z" transform="translate(-22.838 0)" fill="#465b61"/>
    <path id="Trazado_626" data-name="Trazado 626" d="M21.226,20.8C10.888,20.8,2.5,28.184,2.5,37.281A15.334,15.334,0,0,0,7.935,48.859a20.978,20.978,0,0,1-4.017,4.253,1.217,1.217,0,0,0,.65,2.186,29.957,29.957,0,0,0,10.692-2.363,22.073,22.073,0,0,0,5.966.886c10.337,0,18.726-7.384,18.726-16.481S31.563,20.8,21.226,20.8Zm-.177,27.173a2.3,2.3,0,1,1,0-4.608,2.346,2.346,0,0,1,2.3,2.3A2.307,2.307,0,0,1,21.048,47.973Zm2.835-9.451c-1.063.886-1.063,1.359-1.063,1.536v.827a.782.782,0,0,1-.768.768H19.926a.782.782,0,0,1-.768-.768v-.827a5.587,5.587,0,0,1,2.422-4.371C22.761,34.741,24,33.618,24,32.555c0-1.595-.768-2.3-2.658-2.3-2.894,0-2.894,2.127-2.894,2.186v.354a.782.782,0,0,1-.768.768H15.614a.782.782,0,0,1-.768-.768v-.354c0-2.363,1.772-5.907,6.557-5.907,4.667,0,6.321,3.072,6.321,5.966C27.664,35.45,25.3,37.4,23.884,38.521Z" fill="url(#linear-gradient)"/>
  </g>
</svg>
