<svg xmlns="http://www.w3.org/2000/svg" xmlns:xlink="http://www.w3.org/1999/xlink" width="56.449" height="54.021" viewBox="0 0 56.449 54.021">
  <defs>
    <linearGradient id="linear-gradient" x1="-0.003" y1="0.559" x2="1" y2="0.334" gradientUnits="objectBoundingBox">
      <stop offset="0" stop-color="#3fc698"/>
      <stop offset="1" stop-color="#3fb6c6"/>
    </linearGradient>
  </defs>
  <g id="Grupo_2826" data-name="Grupo 2826" transform="translate(-471 -338.752)">
    <g id="Grupo_2820" data-name="Grupo 2820" transform="translate(471 338.752)">
      <path id="Trazado_632" data-name="Trazado 632" d="M50.843,54.468l-.767-.625v4.889a3.7,3.7,0,0,0,.368-.2,2.5,2.5,0,0,0,1.333-1.943A2.339,2.339,0,0,0,50.843,54.468Z" transform="translate(-27.162 -28.971)" fill="url(#linear-gradient)"/>
      <path id="Trazado_633" data-name="Trazado 633" d="M42.051,33.772a2.1,2.1,0,0,0,.889,1.945l.6.491V31.8c-.081.042-.163.086-.242.133A2.283,2.283,0,0,0,42.051,33.772Z" transform="translate(-23.302 -18.387)" fill="url(#linear-gradient)"/>
      <path id="Trazado_634" data-name="Trazado 634" d="M27.573,6A21.575,21.575,0,1,0,49.148,27.573,21.574,21.574,0,0,0,27.573,6Zm7.306,27.865a5.986,5.986,0,0,1-3.021,4.421,8.362,8.362,0,0,1-2.946,1.1v2.246a1.306,1.306,0,0,1-1.148,1.419h-.383a1.307,1.307,0,0,1-1.148-1.419V39.473c-.185-.016-.369-.032-.553-.058a7.818,7.818,0,0,1-5.11-2.936,1.486,1.486,0,0,1,.755-2.332,2.522,2.522,0,0,1,2.933.636,3.326,3.326,0,0,0,1.975,1.234V28.685L22.57,25.7a5.123,5.123,0,0,1-2.088-4.6,5.692,5.692,0,0,1,2.932-4.278,8.677,8.677,0,0,1,2.819-1.04V13.52A1.305,1.305,0,0,1,27.382,12.1h.383a1.305,1.305,0,0,1,1.148,1.419v2.152c.167.017.335.031.5.056a7.638,7.638,0,0,1,4.977,2.863,1.561,1.561,0,0,1-.8,2.333,2.428,2.428,0,0,1-2.89-.639,3.279,3.279,0,0,0-1.789-1.142v6.873l3.788,3.11A5.454,5.454,0,0,1,34.879,33.863Z" transform="translate(-5.998 -5.998)" fill="url(#linear-gradient)"/>
    </g>
    <g id="Grupo_2821" data-name="Grupo 2821" transform="translate(500.926 366.25)">
      <path id="Trazado_632-2" data-name="Trazado 632" d="M50.548,54.227l-.472-.384v3a2.275,2.275,0,0,0,.226-.122,1.538,1.538,0,0,0,.819-1.194A1.437,1.437,0,0,0,50.548,54.227Z" transform="translate(-35.991 -38.555)" fill="#465b61"/>
      <path id="Trazado_633-2" data-name="Trazado 633" d="M42.045,33.012a1.293,1.293,0,0,0,.546,1.2l.367.3V31.8c-.05.026-.1.053-.149.081A1.4,1.4,0,0,0,42.045,33.012Z" transform="translate(-30.52 -23.555)" fill="#465b61"/>
      <path id="Trazado_634-2" data-name="Trazado 634" d="M19.259,6A13.261,13.261,0,1,0,32.521,19.26,13.261,13.261,0,0,0,19.259,6ZM23.75,23.126a3.68,3.68,0,0,1-1.857,2.718,5.14,5.14,0,0,1-1.811.674V27.9a.8.8,0,0,1-.706.872h-.235a.8.8,0,0,1-.706-.872V26.574c-.113-.01-.227-.02-.34-.036a4.806,4.806,0,0,1-3.141-1.8.914.914,0,0,1,.464-1.433,1.55,1.55,0,0,1,1.8.391,2.045,2.045,0,0,0,1.214.759V19.943l-2.252-1.837A3.149,3.149,0,0,1,14.9,15.28a3.5,3.5,0,0,1,1.8-2.629,5.334,5.334,0,0,1,1.733-.639v-1.39a.8.8,0,0,1,.706-.872h.235a.8.8,0,0,1,.706.872v1.323c.1.011.206.019.309.035a4.7,4.7,0,0,1,3.059,1.76.959.959,0,0,1-.492,1.434,1.492,1.492,0,0,1-1.776-.393,2.015,2.015,0,0,0-1.1-.7V18.3l2.328,1.911A3.353,3.353,0,0,1,23.75,23.126Z" transform="translate(-5.998 -5.998)" fill="#465b61"/>
    </g>
  </g>
</svg>
