<svg xmlns="http://www.w3.org/2000/svg" xmlns:xlink="http://www.w3.org/1999/xlink" width="56.019" height="29.695" viewBox="0 0 56.019 29.695">
  <defs>
    <linearGradient id="linear-gradient" x1="-0.003" y1="0.559" x2="1" y2="0.334" gradientUnits="objectBoundingBox">
      <stop offset="0" stop-color="#3fc698"/>
      <stop offset="1" stop-color="#3fb6c6"/>
    </linearGradient>
  </defs>
  <g id="Grupo_2823" data-name="Grupo 2823" transform="translate(-36.151 -70.167)">
    <path id="Trazado_638" data-name="Trazado 638" d="M48.688,83.046a2.907,2.907,0,0,1-.6-2.935A2.853,2.853,0,0,1,50.3,78.168l1.364-.221L49.2,72.783a.623.623,0,0,0-.581-.356h0a.622.622,0,0,0-.581.356L44.631,79.9,37.2,81.1a.765.765,0,0,0-.373,1.2l5.355,5.608-1.2,7.877a.758.758,0,0,0,.581.846.611.611,0,0,0,.373-.088l6.685-3.694,4.731,2.615.994-6.5Z" transform="translate(0 0.747)" stroke="rgba(0,0,0,0)" stroke-width="1" fill="url(#linear-gradient)"/>
    <path id="Trazado_639" data-name="Trazado 639" d="M80.008,81.106l-7.433-1.2-3.4-7.121a.623.623,0,0,0-.581-.356h0a.622.622,0,0,0-.581.356l-2.47,5.164,1.376.224a2.842,2.842,0,0,1,2.2,1.94,2.909,2.909,0,0,1-.605,2.944l-5.645,5.912.994,6.5,4.731-2.615,6.684,3.694a.714.714,0,0,0,.956-.758l-1.2-7.877,5.356-5.607A.765.765,0,0,0,80.008,81.106Z" transform="translate(11.115 0.747)" stroke="rgba(0,0,0,0)" stroke-width="1" fill="url(#linear-gradient)"/>
    <path id="Trazado_640" data-name="Trazado 640" d="M74.164,82.376a.907.907,0,0,0-.443-1.424l-1.965-.318-6.842-1.107L60.879,71.09a.739.739,0,0,0-.689-.423h0a.734.734,0,0,0-.688.422l-4.035,8.438-6.843,1.107-1.964.318a.907.907,0,0,0-.443,1.424l5.433,5.69.913.956-.714,4.671L51.3,97.28l-.164,1.075a.9.9,0,0,0,.688,1,.6.6,0,0,0,.071,0,.755.755,0,0,0,.372-.11l7.921-4.378,7.921,4.378a.609.609,0,0,0,.3.075.888.888,0,0,0,.835-.971l-.165-1.077-.548-3.589-.714-4.67.914-.957Z" transform="translate(3.97 0)" fill="#465b61" stroke="rgba(0,0,0,0)" stroke-width="1"/>
  </g>
</svg>
