<svg xmlns="http://www.w3.org/2000/svg" width="22.88" height="44.453" viewBox="0 0 22.88 44.453"><defs><style>.a{fill:#d1d1d1;}</style></defs><path class="a" d="M37.375,16.551V46.935a.543.543,0,0,1-.542.542H18.991a.543.543,0,0,1-.542-.542V7.337a.362.362,0,0,1,.361-.361h2.809a2.218,2.218,0,0,0,2,2.038h8.592a2.218,2.218,0,0,0,2-2.038h2.628a.543.543,0,0,1,.542.542v9.29a13.6,13.6,0,0,1,1.976.262V7.518A2.517,2.517,0,0,0,36.834,5H18.81a2.336,2.336,0,0,0-2.337,2.337v39.6a2.518,2.518,0,0,0,2.518,2.518H36.835a2.518,2.518,0,0,0,2.518-2.518V16.289A13.454,13.454,0,0,1,37.375,16.551ZM30.817,7.1a.371.371,0,1,1-.371.371A.371.371,0,0,1,30.817,7.1Zm-6.18,0h4.675a.371.371,0,0,1,0,.741H24.637a.371.371,0,0,1,0-.741Z" transform="translate(-16.473 -5)"/></svg>