<svg xmlns="http://www.w3.org/2000/svg" width="83.153" height="83.153" viewBox="0 0 83.153 83.153"><defs><style>.a{fill:#fff;}</style></defs><g transform="translate(-637.221 -165.333)"><path class="a" d="M3.812-49.923v1.953A1.906,1.906,0,0,0,5.3-46.111,23.82,23.82,0,0,1,23.828-22.875,23.815,23.815,0,0,1,0,.953,23.815,23.815,0,0,1-23.828-22.875,23.82,23.82,0,0,1-5.3-46.111,1.906,1.906,0,0,0-3.813-47.97v-1.952A1.906,1.906,0,0,0-6.106-51.79,29.557,29.557,0,0,0-29.546-22.716,29.485,29.485,0,0,0,.064,6.672,29.547,29.547,0,0,0,29.547-22.875,29.557,29.557,0,0,0,6.122-51.786,1.909,1.909,0,0,0,3.812-49.923Z" transform="translate(694.764 190.943) rotate(-135)"/><path class="a" d="M27.433-52.422H24.271a1.369,1.369,0,0,0-1.369,1.4l.268,11.248A28.267,28.267,0,0,0-.408-52.422c-13.828,0-10.735,5.933,0,5.933A22.354,22.354,0,0,1,19.979-33.332L5.558-33.676a1.369,1.369,0,0,0-1.4,1.369v3.162a1.369,1.369,0,0,0,1.369,1.369H27.433A1.369,1.369,0,0,0,28.8-29.145V-51.053A1.369,1.369,0,0,0,27.433-52.422Z" transform="matrix(-0.848, 0.53, -0.53, -0.848, 665.502, 188.33)"/></g></svg>