<svg xmlns="http://www.w3.org/2000/svg" width="71.818" height="78.75" viewBox="0 0 71.818 78.75"><defs><style>.a{fill:#3fc698;opacity:0.315;}</style></defs><g transform="translate(-632.938 -292.125)"><path class="a" d="M0-20.625a13.749,13.749,0,0,0,13.75-13.75A13.749,13.749,0,0,0,0-48.125a13.749,13.749,0,0,0-13.75,13.75A13.749,13.749,0,0,0,0-20.625Zm9.625,3.437H7.831A18.72,18.72,0,0,1,0-15.469a18.757,18.757,0,0,1-7.831-1.719H-9.625A14.441,14.441,0,0,0-24.062-2.75V1.719a5.158,5.158,0,0,0,5.156,5.156H18.906a5.158,5.158,0,0,0,5.156-5.156V-2.75A14.441,14.441,0,0,0,9.625-17.187Z" transform="translate(657 364)"/><path class="a" d="M.929-49.875c-8.5,0-14.537,3.518-19.165,10.387a5.346,5.346,0,0,0,1.205,7.242l4.68,3.548a5.341,5.341,0,0,0,7.423-.947C-2.538-32.671-1.77-33.2.208-33.2c1.138,0,2.815.779,2.815,2.031,0,2.865-12.168,2.309-12.168,13.61v1.531A5.339,5.339,0,0,0-6.923-11.7a10.667,10.667,0,0,0-3.765,8.135A10.7,10.7,0,0,0,0,7.125,10.7,10.7,0,0,0,10.687-3.562,10.667,10.667,0,0,0,6.923-11.7a5.339,5.339,0,0,0,2.223-4.333v-.524c2.826-2.114,11.61-4.955,11.61-15.522C20.755-42.216,10.726-49.875.929-49.875ZM0,3.562A7.133,7.133,0,0,1-7.125-3.562,7.133,7.133,0,0,1,0-10.687,7.133,7.133,0,0,1,7.125-3.562,7.133,7.133,0,0,1,0,3.562ZM5.583-17.19v1.159A1.781,1.781,0,0,1,3.8-14.25H-3.8a1.781,1.781,0,0,1-1.781-1.781v-1.531c0-9.661,12.168-6.382,12.168-13.61,0-3.562-3.527-5.593-6.378-5.593-3.761,0-5.474,1.8-7.931,4.912a1.782,1.782,0,0,1-2.475.317l-4.68-3.548a1.782,1.782,0,0,1-.4-2.413c3.8-5.642,8.642-8.815,16.21-8.815,7.867,0,16.264,6.141,16.264,14.236C17.192-21.327,5.583-21.162,5.583-17.19Z" transform="translate(684 342)"/></g></svg>