<svg xmlns="http://www.w3.org/2000/svg" viewBox="0 0 209.09 46.31"><defs><style>.cls-1{fill:#717070;}.cls-2{fill:#475c62;}.cls-3{fill:#53b794;}</style></defs><g id="Capa_2" data-name="Capa 2"><g id="Capa_1-2" data-name="Capa 1"><path class="cls-1" d="M54.4,35.92l0,.82a2.76,2.76,0,0,1,2.2-1A2.11,2.11,0,0,1,58.74,37a2.69,2.69,0,0,1,1-.87,2.92,2.92,0,0,1,1.4-.32c1.62,0,2.44.86,2.47,2.57v5H62.31V38.44a1.66,1.66,0,0,0-.37-1.19,1.58,1.58,0,0,0-1.21-.39,1.68,1.68,0,0,0-1.17.42A1.71,1.71,0,0,0,59,38.41v4.91H57.75V38.47a1.41,1.41,0,0,0-1.58-1.61,1.68,1.68,0,0,0-1.7,1.06v5.4H53.2v-7.4Z"/><path class="cls-1" d="M65.48,34a.79.79,0,0,1,.19-.52.85.85,0,0,1,1.12,0A.74.74,0,0,1,67,34a.69.69,0,0,1-.19.51.85.85,0,0,1-1.12,0A.73.73,0,0,1,65.48,34Zm1.37,9.36H65.59v-7.4h1.26Z"/><path class="cls-1" d="M70.07,35.92l0,.93a2.71,2.71,0,0,1,2.22-1.06c1.56,0,2.35.88,2.36,2.64v4.89H73.43v-4.9a1.73,1.73,0,0,0-.37-1.18,1.49,1.49,0,0,0-1.12-.38,1.82,1.82,0,0,0-1.08.33,2.16,2.16,0,0,0-.72.86v5.27H68.88v-7.4Z"/><path class="cls-1" d="M80.91,41.36a.94.94,0,0,0-.39-.8,3.8,3.8,0,0,0-1.35-.49,6.17,6.17,0,0,1-1.52-.49,2.26,2.26,0,0,1-.84-.68,1.73,1.73,0,0,1-.26-.95,1.93,1.93,0,0,1,.76-1.54,3.48,3.48,0,0,1,4,0,2.05,2.05,0,0,1,.78,1.66H80.83a1.16,1.16,0,0,0-.44-.9,1.64,1.64,0,0,0-1.11-.38,1.73,1.73,0,0,0-1.08.31.94.94,0,0,0-.39.78.76.76,0,0,0,.36.69,4.25,4.25,0,0,0,1.31.45,7.33,7.33,0,0,1,1.54.5,2.26,2.26,0,0,1,.87.71,1.74,1.74,0,0,1,.28,1,1.89,1.89,0,0,1-.79,1.59,3.34,3.34,0,0,1-2.06.6,3.7,3.7,0,0,1-1.57-.32,2.52,2.52,0,0,1-1.07-.88A2.08,2.08,0,0,1,76.29,41h1.27a1.29,1.29,0,0,0,.51,1,1.94,1.94,0,0,0,1.25.37,2,2,0,0,0,1.15-.29A.89.89,0,0,0,80.91,41.36Z"/><path class="cls-1" d="M85,35.92l0,.82a2.76,2.76,0,0,1,2.2-1A2.1,2.1,0,0,1,89.35,37a2.87,2.87,0,0,1,1-.87,2.92,2.92,0,0,1,1.4-.32c1.62,0,2.44.86,2.47,2.57v5H92.92V38.44a1.71,1.71,0,0,0-.36-1.19,1.62,1.62,0,0,0-1.22-.39,1.68,1.68,0,0,0-1.17.42,1.71,1.71,0,0,0-.54,1.13v4.91H88.36V38.47a1.41,1.41,0,0,0-1.58-1.61,1.68,1.68,0,0,0-1.7,1.06v5.4H83.81v-7.4Z"/><path class="cls-1" d="M100.66,43.32a2.34,2.34,0,0,1-.18-.78,2.83,2.83,0,0,1-2.11.92,2.62,2.62,0,0,1-1.79-.62,2,2,0,0,1-.7-1.57,2.1,2.1,0,0,1,.88-1.8,4.17,4.17,0,0,1,2.47-.64h1.23v-.58a1.39,1.39,0,0,0-.4-1,1.59,1.59,0,0,0-1.17-.4,1.81,1.81,0,0,0-1.13.35,1,1,0,0,0-.46.82H96a1.77,1.77,0,0,1,.39-1.07,2.69,2.69,0,0,1,1.07-.81,3.59,3.59,0,0,1,1.48-.3,2.94,2.94,0,0,1,2,.63,2.34,2.34,0,0,1,.75,1.77v3.4a4.21,4.21,0,0,0,.26,1.62v.11Zm-2.1-1a2.32,2.32,0,0,0,1.13-.31,1.91,1.91,0,0,0,.77-.8V39.73h-1c-1.55,0-2.33.45-2.33,1.36a1.13,1.13,0,0,0,.4.93A1.53,1.53,0,0,0,98.56,42.36Z"/><path class="cls-1" d="M105,35.92v8.25c0,1.43-.64,2.14-1.93,2.14a2.2,2.2,0,0,1-.78-.13v-1a3,3,0,0,0,.58,0,.81.81,0,0,0,.64-.23,1.1,1.1,0,0,0,.23-.79V35.92Zm-1.39-2a.8.8,0,0,1,.18-.52.84.84,0,0,1,1.11,0,.75.75,0,0,1,.2.52.69.69,0,0,1-.2.51.7.7,0,0,1-.56.21.69.69,0,0,1-.55-.21A.72.72,0,0,1,103.62,34Z"/><path class="cls-1" d="M106.71,39.55a4.43,4.43,0,0,1,.43-1.95,3.11,3.11,0,0,1,1.19-1.34,3.2,3.2,0,0,1,1.74-.47,3.09,3.09,0,0,1,2.44,1,4,4,0,0,1,.94,2.78v.09a4.35,4.35,0,0,1-.42,1.94A3.14,3.14,0,0,1,111.85,43a3.26,3.26,0,0,1-1.77.48,3.09,3.09,0,0,1-2.43-1.05,4,4,0,0,1-.94-2.77Zm1.27.15a3.13,3.13,0,0,0,.58,2,1.93,1.93,0,0,0,3,0,3.47,3.47,0,0,0,.57-2.12,3.12,3.12,0,0,0-.58-2,1.83,1.83,0,0,0-1.53-.76,1.8,1.8,0,0,0-1.51.75A3.46,3.46,0,0,0,108,39.7Z"/><path class="cls-1" d="M121.29,39.7a4.42,4.42,0,0,1-.78,2.73,2.5,2.5,0,0,1-2.09,1,2.55,2.55,0,0,1-2.16-1l-.07.86H115V32.82h1.27v3.92a2.54,2.54,0,0,1,2.11-1,2.5,2.5,0,0,1,2.11,1,4.49,4.49,0,0,1,.77,2.79ZM120,39.56a3.46,3.46,0,0,0-.5-2,1.65,1.65,0,0,0-1.44-.7A1.85,1.85,0,0,0,116.3,38v3.2a1.91,1.91,0,0,0,1.81,1.16,1.63,1.63,0,0,0,1.41-.7A3.62,3.62,0,0,0,120,39.56Z"/><path class="cls-1" d="M129.15,39.7a4.42,4.42,0,0,1-.78,2.73,2.51,2.51,0,0,1-2.09,1,2.56,2.56,0,0,1-2.17-1l-.06.86h-1.16V32.82h1.26v3.92a2.55,2.55,0,0,1,2.11-1,2.52,2.52,0,0,1,2.12,1,4.55,4.55,0,0,1,.77,2.79Zm-1.27-.14a3.38,3.38,0,0,0-.5-2,1.64,1.64,0,0,0-1.43-.7,1.86,1.86,0,0,0-1.8,1.16v3.2A1.91,1.91,0,0,0,126,42.38a1.65,1.65,0,0,0,1.42-.7A3.71,3.71,0,0,0,127.88,39.56Z"/><path class="cls-1" d="M130.77,42.66a.78.78,0,0,1,.19-.55.74.74,0,0,1,.59-.22.76.76,0,0,1,.59.22.79.79,0,0,1,.2.55.73.73,0,0,1-.2.52.79.79,0,0,1-.59.21.77.77,0,0,1-.59-.21A.73.73,0,0,1,130.77,42.66Z"/><path class="cls-1" d="M135.62,35.92l0,.93a2.71,2.71,0,0,1,2.22-1.06c1.56,0,2.35.88,2.36,2.64v4.89H139v-4.9a1.73,1.73,0,0,0-.37-1.18,1.49,1.49,0,0,0-1.12-.38,1.82,1.82,0,0,0-1.08.33,2.25,2.25,0,0,0-.72.86v5.27h-1.26v-7.4Z"/><path class="cls-1" d="M141.81,39.55a4.43,4.43,0,0,1,.43-1.95,3.14,3.14,0,0,1,2.93-1.81,3.09,3.09,0,0,1,2.44,1,4,4,0,0,1,.94,2.78v.09a4.35,4.35,0,0,1-.42,1.94A3.14,3.14,0,0,1,147,43a3.25,3.25,0,0,1-1.76.48,3.1,3.1,0,0,1-2.44-1.05,4,4,0,0,1-.94-2.77Zm1.28.15a3.19,3.19,0,0,0,.57,2,1.94,1.94,0,0,0,3.06,0,3.54,3.54,0,0,0,.56-2.12,3.18,3.18,0,0,0-.57-2,1.86,1.86,0,0,0-1.54-.76,1.81,1.81,0,0,0-1.51.75A3.46,3.46,0,0,0,143.09,39.7Z"/><g id="logo_svg-colored"><path id="Trazado_884" data-name="Trazado 884" class="cls-2" d="M53.35,25.31h1.43a1.06,1.06,0,0,0,1.16-.94.61.61,0,0,0,0-.14l.77-8.92,3.6,8.92a1.25,1.25,0,0,0,1.28.89h.63a1.26,1.26,0,0,0,1.29-.89l3.6-8.92.74,8.92a1.09,1.09,0,0,0,1.07,1.09h1.55a1,1,0,0,0,1.09-.84,1,1,0,0,0,0-.35L70.25,10A1.08,1.08,0,0,0,69.19,9H67.37a1.25,1.25,0,0,0-1.28.88L61.91,20,57.75,9.84A1.28,1.28,0,0,0,56.44,9H54.76a1.06,1.06,0,0,0-1.17.93V10L52.28,24.12a1,1,0,0,0,.7,1.17A.93.93,0,0,0,53.35,25.31ZM76.06,11.88a1.9,1.9,0,1,0,0-3.77A1.92,1.92,0,0,0,73.89,10,2,2,0,0,0,76.06,11.88Zm-.67,13.43h1.35a1,1,0,0,0,1.14-.9,1.62,1.62,0,0,0,0-.22V14.42A1,1,0,0,0,77,13.3a.81.81,0,0,0-.22,0H75.39a1,1,0,0,0-1.13.89v10a1,1,0,0,0,.89,1.12A1,1,0,0,0,75.39,25.31Zm6.54,0H83.3a1,1,0,0,0,1.13-.89.88.88,0,0,0,0-.23v-5C84.43,17,85.71,16,87,16s1.89,1,1.89,2.66v5.54a1,1,0,0,0,.89,1.12,1,1,0,0,0,.24,0h1.35a1,1,0,0,0,1.14-.9.81.81,0,0,0,0-.22v-5.8c0-2.82-1.16-5.35-4.39-5.35a3.67,3.67,0,0,0-3.64,2.18v-.8a1,1,0,0,0-.89-1.12.88.88,0,0,0-.23,0H81.93a1,1,0,0,0-1.12.89.89.89,0,0,0,0,.23v9.77a1,1,0,0,0,.88,1.12,1,1,0,0,0,.24,0Zm18.87.26c3.49,0,6.22-1.71,6.22-4.91,0-2.06-1.24-3.74-4.44-4.82l-2.12-.76c-1.45-.54-1.71-1.17-1.71-1.76,0-1.07,1-1.66,2.17-1.66a2.33,2.33,0,0,1,2.13,1.08c.4.56.79.82,1.45.63l.93-.26a.92.92,0,0,0,.81-1,.82.82,0,0,0-.13-.38,5.4,5.4,0,0,0-5.23-3c-3.2,0-5.8,1.87-5.8,4.86,0,2.52,2.41,4,4.35,4.6l2.12.77c1.24.42,1.87,1.08,1.87,1.89,0,1.08-1,1.78-2.64,1.78a3.3,3.3,0,0,1-2.94-1.45c-.37-.61-.73-.89-1.38-.72l-1,.23c-.72.19-1.09.68-.79,1.38.87,2.17,3.09,3.53,6.15,3.53Zm9.54-.26h1.37a1,1,0,0,0,1.13-.89.88.88,0,0,0,0-.23V19.12c0-2.24,1.09-3.13,2.17-3.13s1.7.91,1.7,2.59v5.61a1,1,0,0,0,.89,1.12,1,1,0,0,0,.24,0h1.37a1,1,0,0,0,1.13-.89V19c0-2.19,1.14-3,2.14-3s1.73.91,1.73,2.59v5.61a1,1,0,0,0,.89,1.12.88.88,0,0,0,.23,0h1.36a1,1,0,0,0,1.14-.9.81.81,0,0,0,0-.22V18.42c0-2.83-1.3-5.38-4.41-5.38a4.11,4.11,0,0,0-3.86,2.08A3.73,3.73,0,0,0,116.08,13a3.3,3.3,0,0,0-3.25,2.18v-.8A1,1,0,0,0,112,13.3a1,1,0,0,0-.24,0h-1.38a1,1,0,0,0-1.12.89.89.89,0,0,0,0,.23v9.77a1,1,0,0,0,.89,1.12,1,1,0,0,0,.24,0Zm26.12-13.5a2.72,2.72,0,0,0,2.94-2.64,2.93,2.93,0,1,0-2.94,2.64Zm0-1.43a1.24,1.24,0,0,1-1.29-1.19v0A1.21,1.21,0,0,1,136.39,8h.07a1.2,1.2,0,0,1,1.28,1.1v.1a1.21,1.21,0,0,1-1.23,1.21Zm-.84,15.19a4.38,4.38,0,0,0,3.85-1.94v.56a1,1,0,0,0,.89,1.12,1,1,0,0,0,.24,0H142a1,1,0,0,0,1.13-.89.88.88,0,0,0,0-.23V14.42a1,1,0,0,0-.89-1.12,1,1,0,0,0-.24,0h-1.38a1,1,0,0,0-1.12.89V15a4.34,4.34,0,0,0-3.85-2c-3.37,0-5.77,2.74-5.77,6.26s2.4,6.27,5.77,6.27Zm.84-2.9c-1.9,0-3-1.5-3-3.36s1.09-3.37,3-3.37a3.1,3.1,0,0,1,3.06,3.37,3.1,3.1,0,0,1-3.06,3.36ZM148.7,11.88A2,2,0,0,0,150.87,10a2.19,2.19,0,0,0-4.34,0,2,2,0,0,0,2.17,1.87ZM146,30.83c2,0,4.46-.87,4.46-4.54V14.42a1,1,0,0,0-.89-1.12.88.88,0,0,0-.23,0H148a1,1,0,0,0-1.12.89.89.89,0,0,0,0,.23V26.76c0,.86-.39,1.38-1.12,1.38-.58,0-1-.33-1-.77v-.14c0-.24-.16-.43-.49-.43H142.6a.55.55,0,0,0-.58.45,1.53,1.53,0,0,0,0,.37c0,2.22,1.89,3.21,4,3.21Zm13.32-5.26A6.38,6.38,0,0,0,166,19.31a6.67,6.67,0,0,0-13.31,0,6.37,6.37,0,0,0,6.66,6.26Zm0-2.92a3.23,3.23,0,0,1-3.23-3.22v-.1A3.24,3.24,0,0,1,159.2,16h.11a3.24,3.24,0,0,1,3.22,3.26v.08a3.25,3.25,0,0,1-3.16,3.32Zm16.23,2.92c3.39,0,5.8-2.71,5.8-6.26s-2.41-6.26-5.8-6.26a4.33,4.33,0,0,0-3.83,2V9.54a1,1,0,0,0-.92-1.12h-1.58a1,1,0,0,0-1.12.88,1,1,0,0,0,0,.24V24.19a1,1,0,0,0,.89,1.12.89.89,0,0,0,.23,0h1.36a1,1,0,0,0,1.14-.9.81.81,0,0,0,0-.22v-.56a4.39,4.39,0,0,0,3.84,1.94Zm-.81-2.9a3.11,3.11,0,0,1-3.09-3.36,3.12,3.12,0,0,1,3.09-3.37,3.07,3.07,0,0,1,3,3.37c0,1.86-1.12,3.36-3,3.36ZM191,25.57c3.39,0,5.8-2.71,5.8-6.26s-2.41-6.26-5.8-6.26a4.33,4.33,0,0,0-3.83,2V9.54a1,1,0,0,0-.92-1.12h-1.58a1,1,0,0,0-1.12.88,1,1,0,0,0,0,.24V24.19a1,1,0,0,0,.89,1.12.88.88,0,0,0,.23,0H186a1,1,0,0,0,1.14-.9.81.81,0,0,0,0-.22v-.56A4.39,4.39,0,0,0,191,25.57Zm-.82-2.9a3.11,3.11,0,0,1-3.08-3.36,3.11,3.11,0,0,1,3.08-3.37,3.07,3.07,0,0,1,3,3.37c0,1.86-1.12,3.36-3,3.36Z"/><path class="cls-2" d="M200.37,11.6V8.11H199a.23.23,0,0,1-.25-.25V7.24A.23.23,0,0,1,199,7h4a.23.23,0,0,1,.25.25v.62a.23.23,0,0,1-.25.25h-1.38V11.6c0,.16-.08.25-.23.25h-.76C200.45,11.85,200.37,11.76,200.37,11.6Zm3,0,.41-4.37A.25.25,0,0,1,204,7h.68a.25.25,0,0,1,.27.19l1.25,3,1.23-3a.28.28,0,0,1,.29-.19h.7a.23.23,0,0,1,.26.23l.39,4.37a.22.22,0,0,1-.23.26h-.72a.25.25,0,0,1-.26-.23l-.19-2.21-.94,2.12a.26.26,0,0,1-.27.18H206a.26.26,0,0,1-.28-.18l-.92-2.12-.21,2.21a.24.24,0,0,1-.26.23h-.73A.21.21,0,0,1,203.35,11.59Z"/><g id="Grupo_22" data-name="Grupo 22"><path id="Trazado_45" data-name="Trazado 45" class="cls-3" d="M40.26,0,3,2.86a3,3,0,0,0-3,3V26.74a3,3,0,0,0,3,3l8.7.67L16,22.18h0a8.39,8.39,0,1,1,3.51,1.9l-3.19,6.7-1.74,3.39c-.13.28,0,.62.48.41l6.15-3.43,19.06,1.46a3,3,0,0,0,3-3V3A3,3,0,0,0,40.26,0Z"/><circle id="Elipse_12" data-name="Elipse 12" class="cls-3" cx="21.59" cy="15.91" r="4.6"/></g></g></g></g></svg>