<svg id="logo_svg-colored" xmlns="http://www.w3.org/2000/svg" width="352" height="61.98" viewBox="0 0 352 61.98">
  <path id="Trazado_884" data-name="Trazado 884" d="M3.335,12.732h2.55a1.889,1.889,0,0,0,2.09-1.923L9.354-5.157l6.437,15.966a2.248,2.248,0,0,0,2.3,1.588h1.129a2.248,2.248,0,0,0,2.3-1.588L27.953-5.157l1.337,15.966a1.923,1.923,0,0,0,2.132,1.923h2.55A1.743,1.743,0,0,0,35.895,10.6L33.554-14.6a1.91,1.91,0,0,0-2.09-1.923H28.413a2.248,2.248,0,0,0-2.3,1.588L18.633,3.244l-7.44-18.181a2.3,2.3,0,0,0-2.341-1.588H5.843A1.889,1.889,0,0,0,3.753-14.6L1.413,10.6A1.728,1.728,0,0,0,3.335,12.732ZM43.961-11.3c2.382,0,3.887-1.463,3.887-3.344,0-1.923-1.421-3.386-3.887-3.386-2.508,0-3.887,1.463-3.887,3.386C40.074-12.764,41.579-11.3,43.961-11.3ZM42.749,12.732h2.424a1.839,1.839,0,0,0,2.048-2.006V-6.745a1.839,1.839,0,0,0-2.048-2.006H42.749a1.808,1.808,0,0,0-2.006,2.006V10.726A1.808,1.808,0,0,0,42.749,12.732Zm11.7,0h2.466a1.808,1.808,0,0,0,2.006-2.006V1.781c0-4.012,2.3-5.726,4.514-5.726S66.824-2.189,66.824.82v9.906a1.808,1.808,0,0,0,2.006,2.006h2.424A1.839,1.839,0,0,0,73.3,10.726V.36c0-5.057-2.09-9.571-7.858-9.571-3.177,0-5.475,1.421-6.52,3.887V-6.745a1.808,1.808,0,0,0-2.006-2.006H54.452a1.808,1.808,0,0,0-2.006,2.006V10.726A1.808,1.808,0,0,0,54.452,12.732Zm33.771.46c6.228,0,11.118-3.051,11.118-8.777C99.258.736,97.126-2.273,91.4-4.2L87.6-5.575c-2.591-.961-3.051-2.09-3.051-3.135,0-1.923,1.8-2.968,3.887-2.968a4.136,4.136,0,0,1,3.8,1.923c.711,1,1.421,1.463,2.591,1.129l1.672-.46a1.677,1.677,0,0,0,1.212-2.55c-1.588-3.344-4.807-5.35-9.362-5.35-5.726,0-10.366,3.344-10.366,8.694.042,4.514,4.305,7.105,7.774,8.234l3.8,1.379c2.215.752,3.344,1.923,3.344,3.386,0,1.923-1.881,3.177-4.723,3.177a5.946,5.946,0,0,1-5.266-2.591C82.247,4.205,81.62,3.7,80.45,4l-1.8.418c-1.3.334-1.964,1.212-1.421,2.466C78.778,10.767,82.748,13.192,88.224,13.192Zm17.053-.46h2.466a1.808,1.808,0,0,0,2.006-2.006V1.656c0-4.012,1.964-5.6,3.887-5.6s3.051,1.63,3.051,4.639V10.726a1.808,1.808,0,0,0,2.006,2.006h2.466a1.808,1.808,0,0,0,2.006-2.006V1.447c.084-3.929,2.048-5.392,3.845-5.392,1.923,0,3.093,1.63,3.093,4.639V10.726a1.808,1.808,0,0,0,2.006,2.006h2.424a1.839,1.839,0,0,0,2.048-2.006V.4c0-5.057-2.341-9.613-7.9-9.613a7.328,7.328,0,0,0-6.9,3.72,6.671,6.671,0,0,0-6.228-3.72,5.876,5.876,0,0,0-5.81,3.887V-6.745a1.808,1.808,0,0,0-2.006-2.006h-2.466a1.808,1.808,0,0,0-2.006,2.006V10.726A1.808,1.808,0,0,0,105.277,12.732Zm46.728-24.158c2.926,0,5.266-1.881,5.266-4.723,0-2.926-2.341-4.807-5.266-4.807-2.842,0-5.183,1.881-5.183,4.807C146.822-13.307,149.163-11.426,152.005-11.426Zm0-2.55a2.215,2.215,0,0,1-2.3-2.173,2.157,2.157,0,0,1,2.3-2.132,2.133,2.133,0,0,1,2.3,2.132A2.19,2.19,0,0,1,152.005-13.976Zm-1.5,27.168a7.837,7.837,0,0,0,6.9-3.469v1a1.808,1.808,0,0,0,2.006,2.006h2.466a1.808,1.808,0,0,0,2.006-2.006V-6.745a1.808,1.808,0,0,0-2.006-2.006H159.4A1.808,1.808,0,0,0,157.4-6.745V-5.7a7.779,7.779,0,0,0-6.9-3.511c-6.019,0-10.324,4.89-10.324,11.2C140.177,8.343,144.482,13.192,150.5,13.192Zm1.5-5.183c-3.386,0-5.35-2.675-5.35-6.019,0-3.3,1.964-6.019,5.35-6.019,3.3,0,5.475,2.591,5.475,6.019S155.307,8.009,152.005,8.009Zm21.9-19.31c2.382,0,3.887-1.463,3.887-3.344,0-1.923-1.421-3.386-3.887-3.386-2.508,0-3.887,1.463-3.887,3.386C170.019-12.764,171.524-11.3,173.906-11.3Zm-4.848,33.9c3.636,0,7.983-1.546,7.983-8.108V-6.745a1.808,1.808,0,0,0-2.006-2.006h-2.424A1.808,1.808,0,0,0,170.6-6.745V15.323c0,1.546-.711,2.466-2.006,2.466-1.045,0-1.755-.585-1.755-1.379v-.251c0-.418-.293-.752-.878-.752H163a.974.974,0,0,0-1.045.794,3.6,3.6,0,0,0-.042.669C161.911,20.84,165.3,22.6,169.058,22.6Zm23.824-9.4c6.813,0,11.912-5.016,11.912-11.2s-5.1-11.2-11.912-11.2S180.97-4.2,180.97,1.99C180.97,8.218,186.069,13.192,192.882,13.192Zm0-5.225a5.766,5.766,0,0,1-5.768-5.935,5.776,5.776,0,0,1,5.768-5.977,5.8,5.8,0,0,1,5.768,5.977A5.791,5.791,0,0,1,192.882,7.967Zm29.048,5.225c6.06,0,10.365-4.848,10.365-11.2,0-6.311-4.305-11.2-10.365-11.2A7.756,7.756,0,0,0,215.076-5.7v-9.78a1.839,1.839,0,0,0-2.048-2.006H210.6a1.808,1.808,0,0,0-2.006,2.006V10.726a1.808,1.808,0,0,0,2.006,2.006h2.424a1.839,1.839,0,0,0,2.048-2.006v-1A7.813,7.813,0,0,0,221.93,13.192Zm-1.463-5.183c-3.344,0-5.475-2.591-5.517-6.019.042-3.427,2.173-6.019,5.517-6.019s5.35,2.717,5.35,6.019C225.818,5.334,223.811,8.009,220.468,8.009Zm29.048,5.183c6.06,0,10.365-4.848,10.365-11.2,0-6.311-4.305-11.2-10.365-11.2A7.756,7.756,0,0,0,242.661-5.7v-9.78a1.839,1.839,0,0,0-2.048-2.006h-2.424a1.808,1.808,0,0,0-2.006,2.006V10.726a1.808,1.808,0,0,0,2.006,2.006h2.424a1.839,1.839,0,0,0,2.048-2.006v-1A7.813,7.813,0,0,0,249.516,13.192Zm-1.463-5.183c-3.344,0-5.475-2.591-5.517-6.019.042-3.427,2.173-6.019,5.517-6.019s5.35,2.717,5.35,6.019C253.4,5.334,251.4,8.009,248.053,8.009Z" transform="translate(92.118 32.546)" fill="#465b61"/>
  <g id="Grupo_22" data-name="Grupo 22">
    <path id="Trazado_45" data-name="Trazado 45" d="M487.6,344.394l-66.632,5.11a5.415,5.415,0,0,0-5.4,5.4v37.326a5.415,5.415,0,0,0,5.4,5.4l15.573,1.194,7.631-14.757h0a15.02,15.02,0,1,1,6.283,3.4l-5.716,11.986-3.107,6.062c-.227.514.08,1.122.862.743l11-6.132,34.1,2.614a5.415,5.415,0,0,0,5.4-5.4V349.793A5.415,5.415,0,0,0,487.6,344.394Z" transform="translate(-415.564 -344.394)" fill="#3fc698"/>
    <circle id="Elipse_12" data-name="Elipse 12" cx="8.232" cy="8.232" r="8.232" transform="translate(26.982 28.465) rotate(-45)" fill="#3fc698"/>
  </g>
</svg>
