<?xml version="1.0" encoding="utf-8"?>
<!-- Generator: Adobe Illustrator 24.1.0, SVG Export Plug-In . SVG Version: 6.00 Build 0)  -->
<svg version="1.1" id="Capa_1" xmlns="http://www.w3.org/2000/svg" xmlns:xlink="http://www.w3.org/1999/xlink" x="0px" y="0px"
	 viewBox="0 0 25.5 22.5" style="enable-background:new 0 0 25.5 22.5;" xml:space="preserve">
<style type="text/css">
	.st0{fill:#3FC698;}
</style>
<g id="Grupo_277" transform="translate(-501.828 -278.533)">
	<path id="Trazado_237" class="st0" d="M514.6,281.5c5.4,0,9.7,3.4,9.7,7.6c0,1.4-0.5,2.7-1.3,3.8c-0.9,1.1-2,2.1-3.3,2.7
		c0.2,0.4,0.6,0.7,1,0.9c0.3,0.2,0.4,0.6,0.2,0.9c-0.1,0.1-0.2,0.2-0.3,0.3c-0.5,0.2-1,0.2-1.5,0.2c-1.2,0-2.3-0.4-3.2-1.3
		c-0.4,0-0.9,0.1-1.3,0.1c-5.4,0-9.7-3.4-9.7-7.6S509.2,281.5,514.6,281.5 M514.6,278.5c-7,0-12.7,4.8-12.7,10.6s5.7,10.6,12.7,10.6
		c0.1,0,0.3,0,0.4,0c1.2,0.8,2.7,1.2,4.1,1.2c0.8,0,1.7-0.1,2.5-0.4c1.7-0.6,2.7-2.4,2.3-4.2c0.6-0.5,1.1-1.1,1.5-1.7
		c1.2-1.6,1.9-3.6,1.9-5.6C527.3,283.3,521.6,278.5,514.6,278.5L514.6,278.5z"/>
</g>
</svg>
