<?xml version="1.0" encoding="utf-8"?>
<!-- Generator: Adobe Illustrator 24.1.0, SVG Export Plug-In . SVG Version: 6.00 Build 0)  -->
<svg version="1.1" id="Capa_1" xmlns="http://www.w3.org/2000/svg" xmlns:xlink="http://www.w3.org/1999/xlink" x="0px" y="0px"
	 viewBox="0 0 22.6 25" style="enable-background:new 0 0 22.6 25;" xml:space="preserve">
<style type="text/css">
	.st0{fill:#3FC698;}
</style>
<g id="Icon_feather-user" transform="translate(-563.222 -277.5)">
	<g id="Trazado_233">
		<path id="Trazado_240" class="st0" d="M584.3,302.5c-0.8,0-1.5-0.7-1.5-1.5v-2.4c0-1.9-1.5-3.4-3.4-3.4h-9.8
			c-1.9,0-3.4,1.5-3.4,3.4v2.4c0,0.8-0.7,1.5-1.5,1.5s-1.5-0.7-1.5-1.5v-2.4c0-3.5,2.9-6.4,6.4-6.4h9.8c3.5,0,6.4,2.9,6.4,6.4v2.4
			C585.8,301.8,585.1,302.5,584.3,302.5z"/>
	</g>
	<g id="Trazado_234">
		<path id="Trazado_241" class="st0" d="M574.5,290.3c-3.5,0-6.4-2.9-6.4-6.4s2.9-6.4,6.4-6.4c3.5,0,6.4,2.9,6.4,6.4c0,0,0,0,0,0
			C580.9,287.4,578,290.3,574.5,290.3z M574.5,280.5c-1.9,0-3.4,1.5-3.4,3.4s1.5,3.4,3.4,3.4c1.9,0,3.4-1.5,3.4-3.4c0,0,0,0,0,0
			C577.9,282,576.4,280.5,574.5,280.5z"/>
	</g>
</g>
</svg>
