<?xml version="1.0" encoding="utf-8"?>
<!-- Generator: Adobe Illustrator 24.1.0, SVG Export Plug-In . SVG Version: 6.00 Build 0)  -->
<svg version="1.1" id="Capa_1" xmlns="http://www.w3.org/2000/svg" xmlns:xlink="http://www.w3.org/1999/xlink" x="0px" y="0px"
	 viewBox="0 0 24.4 24.4" style="enable-background:new 0 0 24.4 24.4;" xml:space="preserve">
<style type="text/css">
	.st0{fill:#3FC698;}
</style>
<g id="Grupo_276" transform="translate(-472.588 -277.191)">
	<g id="Trazado_229">
		<path id="Trazado_235" class="st0" d="M489.3,287.8h-3v-3c0-0.8-0.6-1.5-1.5-1.6c-0.8,0-1.5,0.6-1.6,1.5l0,0v3.1h-3
			c-0.8,0-1.5,0.6-1.6,1.5c0,0.8,0.6,1.5,1.5,1.6h3.1v3c0,0.8,0.6,1.5,1.5,1.6c0.8,0,1.5-0.6,1.6-1.5c0,0,0-0.1,0-0.1v-3h3
			c0.8,0,1.5-0.6,1.6-1.5C490.9,288.6,490.3,287.9,489.3,287.8C489.4,287.8,489.4,287.8,489.3,287.8z"/>
	</g>
	<g id="Trazado_230">
		<path id="Trazado_236" class="st0" d="M484.8,277.2c-6.7,0-12.2,5.5-12.2,12.2s5.5,12.2,12.2,12.2s12.2-5.5,12.2-12.2
			S491.5,277.2,484.8,277.2L484.8,277.2z M484.8,298.5c-5,0-9.1-4.1-9.1-9.1s4.1-9.1,9.1-9.1s9.1,4.1,9.1,9.1v0l0,0
			C493.9,294.4,489.8,298.5,484.8,298.5z"/>
	</g>
</g>
</svg>
