<?xml version="1.0" encoding="utf-8"?>
<!-- Generator: Adobe Illustrator 24.1.0, SVG Export Plug-In . SVG Version: 6.00 Build 0)  -->
<svg version="1.1" id="Capa_1" xmlns="http://www.w3.org/2000/svg" xmlns:xlink="http://www.w3.org/1999/xlink" x="0px" y="0px"
	 viewBox="0 0 24.8 24" style="enable-background:new 0 0 24.8 24;" xml:space="preserve">
<style type="text/css">
	.st0{fill:#9A9A9A;}
</style>
<path class="st0" d="M24.3,21.4l-4.3-4c1.3-1.9,2.1-4.2,2-6.7C21.8,4.7,16.9,0,11,0C4.9,0,0,4.9,0,11c0,6.1,4.9,11,11,11
	c0.1,0,0.3,0,0.4,0c2.5-0.1,4.8-1,6.6-2.5l4.3,4c0.3,0.3,0.6,0.4,1,0.4v0c0.4,0,0.8-0.2,1.1-0.5C25,22.9,24.9,21.9,24.3,21.4z
	 M11.3,19c-4.4,0.2-8.1-3.3-8.3-7.7C2.9,6.9,6.3,3.2,10.7,3c0.1,0,0.2,0,0.3,0c4.3,0,7.9,3.4,8,7.7c0,0,0,0,0,0
	C19.2,15.2,15.7,18.9,11.3,19z"/>
</svg>
