<svg id="Grupo_2693" data-name="Grupo 2693" xmlns="http://www.w3.org/2000/svg" width="54.95" height="45.232" viewBox="0 0 54.95 45.232">
  <path id="Sustracción_4" data-name="Sustracción 4" d="M3.27,18.905a.969.969,0,0,1-.876-.559.914.914,0,0,1,.151-.994A8.558,8.558,0,0,0,4.28,14.518a9.488,9.488,0,0,1-3.116-2.769A6.235,6.235,0,0,1,0,8.155C0,3.658,5.137,0,11.452,0a13.921,13.921,0,0,1,8.062,2.386,7.167,7.167,0,0,1,3.333,5.769,7.168,7.168,0,0,1-3.333,5.77,13.92,13.92,0,0,1-8.062,2.386c-.641,0-1.291-.059-1.85-.115a59.182,59.182,0,0,1-6.016,2.66A1.061,1.061,0,0,1,3.27,18.905Zm6-9.041a.4.4,0,0,0-.078.008l-.972.24a.325.325,0,0,0-.216.143.282.282,0,0,0-.013.228,2.9,2.9,0,0,0,2.88,1.992v.78a.217.217,0,0,0,.24.24h.2a.216.216,0,0,0,.239-.24v-.792c1.644-.145,2.664-1.069,2.664-2.412C14.2,8.943,13.469,8.166,12,7.676l-.445-.156V5.708a1.028,1.028,0,0,1,.769.648.3.3,0,0,0,.274.208.431.431,0,0,0,.109-.016l.96-.288a.315.315,0,0,0,.206-.155.275.275,0,0,0-.014-.229,2.606,2.606,0,0,0-2.3-1.692v-.84a.214.214,0,0,0-.239-.24h-.2a.217.217,0,0,0-.24.24v.828a2.5,2.5,0,0,0-2.592,2.4,2,2,0,0,0,.74,1.506,4.112,4.112,0,0,0,1.433.786l.419.156v1.957a1.472,1.472,0,0,1-1.3-.877A.336.336,0,0,0,9.272,9.864Zm2.285,1.088h0V9.272l.072.036c.5.2.744.463.744.816,0,.424-.289.718-.815.828Zm-.684-3.684h0L10.8,7.232c-.592-.242-.671-.53-.671-.78,0-.394.271-.673.743-.768V7.268Z" transform="translate(22.849)" fill="#c6c6c6"/>
  <circle id="Elipse_181" data-name="Elipse 181" cx="6.305" cy="6.305" r="6.305" transform="translate(9.602 12.089)" fill="#c6c6c6"/>
  <path id="Trazado_584" data-name="Trazado 584" d="M29.4,63.258a7.333,7.333,0,0,0-7.23-5.958H14.7a7.418,7.418,0,0,0-7.4,7.4v2.372H3.194a.668.668,0,0,0-.694.694v1.5a.668.668,0,0,0,.694.694H24.885A10.188,10.188,0,0,1,29.4,63.258Z" transform="translate(-2.5 -30.462)" fill="#c6c6c6"/>
  <path id="Trazado_585" data-name="Trazado 585" d="M87,74.1a11.439,11.439,0,0,1,1.041,2.892h4.338a.668.668,0,0,0,.694-.694v-1.5a.668.668,0,0,0-.694-.694H87Z" transform="translate(-38.124 -37.544)" fill="#c6c6c6"/>
  <path id="Trazado_586" data-name="Trazado 586" d="M60.607,69.7H53.2a7.418,7.418,0,0,0-7.4,7.4v3.123a.668.668,0,0,0,.694.694H67.317a.668.668,0,0,0,.694-.694V77.1A7.381,7.381,0,0,0,60.607,69.7Z" transform="translate(-20.754 -35.689)" fill="#c6c6c6"/>
  <circle id="Elipse_182" data-name="Elipse 182" cx="6.305" cy="6.305" r="6.305" transform="translate(29.846 19.261)" fill="#c6c6c6"/>
</svg>
