<svg xmlns="http://www.w3.org/2000/svg" width="25.845" height="21.904" viewBox="0 0 25.845 21.904">
  <path id="Sustracción_4" data-name="Sustracción 4" d="M-6910.853-17239.7a1.1,1.1,0,0,1-.983-.635,1.074,1.074,0,0,1,.163-1.164,10.012,10.012,0,0,0,1.967-3.285,10.8,10.8,0,0,1-3.526-3.209,7.342,7.342,0,0,1-1.317-4.164c0-5.209,5.811-9.447,12.953-9.447a15.479,15.479,0,0,1,9.122,2.766,8.343,8.343,0,0,1,3.771,6.682,8.345,8.345,0,0,1-3.771,6.686,15.46,15.46,0,0,1-9.122,2.768c-.752,0-1.527-.078-2.093-.135a65.228,65.228,0,0,1-6.806,3.08A1.138,1.138,0,0,1-6910.853-17239.7Zm6.356-10.707a.5.5,0,0,0-.084.01l-1.057.26a.348.348,0,0,0-.233.154.3.3,0,0,0-.014.248,3.146,3.146,0,0,0,3.124,2.162v.84a.23.23,0,0,0,.26.26h.221a.23.23,0,0,0,.26-.26v-.857c1.78-.152,2.885-1.152,2.885-2.613-.028-1.2-.815-2.043-2.4-2.572l-.481-.17v-1.961a1.109,1.109,0,0,1,.832.7.317.317,0,0,0,.295.225.44.44,0,0,0,.121-.018l1.04-.311a.339.339,0,0,0,.222-.166.3.3,0,0,0-.015-.25,2.828,2.828,0,0,0-2.5-1.832v-.91a.232.232,0,0,0-.26-.26h-.221a.232.232,0,0,0-.26.26v.9a2.712,2.712,0,0,0-2.812,2.6,2.169,2.169,0,0,0,.8,1.631,4.507,4.507,0,0,0,1.554.852l.455.168v2.123a1.605,1.605,0,0,1-1.4-.953A.364.364,0,0,0-6904.5-17250.4Zm2.476,1.18v-1.82l.078.039c.542.211.806.5.806.883,0,.459-.313.777-.883.9Zm-.741-3.99v0l-.077-.037c-.641-.262-.728-.574-.728-.846,0-.426.293-.729.806-.832v1.717Z" transform="translate(6914.549 17261.6)" fill="#fff"/>
</svg>
