<svg xmlns="http://www.w3.org/2000/svg" width="24.362" height="24.362" viewBox="0 0 24.362 24.362">
  <g id="Grupo_276" data-name="Grupo 276" transform="translate(-472.588 -277.191)">
    <g id="Trazado_229" data-name="Trazado 229">
      <path id="Trazado_235" data-name="Trazado 235" d="M489.336,287.849h-3.045V284.8a1.523,1.523,0,0,0-3.045-.078v3.123H480.2a1.523,1.523,0,0,0-.078,3.045h3.123v3.045a1.523,1.523,0,1,0,3.045.078q0-.039,0-.078v-3.045h3.045a1.523,1.523,0,1,0,.078-3.045Q489.375,287.847,489.336,287.849Z" fill="#9a9a9a"/>
    </g>
    <g id="Trazado_230" data-name="Trazado 230">
      <path id="Trazado_236" data-name="Trazado 236" d="M484.769,277.191a12.181,12.181,0,1,0,12.181,12.181,12.181,12.181,0,0,0-12.181-12.181Zm0,21.317a9.136,9.136,0,1,1,9.136-9.136h0A9.136,9.136,0,0,1,484.769,298.508Z" fill="#9a9a9a"/>
    </g>
  </g>
</svg>
