<svg xmlns="http://www.w3.org/2000/svg" width="39" height="30.95" viewBox="0 0 39 30.95">
  <g id="Grupo_275" data-name="Grupo 275" transform="translate(-1852 105.166)">
    <g id="Grupo_274" data-name="Grupo 274" transform="translate(1852 -105.166)">
      <path id="Trazado_45" data-name="Trazado 45" d="M451.844,344.394l-33.56,2.552a2.716,2.716,0,0,0-2.719,2.7V368.28a2.716,2.716,0,0,0,2.719,2.7l7.843.6,3.843-7.369h0a7.491,7.491,0,0,1-2.509-5.6,7.6,7.6,0,1,1,7.6,7.538,7.709,7.709,0,0,1-1.929-.244l-2.879,5.985-1.565,3.027c-.114.257.04.561.434.371l5.542-3.062,17.177,1.305a2.716,2.716,0,0,0,2.72-2.7V347.09A2.716,2.716,0,0,0,451.844,344.394Z" transform="translate(-415.564 -344.394)" fill="#fff"/>
      <circle id="Elipse_12" data-name="Elipse 12" cx="4.146" cy="4.146" r="4.146" transform="translate(13.59 14.22) rotate(-45)" fill="#fff"/>
    </g>
  </g>
</svg>
