<svg xmlns="http://www.w3.org/2000/svg" width="25.465" height="22.467" viewBox="0 0 25.465 22.467">
  <g id="Grupo_277" data-name="Grupo 277" transform="translate(-501.828 -278.533)">
    <path id="Trazado_237" data-name="Trazado 237" d="M514.56,281.533c5.367,0,9.733,3.422,9.733,7.628a6.431,6.431,0,0,1-1.3,3.813,8.9,8.9,0,0,1-3.3,2.673,2.607,2.607,0,0,0,.968.922.665.665,0,0,1-.12,1.194,4.529,4.529,0,0,1-1.477.237,4.338,4.338,0,0,1-3.158-1.285,12.3,12.3,0,0,1-1.349.075c-5.366,0-9.732-3.422-9.732-7.629s4.366-7.628,9.732-7.628m0-3c-7.021,0-12.732,4.768-12.732,10.628s5.711,10.629,12.732,10.629c.127,0,.255,0,.383-.005A7.442,7.442,0,0,0,519.067,301a7.535,7.535,0,0,0,2.495-.415,3.647,3.647,0,0,0,2.345-4.178,10.887,10.887,0,0,0,1.508-1.658,9.413,9.413,0,0,0,1.878-5.588c0-5.86-5.712-10.628-12.733-10.628Z" fill="#9a9a9a"/>
  </g>
</svg>
