<svg xmlns="http://www.w3.org/2000/svg" width="24.796" height="23.978" viewBox="0 0 24.796 23.978">
  <g id="Icon_feather-search" data-name="Icon feather-search" transform="translate(-532.046 -277.147)">
    <g id="Trazado_233" data-name="Trazado 233">
      <path id="Trazado_238" data-name="Trazado 238" d="M543.05,299.165a11.009,11.009,0,1,1,11.007-11.388h0a11.009,11.009,0,0,1-10.623,11.381C543.306,299.162,543.177,299.165,543.05,299.165Zm.012-19.019c-.094,0-.188,0-.283.005a8.01,8.01,0,1,0,8.28,7.729h0a8.01,8.01,0,0,0-8-7.734Z" fill="#fff"/>
    </g>
    <g id="Trazado_234" data-name="Trazado 234">
      <path id="Trazado_239" data-name="Trazado 239" d="M555.342,301.125a1.494,1.494,0,0,1-1.023-.4l-5.345-4.989a1.5,1.5,0,0,1,2.047-2.193l5.345,4.989a1.5,1.5,0,0,1-1.024,2.6Z" fill="#fff"/>
    </g>
  </g>
</svg>
