<svg width="407" height="100" viewBox="0 0 407 100" fill="none" xmlns="http://www.w3.org/2000/svg">
<path d="M73.9996 44.8894H85.5996C86.3996 44.8894 87.0996 45.1894 87.6996 45.7894C88.2996 46.3894 88.5996 47.0894 88.5996 47.8894C88.5996 48.6894 88.2996 49.3894 87.6996 49.9894C87.0996 50.5894 86.3996 50.8894 85.5996 50.8894H73.9996V58.0894C73.9996 58.8894 74.2996 59.5894 74.8996 60.1894C75.4996 60.7894 76.1996 61.0894 76.9996 61.0894H85.6996C86.4996 61.0894 87.1996 61.3894 87.7996 61.9894C88.3996 62.5894 88.6996 63.2894 88.6996 64.0894C88.6996 64.8894 88.3996 65.5894 87.7996 66.1894C87.1996 66.7894 86.4996 67.0894 85.6996 67.0894H76.9996C74.4996 67.0894 72.3996 66.1894 70.6996 64.4894C68.9996 62.7894 68.0996 60.6894 68.0996 58.1894V37.6894C68.0996 35.1894 68.9996 33.0894 70.6996 31.3894C72.3996 29.6894 74.4996 28.7894 76.9996 28.7894H85.6996C86.4996 28.7894 87.1996 29.0894 87.7996 29.6894C88.3996 30.2894 88.6996 30.8894 88.6996 31.7894C88.6996 32.5894 88.3996 33.2894 87.7996 33.8894C87.1996 34.4894 86.4996 34.7894 85.6996 34.7894H76.9996C76.1996 34.7894 75.4996 35.0894 74.8996 35.6894C74.2996 36.2894 73.9996 36.9894 73.9996 37.7894V44.8894Z" fill="white"/>
<path d="M116.4 42.9894C119.2 45.7894 120.5 49.0894 120.5 52.8894V63.9894C120.5 64.7894 120.2 65.4894 119.6 66.0894C119 66.6894 118.3 66.9894 117.5 66.9894H117.4C116.6 66.9894 115.9 66.6894 115.3 66.0894C114.7 65.4894 114.4 64.8894 114.4 63.9894C112.5 65.9894 109.9 66.9894 106.3 66.9894C102.4 66.9894 99.0998 65.5894 96.3998 62.8894C93.5998 60.0894 92.2998 56.7894 92.2998 52.9894C92.2998 49.0894 93.6998 45.7894 96.3998 43.0894C99.1998 40.2894 102.5 38.9894 106.3 38.9894C110.4 38.7894 113.7 40.1894 116.4 42.9894ZM100.8 47.1894C99.1998 48.7894 98.4998 50.6894 98.4998 52.8894C98.4998 55.0894 99.2998 57.0894 100.8 58.5894C102.4 60.1894 104.3 60.8894 106.5 60.8894C108.7 60.8894 110.7 60.0894 112.2 58.5894C113.8 56.9894 114.6 55.0894 114.6 52.8894C114.6 50.6894 113.8 48.7894 112.2 47.1894C110.6 45.5894 108.7 44.7894 106.5 44.7894C104.2 44.7894 102.3 45.5894 100.8 47.1894Z" fill="white"/>
<path d="M132.999 44.7894C132.299 44.7894 131.699 44.9894 131.199 45.4894C130.699 45.9894 130.499 46.5894 130.499 47.2894C130.499 48.2894 130.999 48.9894 131.899 49.4894C132.199 49.6894 133.599 50.0894 135.999 50.6894C137.899 51.2894 139.399 51.9894 140.299 52.8894C141.699 54.1894 142.299 55.9894 142.299 58.3894C142.299 60.6894 141.499 62.7894 139.799 64.3894C138.099 66.0894 136.099 66.8894 133.799 66.8894H127.399C126.599 66.8894 125.899 66.5894 125.299 65.9894C124.699 65.3894 124.399 64.7894 124.399 63.8894C124.399 63.0894 124.699 62.3894 125.299 61.7894C125.899 61.1894 126.599 60.8894 127.399 60.8894H133.999C134.699 60.8894 135.299 60.6894 135.799 60.1894C136.299 59.6894 136.499 59.0894 136.499 58.3894C136.499 57.4894 135.999 56.7894 135.099 56.3894C134.899 56.2894 133.499 55.8894 130.999 55.1894C129.099 54.5894 127.599 53.8894 126.699 52.9894C125.299 51.6894 124.699 49.7894 124.699 47.3894C124.699 45.0894 125.499 43.0894 127.199 41.3894C128.899 39.6894 130.899 38.8894 133.199 38.8894H137.699C138.499 38.8894 139.199 39.1894 139.799 39.7894C140.399 40.3894 140.699 41.0894 140.699 41.8894C140.699 42.6894 140.399 43.3894 139.799 43.9894C139.199 44.5894 138.499 44.8894 137.699 44.8894H132.999V44.7894Z" fill="white"/>
<path d="M152.199 54.5894C152.199 56.1894 152.799 57.5894 153.899 58.6894C154.999 59.7894 156.399 60.3894 158.099 60.3894C159.699 60.3894 161.099 59.7894 162.199 58.6894C163.299 57.5894 163.899 56.1894 163.899 54.5894V41.7894C163.899 40.9894 164.199 40.2894 164.799 39.6894C165.399 39.0894 166.099 38.7894 166.899 38.7894C167.699 38.7894 168.399 39.0894 168.999 39.6894C169.599 40.2894 169.899 40.9894 169.899 41.7894V65.1894C169.899 68.3894 168.699 71.1894 166.299 73.4894C163.899 75.7894 161.199 76.9894 158.099 76.9894C155.699 76.9894 153.399 76.3894 151.399 75.1894C149.399 73.9894 147.999 72.4894 146.999 70.4894C146.799 70.0894 146.699 69.5894 146.699 69.1894C146.699 68.7894 146.799 68.3894 146.899 68.0894C147.199 67.2894 147.799 66.6894 148.599 66.3894H148.699C149.099 66.2894 149.399 66.1894 149.699 66.1894C150.099 66.1894 150.399 66.2894 150.699 66.3894C151.399 66.6894 151.899 67.0894 152.199 67.7894C152.699 68.7894 153.499 69.5894 154.499 70.1894C155.599 70.7894 156.699 71.0894 157.899 71.0894C159.399 71.0894 160.799 70.4894 161.999 69.3894C163.199 68.1894 163.799 66.8894 163.799 65.2894V65.0894C162.499 66.0894 160.599 66.4894 157.999 66.4894C154.699 66.4894 151.999 65.2894 149.699 62.9894C147.399 60.6894 146.199 57.8894 146.199 54.6894V41.7894C146.199 40.9894 146.499 40.2894 147.099 39.6894C147.699 39.0894 148.399 38.7894 149.199 38.7894H149.299C150.099 38.7894 150.799 39.0894 151.399 39.6894C151.999 40.2894 152.299 40.9894 152.299 41.7894V54.5894H152.199Z" fill="white"/>
<path d="M180.9 44.8894H191.1C191.9 44.8894 192.6 45.1894 193.2 45.7894C193.8 46.3894 194.1 47.0894 194.1 47.8894C194.1 48.6894 193.8 49.3894 193.2 49.9894C192.6 50.5894 191.9 50.8894 191.1 50.8894H180.9V63.9894C180.9 64.7894 180.6 65.4894 180 66.0894C179.4 66.6894 178.7 66.9894 177.9 66.9894H177.8C177 66.9894 176.3 66.6894 175.7 66.0894C175.1 65.4894 174.8 64.8894 174.8 63.9894V37.6894C174.8 35.1894 175.7 33.0894 177.4 31.3894C179.1 29.6894 181.2 28.7894 183.7 28.7894H191.2C192 28.7894 192.7 29.0894 193.3 29.6894C193.9 30.2894 194.2 30.9894 194.2 31.7894C194.2 32.5894 193.9 33.2894 193.3 33.8894C192.7 34.4894 192 34.7894 191.2 34.7894H183.7C182.9 34.7894 182.2 35.0894 181.6 35.6894C181 36.2894 180.7 36.9894 180.7 37.7894V44.8894H180.9Z" fill="white"/>
<path d="M209.6 38.7894C210.4 38.7894 211.1 39.0894 211.7 39.6894C212.3 40.2894 212.6 40.9894 212.6 41.7894C212.6 42.5894 212.3 43.2894 211.7 43.8894C211.1 44.4894 210.4 44.7894 209.6 44.7894H208.2C206.9 44.7894 205.7 45.2894 204.8 46.1894C203.9 47.0894 203.4 48.2894 203.4 49.5894V63.9894C203.4 64.7894 203.1 65.4894 202.5 66.0894C201.9 66.6894 201.2 66.9894 200.4 66.9894H200.3C199.5 66.9894 198.8 66.6894 198.2 66.0894C197.6 65.4894 197.3 64.8894 197.3 63.9894V49.5894C197.3 46.5894 198.4 44.0894 200.4 41.9894C202.5 39.8894 205 38.8894 208 38.8894H209.6V38.7894Z" fill="white"/>
<path d="M241.4 46.9894C241.6 47.3894 241.7 47.7894 241.7 48.1894C241.7 48.4894 241.6 48.8894 241.5 49.1894C241.2 49.9894 240.7 50.4894 239.9 50.8894C237.6 51.8894 234.6 53.2894 230.9 54.9894C226.3 57.0894 223.6 58.2894 222.8 58.6894C224 60.2894 226 60.9894 228.6 60.9894C230.3 60.9894 231.9 60.4894 233.3 59.4894C234.7 58.4894 235.7 57.1894 236.2 55.5894C236.7 54.2894 237.6 53.5894 239 53.5894C240 53.5894 240.8 53.9894 241.4 54.8894C241.8 55.3894 242 55.9894 242 56.4894C242 56.7894 241.9 57.1894 241.8 57.4894C240.8 60.2894 239.2 62.4894 236.7 64.1894C234.3 65.9894 231.5 66.8894 228.5 66.8894C224.6 66.8894 221.3 65.4894 218.6 62.7894C215.8 59.9894 214.5 56.6894 214.5 52.8894C214.5 48.9894 215.9 45.6894 218.6 42.9894C221.4 40.1894 224.7 38.8894 228.5 38.8894C231.3 38.8894 233.9 39.6894 236.2 41.1894C238.6 42.5894 240.3 44.5894 241.4 46.9894ZM228.6 44.8894C226.4 44.8894 224.4 45.6894 222.9 47.2894C221.3 48.8894 220.6 50.7894 220.6 52.9894V53.0894L234.2 46.9894C233 45.5894 231.1 44.8894 228.6 44.8894Z" fill="white"/>
<path d="M272.599 46.9894C272.799 47.3894 272.899 47.7894 272.899 48.1894C272.899 48.4894 272.799 48.8894 272.699 49.1894C272.399 49.9894 271.899 50.4894 271.099 50.8894C268.799 51.8894 265.799 53.2894 262.099 54.9894C257.499 57.0894 254.799 58.2894 253.999 58.6894C255.199 60.2894 257.199 60.9894 259.799 60.9894C261.499 60.9894 263.099 60.4894 264.499 59.4894C265.899 58.4894 266.899 57.1894 267.399 55.5894C267.899 54.2894 268.799 53.5894 270.199 53.5894C271.199 53.5894 271.999 53.9894 272.599 54.8894C272.999 55.3894 273.199 55.9894 273.199 56.4894C273.199 56.7894 273.099 57.1894 272.999 57.4894C271.999 60.2894 270.399 62.4894 267.899 64.1894C265.499 65.9894 262.699 66.8894 259.699 66.8894C255.799 66.8894 252.499 65.4894 249.799 62.7894C246.999 59.9894 245.699 56.6894 245.699 52.8894C245.699 48.9894 247.099 45.6894 249.799 42.9894C252.599 40.1894 255.899 38.8894 259.699 38.8894C262.499 38.8894 265.099 39.6894 267.399 41.1894C269.699 42.5894 271.399 44.5894 272.599 46.9894ZM259.799 44.8894C257.599 44.8894 255.599 45.6894 254.099 47.2894C252.499 48.8894 251.799 50.7894 251.799 52.9894V53.0894L265.399 46.9894C264.099 45.5894 262.299 44.8894 259.799 44.8894Z" fill="white"/>
<path d="M281.6 28.7894C282.4 28.7894 283.1 29.0894 283.7 29.6894C284.3 30.2894 284.6 30.9894 284.6 31.7894V63.9894C284.6 64.7894 284.3 65.4894 283.7 66.0894C283.1 66.6894 282.4 66.9894 281.6 66.9894H281.5C280.7 66.9894 280 66.6894 279.4 66.0894C278.8 65.4894 278.5 64.8894 278.5 63.9894V31.7894C278.5 30.9894 278.8 30.2894 279.4 29.6894C280.1 29.0894 280.8 28.7894 281.6 28.7894Z" fill="white"/>
<path d="M314.4 42.9894C317.2 45.7894 318.5 49.0894 318.5 52.8894V63.9894C318.5 64.7894 318.2 65.4894 317.6 66.0894C317 66.6894 316.3 66.9894 315.5 66.9894H315.4C314.6 66.9894 313.9 66.6894 313.3 66.0894C312.7 65.4894 312.4 64.8894 312.4 63.9894C310.5 65.9894 307.9 66.9894 304.3 66.9894C300.4 66.9894 297.1 65.5894 294.4 62.8894C291.6 60.0894 290.3 56.7894 290.3 52.9894C290.3 49.0894 291.7 45.7894 294.4 43.0894C297.2 40.2894 300.5 38.9894 304.3 38.9894C308.4 38.7894 311.7 40.1894 314.4 42.9894ZM298.8 47.1894C297.2 48.7894 296.5 50.6894 296.5 52.8894C296.5 55.0894 297.3 57.0894 298.8 58.5894C300.4 60.1894 302.3 60.8894 304.5 60.8894C306.7 60.8894 308.7 60.0894 310.2 58.5894C311.8 56.9894 312.6 55.0894 312.6 52.8894C312.6 50.6894 311.8 48.7894 310.2 47.1894C308.6 45.5894 306.7 44.7894 304.5 44.7894C302.3 44.7894 300.4 45.5894 298.8 47.1894Z" fill="white"/>
<path d="M329.4 63.9894C329.4 64.7894 329.1 65.4894 328.5 66.0894C327.9 66.6894 327.2 66.9894 326.4 66.9894H326.3C325.5 66.9894 324.8 66.6894 324.2 66.0894C323.6 65.4894 323.3 64.8894 323.3 63.9894V50.5894C323.3 47.2894 324.5 44.5894 326.8 42.1894C329.1 39.8894 331.9 38.6894 335.1 38.6894C338.3 38.6894 341.1 39.8894 343.4 42.1894C345.7 44.4894 346.9 47.2894 346.9 50.5894V63.9894C346.9 64.7894 346.6 65.4894 346 66.0894C345.4 66.6894 344.8 66.9894 343.9 66.9894C343.1 66.9894 342.4 66.6894 341.8 66.0894C341.2 65.4894 340.9 64.8894 340.9 63.9894V50.5894C340.9 48.9894 340.3 47.5894 339.2 46.4894C338.1 45.3894 336.7 44.7894 335.1 44.7894C333.5 44.7894 332.1 45.3894 330.9 46.4894C329.8 47.5894 329.2 48.9894 329.2 50.5894V63.9894H329.4Z" fill="white"/>
<path d="M369.499 39.4894C370.899 39.8894 371.599 40.8894 371.599 42.2894V42.3894C371.599 43.3894 371.199 44.1894 370.399 44.7894C369.799 45.1894 369.299 45.3894 368.699 45.3894C368.399 45.3894 368.099 45.3894 367.699 45.2894C366.899 44.9894 366.099 44.8894 365.199 44.8894C362.999 44.8894 360.999 45.6894 359.499 47.2894C357.899 48.8894 357.199 50.7894 357.199 52.9894C357.199 55.1894 357.999 57.0894 359.499 58.6894C361.099 60.2894 362.999 61.0894 365.199 61.0894C365.999 61.0894 366.899 60.9894 367.699 60.6894C367.999 60.5894 368.299 60.5894 368.599 60.5894C369.199 60.5894 369.799 60.7894 370.299 61.1894C371.099 61.7894 371.499 62.5894 371.499 63.5894C371.499 64.9894 370.799 65.9894 369.399 66.3894C367.999 66.7894 366.599 66.9894 365.199 66.9894C361.299 66.9894 357.999 65.5894 355.299 62.8894C352.499 60.0894 351.199 56.7894 351.199 52.9894C351.199 49.0894 352.599 45.7894 355.299 43.0894C358.099 40.2894 361.399 38.9894 365.199 38.9894C366.699 38.7894 368.199 38.9894 369.499 39.4894Z" fill="white"/>
<path d="M401.9 46.9894C402.1 47.3894 402.2 47.7894 402.2 48.1894C402.2 48.4894 402.1 48.8894 402 49.1894C401.7 49.9894 401.2 50.4894 400.4 50.8894C398.1 51.8894 395.1 53.2894 391.4 54.9894C386.8 57.0894 384.1 58.2894 383.3 58.6894C384.5 60.2894 386.5 60.9894 389.1 60.9894C390.8 60.9894 392.4 60.4894 393.8 59.4894C395.2 58.4894 396.2 57.1894 396.7 55.5894C397.2 54.2894 398.1 53.5894 399.5 53.5894C400.5 53.5894 401.3 53.9894 401.9 54.8894C402.3 55.3894 402.5 55.9894 402.5 56.4894C402.5 56.7894 402.4 57.1894 402.3 57.4894C401.3 60.2894 399.7 62.4894 397.2 64.1894C394.8 65.9894 392 66.8894 389 66.8894C385.1 66.8894 381.8 65.4894 379.1 62.7894C376.3 59.9894 375 56.6894 375 52.8894C375 48.9894 376.4 45.6894 379.1 42.9894C381.9 40.1894 385.2 38.8894 389 38.8894C391.8 38.8894 394.4 39.6894 396.7 41.1894C399 42.5894 400.7 44.5894 401.9 46.9894ZM389.1 44.8894C386.9 44.8894 384.9 45.6894 383.4 47.2894C381.8 48.8894 381.1 50.7894 381.1 52.9894V53.0894L394.7 46.9894C393.4 45.5894 391.6 44.8894 389.1 44.8894Z" fill="white"/>
<path d="M1.40039 24.9894L27.4004 10.6894L51.1004 8.48942L53.0004 33.1894L1.40039 24.9894Z" fill="#689DAE"/>
<path d="M51.1 8.48942L69 2.78942V23.1894L33 60.6894L53 33.1894L51.1 8.48942Z" fill="#689DAE"/>
<path d="M36.8 30.5894L53 33.1894L33 60.6894L36.8 30.5894Z" fill="#97CBD9"/>
<path d="M68.9996 2.78942V23.1894L51.7996 9.08942L51.0996 8.48942L68.9996 2.78942Z" fill="#97CBD9"/>
<path d="M51.1 96.6894L33 60.6894L53 39.7894L51.1 96.6894Z" fill="#387185"/>
<path d="M85.9 18.3894L69 14.8894V2.78942L85.9 18.3894Z" fill="#689DAE"/>
<path d="M27.4004 10.6894L53.0004 33.1894L51.1004 8.48942L27.4004 10.6894Z" fill="#97CBD9"/>
<path d="M69 2.78942V14.8894L71.8 15.4894L69 2.78942Z" fill="#387185"/>
<path d="M2.90039 8.48942L18.7004 15.4894L27.4004 10.6894L51.1004 8.48942L23.9004 1.38942L2.90039 8.48942Z" fill="#689DAE"/>
<path d="M51.1 8.48942L25.2 7.58942L16 14.2894L18.7 15.4894L27.4 10.6894L51.1 8.48942Z" fill="#387185"/>
</svg>
