<?xml version="1.0" encoding="utf-8"?>
<!-- Generator: Adobe Illustrator 22.1.0, SVG Export Plug-In . SVG Version: 6.00 Build 0)  -->
<svg version="1.1" id="Lager_1" xmlns="http://www.w3.org/2000/svg" xmlns:xlink="http://www.w3.org/1999/xlink" x="0px" y="0px"
	 viewBox="0 0 407 99" style="enable-background:new 0 0 407 99;" xml:space="preserve">
<style type="text/css">
	.st0{fill:none;}
	.st1{fill:#282828;}
	.st2{fill:#689DAE;}
	.st3{fill:#97CBD9;}
	.st4{fill:#387185;}
</style>
<g>
	<rect x="65.4" y="28.7" class="st0" width="340.6" height="55.3"/>
	<path class="st1" d="M74,44.8h11.6c0.8,0,1.5,0.3,2.1,0.9c0.6,0.6,0.9,1.3,0.9,2.1v0c0,0.8-0.3,1.5-0.9,2.1
		c-0.6,0.6-1.3,0.9-2.1,0.9H74v7.2c0,0.8,0.3,1.5,0.9,2.1c0.6,0.6,1.3,0.9,2.1,0.9h8.7c0.8,0,1.5,0.3,2.1,0.9s0.9,1.3,0.9,2.1v0
		c0,0.8-0.3,1.5-0.9,2.1c-0.6,0.6-1.3,0.9-2.1,0.9H77c-2.5,0-4.6-0.9-6.3-2.6c-1.7-1.7-2.6-3.8-2.6-6.3V37.6c0-2.5,0.9-4.6,2.6-6.3
		c1.7-1.7,3.8-2.6,6.3-2.6h8.7c0.8,0,1.5,0.3,2.1,0.9c0.6,0.6,0.9,1.2,0.9,2.1v0c0,0.8-0.3,1.5-0.9,2.1s-1.3,0.9-2.1,0.9H77
		c-0.8,0-1.5,0.3-2.1,0.9c-0.6,0.6-0.9,1.3-0.9,2.1V44.8z"/>
	<path class="st1" d="M116.4,42.9c2.8,2.8,4.1,6.1,4.1,9.9v11.1c0,0.8-0.3,1.5-0.9,2.1c-0.6,0.6-1.3,0.9-2.1,0.9h-0.1
		c-0.8,0-1.5-0.3-2.1-0.9c-0.6-0.6-0.9-1.2-0.9-2.1c-1.9,2-4.5,3-8.1,3c-3.9,0-7.2-1.4-9.9-4.1c-2.8-2.8-4.1-6.1-4.1-9.9
		c0-3.9,1.4-7.2,4.1-9.9c2.8-2.8,6.1-4.1,9.9-4.1C110.4,38.7,113.7,40.1,116.4,42.9z M100.8,47.1c-1.6,1.6-2.3,3.5-2.3,5.7
		c0,2.2,0.8,4.2,2.3,5.7c1.6,1.6,3.5,2.3,5.7,2.3s4.2-0.8,5.7-2.3c1.6-1.6,2.4-3.5,2.4-5.7c0-2.2-0.8-4.1-2.4-5.7
		c-1.6-1.6-3.5-2.4-5.7-2.4C104.2,44.7,102.3,45.5,100.8,47.1z"/>
	<path class="st1" d="M133,44.7c-0.7,0-1.3,0.2-1.8,0.7c-0.5,0.5-0.7,1.1-0.7,1.8c0,1,0.5,1.7,1.4,2.2c0.3,0.2,1.7,0.6,4.1,1.2
		c1.9,0.6,3.4,1.3,4.3,2.2c1.4,1.3,2,3.1,2,5.5c0,2.3-0.8,4.4-2.5,6c-1.7,1.7-3.7,2.5-6,2.5h-6.4c-0.8,0-1.5-0.3-2.1-0.9
		c-0.6-0.6-0.9-1.2-0.9-2.1v0c0-0.8,0.3-1.5,0.9-2.1s1.3-0.9,2.1-0.9h6.6c0.7,0,1.3-0.2,1.8-0.7s0.7-1.1,0.7-1.8
		c0-0.9-0.5-1.6-1.4-2c-0.2-0.1-1.6-0.5-4.1-1.2c-1.9-0.6-3.4-1.3-4.3-2.2c-1.4-1.3-2-3.2-2-5.6c0-2.3,0.8-4.3,2.5-6
		c1.7-1.7,3.7-2.5,6-2.5h4.5c0.8,0,1.5,0.3,2.1,0.9s0.9,1.3,0.9,2.1v0c0,0.8-0.3,1.5-0.9,2.1c-0.6,0.6-1.3,0.9-2.1,0.9H133z"/>
	<path class="st1" d="M152.2,54.5c0,1.6,0.6,3,1.7,4.1c1.1,1.1,2.5,1.7,4.2,1.7c1.6,0,3-0.6,4.1-1.7c1.1-1.1,1.7-2.5,1.7-4.1V41.7
		c0-0.8,0.3-1.5,0.9-2.1s1.3-0.9,2.1-0.9h0c0.8,0,1.5,0.3,2.1,0.9c0.6,0.6,0.9,1.3,0.9,2.1v23.4c0,3.2-1.2,6-3.6,8.3
		c-2.4,2.3-5.1,3.5-8.2,3.5c-2.4,0-4.7-0.6-6.7-1.8c-2-1.2-3.4-2.7-4.4-4.7c-0.2-0.4-0.3-0.9-0.3-1.3c0-0.4,0.1-0.8,0.2-1.1
		c0.3-0.8,0.9-1.4,1.7-1.7l0.1,0c0.4-0.1,0.7-0.2,1-0.2c0.4,0,0.7,0.1,1,0.2c0.7,0.3,1.2,0.7,1.5,1.4c0.5,1,1.3,1.8,2.3,2.4
		c1.1,0.6,2.2,0.9,3.4,0.9c1.5,0,2.9-0.6,4.1-1.7c1.2-1.2,1.8-2.5,1.8-4.1v-0.2c-1.3,1-3.2,1.4-5.8,1.4c-3.3,0-6-1.2-8.3-3.5
		c-2.3-2.3-3.5-5.1-3.5-8.3V41.7c0-0.8,0.3-1.5,0.9-2.1s1.3-0.9,2.1-0.9h0.1c0.8,0,1.5,0.3,2.1,0.9s0.9,1.3,0.9,2.1V54.5z"/>
	<path class="st1" d="M180.9,44.8h10.2c0.8,0,1.5,0.3,2.1,0.9c0.6,0.6,0.9,1.3,0.9,2.1v0c0,0.8-0.3,1.5-0.9,2.1
		c-0.6,0.6-1.3,0.9-2.1,0.9h-10.2v13.1c0,0.8-0.3,1.5-0.9,2.1c-0.6,0.6-1.3,0.9-2.1,0.9h-0.1c-0.8,0-1.5-0.3-2.1-0.9
		c-0.6-0.6-0.9-1.2-0.9-2.1V37.6c0-2.5,0.9-4.6,2.6-6.3c1.7-1.7,3.8-2.6,6.3-2.6h7.5c0.8,0,1.5,0.3,2.1,0.9c0.6,0.6,0.9,1.3,0.9,2.1
		v0c0,0.8-0.3,1.5-0.9,2.1c-0.6,0.6-1.3,0.9-2.1,0.9h-7.5c-0.8,0-1.5,0.3-2.1,0.9c-0.6,0.6-0.9,1.3-0.9,2.1V44.8z"/>
	<path class="st1" d="M209.6,38.7c0.8,0,1.5,0.3,2.1,0.9c0.6,0.6,0.9,1.3,0.9,2.1v0c0,0.8-0.3,1.5-0.9,2.1c-0.6,0.6-1.3,0.9-2.1,0.9
		h-1.4c-1.3,0-2.5,0.5-3.4,1.4c-0.9,0.9-1.4,2.1-1.4,3.4v14.4c0,0.8-0.3,1.5-0.9,2.1c-0.6,0.6-1.3,0.9-2.1,0.9h-0.1
		c-0.8,0-1.5-0.3-2.1-0.9c-0.6-0.6-0.9-1.2-0.9-2.1V49.5c0-3,1.1-5.5,3.1-7.6c2.1-2.1,4.6-3.1,7.6-3.1H209.6z"/>
	<path class="st1" d="M241.4,46.9c0.2,0.4,0.3,0.8,0.3,1.2c0,0.3-0.1,0.7-0.2,1c-0.3,0.8-0.8,1.3-1.6,1.7c-2.3,1-5.3,2.4-9,4.1
		c-4.6,2.1-7.3,3.3-8.1,3.7c1.2,1.6,3.2,2.3,5.8,2.3c1.7,0,3.3-0.5,4.7-1.5c1.4-1,2.4-2.3,2.9-3.9c0.5-1.3,1.4-2,2.8-2
		c1,0,1.8,0.4,2.4,1.3c0.4,0.5,0.6,1.1,0.6,1.6c0,0.3-0.1,0.7-0.2,1c-1,2.8-2.6,5-5.1,6.7c-2.4,1.8-5.2,2.7-8.2,2.7
		c-3.9,0-7.2-1.4-9.9-4.1c-2.8-2.8-4.1-6.1-4.1-9.9c0-3.9,1.4-7.2,4.1-9.9c2.8-2.8,6.1-4.1,9.9-4.1c2.8,0,5.4,0.8,7.7,2.3
		C238.6,42.5,240.3,44.5,241.4,46.9z M228.6,44.8c-2.2,0-4.2,0.8-5.7,2.4c-1.6,1.6-2.3,3.5-2.3,5.7V53l13.6-6.1
		C233,45.5,231.1,44.8,228.6,44.8z"/>
	<path class="st1" d="M272.6,46.9c0.2,0.4,0.3,0.8,0.3,1.2c0,0.3-0.1,0.7-0.2,1c-0.3,0.8-0.8,1.3-1.6,1.7c-2.3,1-5.3,2.4-9,4.1
		c-4.6,2.1-7.3,3.3-8.1,3.7c1.2,1.6,3.2,2.3,5.8,2.3c1.7,0,3.3-0.5,4.7-1.5c1.4-1,2.4-2.3,2.9-3.9c0.5-1.3,1.4-2,2.8-2
		c1,0,1.8,0.4,2.4,1.3c0.4,0.5,0.6,1.1,0.6,1.6c0,0.3-0.1,0.7-0.2,1c-1,2.8-2.6,5-5.1,6.7c-2.4,1.8-5.2,2.7-8.2,2.7
		c-3.9,0-7.2-1.4-9.9-4.1c-2.8-2.8-4.1-6.1-4.1-9.9c0-3.9,1.4-7.2,4.1-9.9c2.8-2.8,6.1-4.1,9.9-4.1c2.8,0,5.4,0.8,7.7,2.3
		C269.7,42.5,271.4,44.5,272.6,46.9z M259.8,44.8c-2.2,0-4.2,0.8-5.7,2.4c-1.6,1.6-2.3,3.5-2.3,5.7V53l13.6-6.1
		C264.1,45.5,262.3,44.8,259.8,44.8z"/>
	<path class="st1" d="M281.6,28.7c0.8,0,1.5,0.3,2.1,0.9c0.6,0.6,0.9,1.3,0.9,2.1v32.2c0,0.8-0.3,1.5-0.9,2.1
		c-0.6,0.6-1.3,0.9-2.1,0.9h-0.1c-0.8,0-1.5-0.3-2.1-0.9c-0.6-0.6-0.9-1.2-0.9-2.1V31.7c0-0.8,0.3-1.5,0.9-2.1
		C280.1,29,280.8,28.7,281.6,28.7L281.6,28.7z"/>
	<path class="st1" d="M314.4,42.9c2.8,2.8,4.1,6.1,4.1,9.9v11.1c0,0.8-0.3,1.5-0.9,2.1c-0.6,0.6-1.3,0.9-2.1,0.9h-0.1
		c-0.8,0-1.5-0.3-2.1-0.9c-0.6-0.6-0.9-1.2-0.9-2.1c-1.9,2-4.5,3-8.1,3c-3.9,0-7.2-1.4-9.9-4.1c-2.8-2.8-4.1-6.1-4.1-9.9
		c0-3.9,1.4-7.2,4.1-9.9c2.8-2.8,6.1-4.1,9.9-4.1C308.4,38.7,311.7,40.1,314.4,42.9z M298.8,47.1c-1.6,1.6-2.3,3.5-2.3,5.7
		c0,2.2,0.8,4.2,2.3,5.7c1.6,1.6,3.5,2.3,5.7,2.3s4.2-0.8,5.7-2.3c1.6-1.6,2.4-3.5,2.4-5.7c0-2.2-0.8-4.1-2.4-5.7
		c-1.6-1.6-3.5-2.4-5.7-2.4C302.3,44.7,300.4,45.5,298.8,47.1z"/>
	<path class="st1" d="M329.4,63.9c0,0.8-0.3,1.5-0.9,2.1c-0.6,0.6-1.3,0.9-2.1,0.9h-0.1c-0.8,0-1.5-0.3-2.1-0.9
		c-0.6-0.6-0.9-1.2-0.9-2.1V50.5c0-3.3,1.2-6,3.5-8.4c2.3-2.3,5.1-3.5,8.3-3.5c3.2,0,6,1.2,8.3,3.5c2.3,2.3,3.5,5.1,3.5,8.4v13.4
		c0,0.8-0.3,1.5-0.9,2.1c-0.6,0.6-1.2,0.9-2.1,0.9h0c-0.8,0-1.5-0.3-2.1-0.9c-0.6-0.6-0.9-1.2-0.9-2.1V50.5c0-1.6-0.6-3-1.7-4.1
		c-1.1-1.1-2.5-1.7-4.1-1.7c-1.6,0-3,0.6-4.2,1.7c-1.1,1.1-1.7,2.5-1.7,4.1V63.9z"/>
	<path class="st1" d="M369.5,39.4c1.4,0.4,2.1,1.4,2.1,2.8v0.1c0,1-0.4,1.8-1.2,2.4c-0.6,0.4-1.1,0.6-1.7,0.6c-0.3,0-0.6,0-1-0.1
		c-0.8-0.3-1.6-0.4-2.5-0.4c-2.2,0-4.2,0.8-5.7,2.4c-1.6,1.6-2.3,3.5-2.3,5.7c0,2.2,0.8,4.1,2.3,5.7c1.6,1.6,3.5,2.4,5.7,2.4
		c0.8,0,1.7-0.1,2.5-0.4c0.3-0.1,0.6-0.1,0.9-0.1c0.6,0,1.2,0.2,1.7,0.6c0.8,0.6,1.2,1.4,1.2,2.4c0,1.4-0.7,2.4-2.1,2.8
		c-1.4,0.4-2.8,0.6-4.2,0.6c-3.9,0-7.2-1.4-9.9-4.1c-2.8-2.8-4.1-6.1-4.1-9.9c0-3.9,1.4-7.2,4.1-9.9c2.8-2.8,6.1-4.1,9.9-4.1
		C366.7,38.7,368.2,38.9,369.5,39.4z"/>
	<path class="st1" d="M401.9,46.9c0.2,0.4,0.3,0.8,0.3,1.2c0,0.3-0.1,0.7-0.2,1c-0.3,0.8-0.8,1.3-1.6,1.7c-2.3,1-5.3,2.4-9,4.1
		c-4.6,2.1-7.3,3.3-8.1,3.7c1.2,1.6,3.2,2.3,5.8,2.3c1.7,0,3.3-0.5,4.7-1.5c1.4-1,2.4-2.3,2.9-3.9c0.5-1.3,1.4-2,2.8-2
		c1,0,1.8,0.4,2.4,1.3c0.4,0.5,0.6,1.1,0.6,1.6c0,0.3-0.1,0.7-0.2,1c-1,2.8-2.6,5-5.1,6.7c-2.4,1.8-5.2,2.7-8.2,2.7
		c-3.9,0-7.2-1.4-9.9-4.1c-2.8-2.8-4.1-6.1-4.1-9.9c0-3.9,1.4-7.2,4.1-9.9c2.8-2.8,6.1-4.1,9.9-4.1c2.8,0,5.4,0.8,7.7,2.3
		C399,42.5,400.7,44.5,401.9,46.9z M389.1,44.8c-2.2,0-4.2,0.8-5.7,2.4c-1.6,1.6-2.3,3.5-2.3,5.7V53l13.6-6.1
		C393.4,45.5,391.6,44.8,389.1,44.8z"/>
</g>
<polyline class="st2" points="1.4,24.9 27.4,10.6 51.1,8.4 53,33.1 1.4,24.9 "/>
<polygon class="st2" points="51.1,8.4 69,2.7 69,23.1 33,60.6 53,33.1 "/>
<polygon class="st3" points="36.8,30.5 53,33.1 33,60.6 "/>
<polygon class="st3" points="69,2.7 69,23.1 51.8,9 51.1,8.4 "/>
<polyline class="st4" points="51.1,96.6 33,60.6 53,39.7 51.1,96.6 "/>
<polyline class="st2" points="85.9,18.3 69,14.8 69,2.7 85.9,18.3 "/>
<polygon class="st3" points="27.4,10.6 53,33.1 51.1,8.4 "/>
<polygon class="st4" points="69,2.7 69,14.8 71.8,15.4 "/>
<polyline class="st2" points="2.9,8.4 18.7,15.4 27.4,10.6 51.1,8.4 23.9,1.3 2.9,8.4 "/>
<polygon class="st4" points="51.1,8.4 25.2,7.5 16,14.2 18.7,15.4 27.4,10.6 "/>
<g>
</g>
<g>
</g>
<g>
</g>
<g>
</g>
<g>
</g>
<g>
</g>
<g>
</g>
<g>
</g>
<g>
</g>
<g>
</g>
<g>
</g>
<g>
</g>
<g>
</g>
<g>
</g>
<g>
</g>
</svg>
