<svg xmlns="http://www.w3.org/2000/svg" width="18.285" height="18.285" viewBox="0 0 18.285 18.285">
  <g id="Grupo_177" data-name="Grupo 177" transform="translate(-10349 -1527)">
    <path id="Trazado_166" data-name="Trazado 166" d="M17.143,8a9.143,9.143,0,1,0,9.143,9.143A9.143,9.143,0,0,0,17.143,8Zm0,16.457a7.314,7.314,0,1,1,7.314-7.314A7.314,7.314,0,0,1,17.143,24.457Z" transform="translate(10341 1519)" fill="#fff"/>
    <path id="Trazado_167" data-name="Trazado 167" d="M44.914,28a.914.914,0,0,0-.914.914v4.571a.914.914,0,0,0,1.829,0V28.914A.914.914,0,0,0,44.914,28Z" transform="translate(10313.229 1503.571)" fill="#fff"/>
    <circle id="Elipse_41" data-name="Elipse 41" cx="0.914" cy="0.914" r="0.914" transform="translate(10357.229 1538.885)" fill="#fff"/>
  </g>
</svg>
