<svg xmlns="http://www.w3.org/2000/svg" width="122.105" height="39.942" viewBox="0 0 122.105 39.942"><defs><style>.a{fill:#fff;}</style></defs><g transform="translate(0 0)"><path d="M5.979,0H116.126A5.978,5.978,0,0,1,122.1,5.978V33.964a5.978,5.978,0,0,1-5.978,5.978H5.977A5.977,5.977,0,0,1,0,33.965V5.979A5.979,5.979,0,0,1,5.979,0Z" transform="translate(0)"/><g transform="translate(8.191 6.209)"><path class="a" d="M351.845,1036.364a19.787,19.787,0,0,1-1.788,3.338c-1.162,1.769-2.8,3.97-4.826,3.989-1.8.016-2.265-1.173-4.71-1.16s-2.957,1.181-4.759,1.164c-2.028-.018-3.579-2.006-4.74-3.774-3.248-4.943-3.587-10.745-1.585-13.828a7.187,7.187,0,0,1,5.78-3.475c2.149,0,3.5,1.179,5.277,1.179,1.725,0,2.775-1.181,5.26-1.181a7.017,7.017,0,0,1,5.287,2.792A6.05,6.05,0,0,0,351.845,1036.364Z" transform="translate(-328.194 -1016.172)"/><g transform="translate(11.368)"><path class="a" d="M345.093,1019.947a6.038,6.038,0,0,0,1.34-4.468,6.515,6.515,0,0,0-4.208,2.264,5.6,5.6,0,0,0-1.375,4.358A5.505,5.505,0,0,0,345.093,1019.947Z" transform="translate(-340.785 -1015.479)"/></g></g><g transform="translate(37.083 6.268)"><g transform="translate(0 9.568)"><path class="a" d="M364.846,1026.383l-4.652,13.693h2.131l1.389-4.2h4.5l1.428,4.2h2.19l-4.672-13.693Zm1.1,2.251c.157.611.326,1.246.544,1.932l1.253,3.63H364.18l1.236-3.654C365.6,1029.95,365.783,1029.31,365.95,1028.634Z" transform="translate(-360.194 -1026.165)"/><path class="a" d="M379.186,1030.314a3.876,3.876,0,0,0-3.293,1.58l-.083-1.361h-1.9l.012.174c.056.848.079,1.782.079,3.123v10.554h2.071v-4.925a3.639,3.639,0,0,0,2.832,1.217,4.269,4.269,0,0,0,3.138-1.334,5.66,5.66,0,0,0,1.387-3.985,5.514,5.514,0,0,0-1.2-3.638A3.943,3.943,0,0,0,379.186,1030.314Zm-.516,1.716c1.846,0,2.673,1.711,2.673,3.406,0,2.187-1.055,3.545-2.752,3.545a2.51,2.51,0,0,1-2.44-1.922,2.6,2.6,0,0,1-.074-.67v-1.667a3.161,3.161,0,0,1,.066-.511c.01-.057.022-.114.03-.168A2.623,2.623,0,0,1,378.67,1032.03Z" transform="translate(-361.527 -1026.546)"/><path class="a" d="M391,1030.314a3.879,3.879,0,0,0-3.294,1.58l-.083-1.361h-1.894l.011.174c.056.849.08,1.782.08,3.123v10.554h2.071v-4.925a3.637,3.637,0,0,0,2.831,1.217,4.276,4.276,0,0,0,3.14-1.334,5.667,5.667,0,0,0,1.385-3.985,5.514,5.514,0,0,0-1.2-3.638A3.943,3.943,0,0,0,391,1030.314Zm-.516,1.716c1.845,0,2.673,1.711,2.673,3.406,0,2.187-1.055,3.545-2.752,3.545a2.511,2.511,0,0,1-2.44-1.922,2.646,2.646,0,0,1-.073-.67v-1.667a3.082,3.082,0,0,1,.066-.513c.011-.056.021-.112.03-.166A2.622,2.622,0,0,1,390.486,1032.03Z" transform="translate(-362.674 -1026.546)"/><path class="a" d="M405.841,1032.161c-1.933-.749-2.552-1.338-2.552-2.426,0-.915.728-1.839,2.355-1.839a4.711,4.711,0,0,1,2.431.61l.176.108.584-1.729-.116-.068a6,6,0,0,0-3.016-.677c-2.642,0-4.487,1.56-4.487,3.792,0,1.8,1.156,3.059,3.636,3.961,1.759.657,2.412,1.331,2.412,2.485,0,1.306-1.009,2.116-2.633,2.116a5.66,5.66,0,0,1-2.986-.847l-.18-.115-.556,1.769.1.068a7.1,7.1,0,0,0,3.5.9c3.56,0,4.823-2.171,4.823-4.03C409.336,1034.323,408.323,1033.141,405.841,1032.161Z" transform="translate(-364.148 -1026.141)"/><path class="a" d="M413.993,1027.943l-2.032.638v1.721h-1.487v1.656h1.487v5.071a3.874,3.874,0,0,0,.718,2.628,2.656,2.656,0,0,0,2,.787,4.9,4.9,0,0,0,1.6-.247l.116-.042-.1-1.659-.2.061a3.127,3.127,0,0,1-.963.111c-.8,0-1.146-.507-1.146-1.7v-5.012h2.5V1030.3h-2.5Z" transform="translate(-365.077 -1026.316)"/><path class="a" d="M422.3,1030.314c-2.9,0-4.922,2.164-4.922,5.26,0,3,1.958,5.1,4.764,5.1h.02a4.884,4.884,0,0,0,4.922-5.28,5.235,5.235,0,0,0-1.32-3.664A4.613,4.613,0,0,0,422.3,1030.314Zm-.06,1.636c1.864,0,2.712,1.817,2.712,3.506,0,2.077-1.158,3.583-2.752,3.583h-.02c-1.571,0-2.711-1.482-2.711-3.524C419.466,1033.741,420.323,1031.95,422.237,1031.95Z" transform="translate(-365.747 -1026.546)"/><path class="a" d="M434.6,1030.411l-.125-.032a2.01,2.01,0,0,0-.515-.065,2.954,2.954,0,0,0-2.6,1.669l-.061-1.45H429.44l.013.174c.055.82.078,1.741.078,2.983l-.019,6.768h2.071v-5.28a5.275,5.275,0,0,1,.058-.8,2.289,2.289,0,0,1,2.18-2.087,5.087,5.087,0,0,1,.555.035l.222.023Z" transform="translate(-366.919 -1026.546)"/><path class="a" d="M439.807,1030.293c-2.758,0-4.684,2.2-4.684,5.359a4.632,4.632,0,0,0,4.882,5,7.941,7.941,0,0,0,3.28-.629l.125-.056-.4-1.544-.172.069a6.409,6.409,0,0,1-2.6.464,2.88,2.88,0,0,1-3.1-3l6.687.02.027-.133a4.575,4.575,0,0,0,.062-.864C443.916,1032.817,442.84,1030.293,439.807,1030.293Zm-.138,1.576a2.043,2.043,0,0,1,1.52.581,2.945,2.945,0,0,1,.713,1.928h-4.725A2.644,2.644,0,0,1,439.669,1031.869Z" transform="translate(-367.471 -1026.544)"/></g><path class="a" d="M360.194,1016.009a15.1,15.1,0,0,1,1.987-.135,4.435,4.435,0,0,1,2.917.8,2.839,2.839,0,0,1,1.026,2.337,3.283,3.283,0,0,1-1.036,2.519,4.806,4.806,0,0,1-3.194.933,14.446,14.446,0,0,1-1.7-.077Zm.941,5.74a6.8,6.8,0,0,0,.94.038c1.987.01,3.066-1,3.066-2.749.011-1.548-.951-2.5-2.916-2.5a5.871,5.871,0,0,0-1.09.087Z" transform="translate(-360.194 -1015.576)"/><path class="a" d="M370.185,1022.7a2.336,2.336,0,0,1-2.478-2.394,2.4,2.4,0,0,1,2.564-2.471,2.317,2.317,0,0,1,2.489,2.384,2.409,2.409,0,0,1-2.564,2.48Zm.033-.635a1.655,1.655,0,0,0,1.57-1.818,1.581,1.581,0,1,0-1.581,1.818Z" transform="translate(-360.924 -1015.766)"/><path class="a" d="M374.848,1017.951l.694,2.356c.139.519.278,1.009.374,1.491h.033c.117-.471.288-.971.46-1.481l.844-2.366h.79l.8,2.327c.192.548.341,1.048.46,1.52h.032a12.938,12.938,0,0,1,.4-1.51l.737-2.337h.93l-1.667,4.653h-.855l-.79-2.221a15.493,15.493,0,0,1-.46-1.539H377.6a12.732,12.732,0,0,1-.47,1.548l-.833,2.211h-.854l-1.56-4.653Z" transform="translate(-361.524 -1015.778)"/><path class="a" d="M383.242,1019.2c0-.49-.011-.875-.043-1.26h.833l.053.759h.022a1.96,1.96,0,0,1,1.709-.865,1.77,1.77,0,0,1,1.827,1.98v2.779h-.94v-2.682c0-.75-.311-1.384-1.2-1.384a1.341,1.341,0,0,0-1.26.865,1.148,1.148,0,0,0-.064.394v2.807h-.94Z" transform="translate(-362.428 -1015.766)"/><path class="a" d="M389.814,1015.544h.941v6.827h-.941Z" transform="translate(-363.071 -1015.544)"/><path class="a" d="M394.647,1022.7a2.336,2.336,0,0,1-2.478-2.394,2.4,2.4,0,0,1,2.564-2.471,2.317,2.317,0,0,1,2.489,2.384,2.409,2.409,0,0,1-2.564,2.48Zm.032-.635a1.655,1.655,0,0,0,1.571-1.818,1.581,1.581,0,1,0-1.581,1.818Z" transform="translate(-363.299 -1015.766)"/><path class="a" d="M402.68,1021.478a7.056,7.056,0,0,0,.075,1.115h-.844l-.086-.586h-.032a1.989,1.989,0,0,1-1.581.692,1.409,1.409,0,0,1-1.581-1.336c0-1.125,1.111-1.741,3.109-1.731v-.1c0-.385-.117-1.087-1.176-1.077a2.7,2.7,0,0,0-1.356.346l-.214-.567a3.639,3.639,0,0,1,1.709-.4,1.73,1.73,0,0,1,1.976,1.9Zm-.918-1.26c-1.026-.02-2.19.144-2.19,1.047a.786.786,0,0,0,.876.808,1.3,1.3,0,0,0,1.271-.779.773.773,0,0,0,.043-.269Z" transform="translate(-363.927 -1015.766)"/><path class="a" d="M409.209,1015.544v5.625c0,.414.011.884.042,1.2h-.843l-.042-.807h-.022a1.937,1.937,0,0,1-1.752.913,2.218,2.218,0,0,1-2.222-2.366,2.319,2.319,0,0,1,2.318-2.5,1.781,1.781,0,0,1,1.561.7h.021v-2.769Zm-.94,4.067a1.405,1.405,0,0,0-.043-.366,1.357,1.357,0,0,0-1.356-.971,1.592,1.592,0,0,0-1.549,1.788,1.544,1.544,0,0,0,1.528,1.731,1.4,1.4,0,0,0,1.378-1.009,1.314,1.314,0,0,0,.043-.366Z" transform="translate(-364.484 -1015.544)"/><path class="a" d="M416.03,1022.7a2.336,2.336,0,0,1-2.478-2.394,2.4,2.4,0,0,1,2.564-2.471,2.317,2.317,0,0,1,2.489,2.384,2.409,2.409,0,0,1-2.563,2.48Zm.033-.635a1.655,1.655,0,0,0,1.57-1.818,1.58,1.58,0,1,0-1.581,1.818Z" transform="translate(-365.376 -1015.766)"/><path class="a" d="M420.459,1019.2c0-.49-.011-.875-.043-1.26h.833l.054.759h.021a1.958,1.958,0,0,1,1.709-.865,1.77,1.77,0,0,1,1.827,1.98v2.779h-.941v-2.682c0-.75-.309-1.384-1.2-1.384a1.341,1.341,0,0,0-1.26.865,1.128,1.128,0,0,0-.064.394v2.807h-.94Z" transform="translate(-366.043 -1015.766)"/><path class="a" d="M430.609,1016.716v1.115h1.346v.644h-1.346v2.51c0,.576.182.9.705.9a1.964,1.964,0,0,0,.545-.058l.042.644a2.815,2.815,0,0,1-.833.116,1.421,1.421,0,0,1-1.015-.356,1.69,1.69,0,0,1-.363-1.222v-2.538h-.8v-.644h.8v-.856Z" transform="translate(-366.866 -1015.658)"/><path class="a" d="M433.457,1015.544h.94v2.9h.022a1.6,1.6,0,0,1,.674-.6,1.985,1.985,0,0,1,.962-.24,1.768,1.768,0,0,1,1.8,1.99v2.769h-.94V1019.7c0-.76-.31-1.385-1.2-1.385a1.352,1.352,0,0,0-1.261.846.935.935,0,0,0-.064.4v2.807h-.94Z" transform="translate(-367.309 -1015.544)"/><path class="a" d="M440.518,1020.41a1.576,1.576,0,0,0,1.763,1.615,3.927,3.927,0,0,0,1.432-.231l.171.6a4.617,4.617,0,0,1-1.731.3,2.294,2.294,0,0,1-2.543-2.347,2.369,2.369,0,0,1,2.436-2.519,2.037,2.037,0,0,1,2.126,2.192,1.939,1.939,0,0,1-.032.4Zm2.747-.606a1.249,1.249,0,0,0-1.294-1.375,1.464,1.464,0,0,0-1.442,1.375Z" transform="translate(-367.907 -1015.765)"/></g></g></svg>