<svg xmlns="http://www.w3.org/2000/svg" xmlns:xlink="http://www.w3.org/1999/xlink" width="122.103" height="39.941" viewBox="0 0 122.103 39.941"><defs><style>.a{fill:none;}.b{fill:#17100d;}.c{clip-path:url(#a);}.d{fill:url(#b);}.e{fill:url(#c);}.f{fill:url(#d);}.g{fill:url(#e);}.h{fill:#f9f9f9;}.i{fill:#fdfefe;}</style><clipPath id="a"><path class="a" d="M312.614,1220.624l-5.506-3.178-10.621-6.132c-.59-.34-1.176-.135-1.176.577v24.984c0,.533.42.763.932.467l10.865-6.273,5.5-3.178,5.293-3.055c.621-.358.561-.85.037-1.133S312.614,1220.624,312.614,1220.624Z" transform="translate(-295.311 -1211.153)"/></clipPath><linearGradient id="b" x1="0.5" x2="0.5" y2="1" gradientUnits="objectBoundingBox"><stop offset="0" stop-color="#1368a1"/><stop offset="0.326" stop-color="#3e88a6"/><stop offset="0.78" stop-color="#75b2ae"/><stop offset="1" stop-color="#8bc3b1"/></linearGradient><linearGradient id="c" y1="0.5" x2="1" y2="0.5" gradientUnits="objectBoundingBox"><stop offset="0" stop-color="#5bae9a"/><stop offset="1" stop-color="#e9e587"/></linearGradient><linearGradient id="d" x1="0.5" x2="0.5" y2="1" gradientUnits="objectBoundingBox"><stop offset="0" stop-color="#d92f27"/><stop offset="0.228" stop-color="#be323f"/><stop offset="0.748" stop-color="#873972"/><stop offset="1" stop-color="#723c87"/></linearGradient><linearGradient id="e" x1="0.5" x2="0.5" y2="1" gradientUnits="objectBoundingBox"><stop offset="0" stop-color="#e87867"/><stop offset="0.663" stop-color="#f8ac61"/><stop offset="1" stop-color="#ffc25f"/></linearGradient></defs><path class="b" d="M5.979,0H116.125A5.978,5.978,0,0,1,122.1,5.978V33.963a5.978,5.978,0,0,1-5.978,5.978H5.977A5.977,5.977,0,0,1,0,33.964V5.979A5.979,5.979,0,0,1,5.979,0Z"/><g transform="translate(9.159 8.11)"><g class="c"><path class="d" d="M295.311,1210.688v27.048l13.639-13.524Z" transform="translate(-295.311 -1211.108)"/><path class="e" d="M312.613,1220.569l-5.506-3.179-11.8-6.811v.1L308.95,1224.2Z" transform="translate(-295.311 -1211.098)"/><path class="f" d="M295.311,1239.191v.1l11.8-6.812,5.505-3.178-3.663-3.632Z" transform="translate(-295.311 -1212.563)"/><path class="g" d="M314.08,1221.643l-3.663,3.633,3.663,3.632,6.292-3.632Z" transform="translate(-296.778 -1212.172)"/></g></g><g transform="translate(91.367 15.19)"><path class="h" d="M390.021,1230.646a3.409,3.409,0,0,1-1.4-.283,2.641,2.641,0,0,1-1.066-.872h-.086a10.481,10.481,0,0,1,.086,1.306v3.237h-1.19v-11.4h.968l.165,1.076h.057a2.773,2.773,0,0,1,1.07-.933,3.253,3.253,0,0,1,1.4-.288,2.908,2.908,0,0,1,2.415,1.07,5.7,5.7,0,0,1-.014,6.011A2.914,2.914,0,0,1,390.021,1230.646Zm-.172-7.142a2.109,2.109,0,0,0-1.743.668,3.439,3.439,0,0,0-.553,2.125v.265a3.935,3.935,0,0,0,.553,2.372,2.1,2.1,0,0,0,1.772.714,1.846,1.846,0,0,0,1.6-.825,3.917,3.917,0,0,0,.577-2.275,3.771,3.771,0,0,0-.577-2.257A1.9,1.9,0,0,0,389.849,1223.5Z" transform="translate(-386.362 -1219.335)"/><path class="h" d="M396.959,1230.163h-1.191v-11.168h1.191Z" transform="translate(-387.276 -1218.995)"/><path class="h" d="M404.09,1230.5l-.237-1.12H403.8a3.307,3.307,0,0,1-1.174,1,3.583,3.583,0,0,1-1.46.262,2.631,2.631,0,0,1-1.835-.6,2.2,2.2,0,0,1-.664-1.715q0-2.382,3.811-2.5l1.335-.043v-.488a1.991,1.991,0,0,0-.4-1.367,1.635,1.635,0,0,0-1.274-.442,5.19,5.19,0,0,0-2.226.6l-.366-.911a5.606,5.606,0,0,1,1.274-.5,5.531,5.531,0,0,1,1.389-.18,3,3,0,0,1,2.086.625,2.609,2.609,0,0,1,.677,2v5.369Zm-2.691-.84a2.419,2.419,0,0,0,1.748-.61,2.26,2.26,0,0,0,.635-1.708v-.711l-1.192.051a4.328,4.328,0,0,0-2.049.441,1.331,1.331,0,0,0-.628,1.216,1.224,1.224,0,0,0,.392.983A1.623,1.623,0,0,0,401.4,1229.664Z" transform="translate(-387.557 -1219.336)"/><path class="h" d="M406.418,1222.652h1.277l1.723,4.486a17.175,17.175,0,0,1,.7,2.218h.058q.093-.367.391-1.253t1.948-5.451H413.8l-3.381,8.957a4.465,4.465,0,0,1-1.174,1.884,2.494,2.494,0,0,1-1.647.556,4.81,4.81,0,0,1-1.077-.122v-.954a4.2,4.2,0,0,0,.883.086,1.819,1.819,0,0,0,1.752-1.378l.438-1.12Z" transform="translate(-388.31 -1219.35)"/></g><g transform="translate(37.053 14.311)"><path class="h" d="M365.311,1223.4a2.68,2.68,0,0,1-.214,4.558,1.156,1.156,0,0,0-.461.807.9.9,0,0,0,.429.707l.592.459a2.863,2.863,0,0,1,1.381,2.3c0,1.547-1.5,3.11-4.327,3.11-2.386,0-3.537-1.135-3.537-2.354a2.369,2.369,0,0,1,1.267-2.007,7.1,7.1,0,0,1,3.143-.757,1.723,1.723,0,0,1-.494-1.118,1.483,1.483,0,0,1,.164-.643c-.181.017-.362.033-.527.033a2.6,2.6,0,0,1-2.73-2.583,2.956,2.956,0,0,1,1.053-2.2,4.483,4.483,0,0,1,2.946-.906h3.388l-1.054.592Zm-1.168,7.3a2.572,2.572,0,0,0-.378-.017,6.562,6.562,0,0,0-1.727.265,1.848,1.848,0,0,0-1.416,1.695c0,1.167,1.136,2.008,2.9,2.008,1.579,0,2.419-.758,2.419-1.778C365.937,1232.034,365.393,1231.592,364.143,1230.7Zm.478-3.126a1.667,1.667,0,0,0,.41-1.2c0-1.185-.707-3.026-2.072-3.026a1.537,1.537,0,0,0-1.152.542,1.9,1.9,0,0,0-.362,1.217c0,1.1.642,2.929,2.058,2.929A1.689,1.689,0,0,0,364.62,1227.577Z" transform="translate(-329.408 -1218.486)"/><path class="h" d="M354.068,1230.415a3.877,3.877,0,0,1-4.008-3.878,4.071,4.071,0,0,1,4.255-3.991,3.84,3.84,0,0,1,3.925,3.877A4.014,4.014,0,0,1,354.068,1230.415Zm2.053-1.331a2.972,2.972,0,0,0,.493-1.824c0-1.446-.69-4.2-2.727-4.2a2.292,2.292,0,0,0-1.478.559,2.488,2.488,0,0,0-.757,2c0,1.625.805,4.3,2.794,4.3A2.1,2.1,0,0,0,356.121,1229.084Z" transform="translate(-328.523 -1218.46)"/><path class="h" d="M344.207,1230.415a3.877,3.877,0,0,1-4.008-3.878,4.07,4.07,0,0,1,4.254-3.991,3.841,3.841,0,0,1,3.926,3.877A4.014,4.014,0,0,1,344.207,1230.415Zm2.053-1.331a2.972,2.972,0,0,0,.493-1.824c0-1.446-.69-4.2-2.727-4.2a2.29,2.29,0,0,0-1.478.559,2.484,2.484,0,0,0-.756,2c0,1.625.8,4.3,2.793,4.3A2.1,2.1,0,0,0,346.26,1229.084Z" transform="translate(-327.565 -1218.46)"/><path class="h" d="M337.585,1229.757l-2.362.544a17.514,17.514,0,0,1-2.725.28,5.868,5.868,0,0,1-6.292-5.978c0-3.2,2.46-6.176,6.672-6.176a9.515,9.515,0,0,1,2.526.347,6.441,6.441,0,0,1,2.18,1.024l-1.371,1.3-.578.132.414-.661a4.723,4.723,0,0,0-3.535-1.552,4.562,4.562,0,0,0-4.575,4.873,5.84,5.84,0,0,0,5.846,6.027,4.917,4.917,0,0,0,2.1-.413v-2.659l-2.493.132,1.32-.711h3.5l-.429.413a.386.386,0,0,0-.165.264c-.017.149-.033.629-.033.794Z" transform="translate(-326.206 -1218.061)"/><path class="h" d="M371.375,1229.242c-.545-.05-.659-.148-.659-.794V1219.1c0-.036.005-.072.009-.107.067-.578.231-.677.744-.974h-2.362l-1.24.594h1.263v10.2c0,.329-.066.38-.446.875h2.924l.611-.362C371.937,1229.291,371.656,1229.274,371.375,1229.242Z" transform="translate(-330.252 -1218.021)"/><path class="h" d="M378.551,1229.834c-.18.1-.36.214-.54.3a3.81,3.81,0,0,1-1.593.312,3.508,3.508,0,0,1-2.181-.639,4.248,4.248,0,0,1-1.671-3.462,3.716,3.716,0,0,1,3.755-3.787,3.185,3.185,0,0,1,1.69.46,2.71,2.71,0,0,1,1.147,1.622l-3.853,1.559-1.263.1c.41,2.083,1.82,3.3,3.379,3.3a4.237,4.237,0,0,0,2-.573Zm-1.54-4.888c.311-.115.475-.213.475-.442a1.627,1.627,0,0,0-1.624-1.41,2.02,2.02,0,0,0-1.886,2.28c0,.278.033.573.05.87Z" transform="translate(-330.709 -1218.461)"/><g transform="translate(48.937 4.091)"><path class="h" d="M380.9,1222.664v1.083h-.132v-1.083h-.358v-.112h.847v.112Z" transform="translate(-380.407 -1222.552)"/><path class="h" d="M382.486,1223.746v-1.092h-.006l-.333,1.092h-.1l-.336-1.092h0v1.092h-.119v-1.194h.2l.3.965h0l.3-.965h.208v1.194Z" transform="translate(-380.521 -1222.552)"/></g></g><g transform="translate(37.082 8.046)"><path class="i" d="M329.489,1214.507h-.821a5.424,5.424,0,0,0-.233-.959H327.25a4.965,4.965,0,0,0-.241.959h-.771q0-.1.6-1.641a12.826,12.826,0,0,0,.6-1.7h.97a14.111,14.111,0,0,0,.542,1.673A14.635,14.635,0,0,1,329.489,1214.507Zm-1.185-1.448a14.573,14.573,0,0,1-.439-1.431h-.041q0,.1-.454,1.431Z" transform="translate(-326.238 -1211.091)"/><path class="i" d="M333.205,1214.507h-.633a6.347,6.347,0,0,0-.705-1.11,6.106,6.106,0,0,1-.841-1.448h-.041a9.09,9.09,0,0,1,.064,1.015q0,.634.036,1.544h-.631q.038-.795.038-1.746,0-.936-.038-1.593h.761a4.818,4.818,0,0,0,.634,1.085,6.374,6.374,0,0,1,.775,1.367h.038a9.8,9.8,0,0,1-.061-1.027q0-.695-.036-1.426h.641q-.035.636-.035,1.593T333.205,1214.507Z" transform="translate(-326.647 -1211.091)"/><path class="i" d="M337.315,1212.72a1.89,1.89,0,0,1-.467,1.272,1.628,1.628,0,0,1-1.307.544q-.381,0-1.046-.031.033-.775.033-1.746,0-.933-.033-1.593h.449c.073,0,.182,0,.328-.007s.24-.008.285-.008a1.733,1.733,0,0,1,1.343.461A1.6,1.6,0,0,1,337.315,1212.72Zm-.7.111a1.235,1.235,0,0,0-.287-.83,1.089,1.089,0,0,0-.878-.338,2.747,2.747,0,0,0-.3.023c.017.342.026.7.026,1.072q0,.613.025,1.215a1.667,1.667,0,0,0,.333.033.969.969,0,0,0,.817-.342A1.322,1.322,0,0,0,336.615,1212.831Z" transform="translate(-327.04 -1211.09)"/><path class="i" d="M341.123,1214.505h-.759a5.034,5.034,0,0,0-.456-1.12.6.6,0,0,0-.513-.213l-.285,0q0,.66.023,1.331h-.713q.034-.775.033-1.746,0-.933-.033-1.593h.444c.051,0,.158,0,.321-.007s.314-.008.453-.008q1.177,0,1.176.805a.9.9,0,0,1-.672.89v.038a.8.8,0,0,1,.454.4A8.936,8.936,0,0,1,341.123,1214.505Zm-.962-2.359q0-.509-.656-.51a2.218,2.218,0,0,0-.426.036c.019.265.029.61.029,1.036q.141.005.238.005Q340.162,1212.713,340.162,1212.146Z" transform="translate(-327.421 -1211.09)"/><path class="i" d="M345.134,1212.768a1.847,1.847,0,0,1-.481,1.306,1.568,1.568,0,0,1-1.193.518,1.509,1.509,0,0,1-1.134-.476,1.677,1.677,0,0,1-.456-1.21,1.839,1.839,0,0,1,.482-1.3,1.563,1.563,0,0,1,1.193-.518,1.511,1.511,0,0,1,1.133.474A1.677,1.677,0,0,1,345.134,1212.768Zm-.707.074a1.326,1.326,0,0,0-.274-.869.847.847,0,0,0-.677-.334.784.784,0,0,0-.637.336,1.344,1.344,0,0,0-.261.849,1.318,1.318,0,0,0,.275.868.845.845,0,0,0,.675.335.782.782,0,0,0,.637-.338A1.343,1.343,0,0,0,344.427,1212.842Z" transform="translate(-327.756 -1211.083)"/><path class="i" d="M347.013,1214.507h-.725q.033-.795.033-1.746,0-.936-.033-1.593h.725q-.033.646-.032,1.593Q346.981,1213.728,347.013,1214.507Z" transform="translate(-328.185 -1211.091)"/><path class="i" d="M350.9,1212.72a1.89,1.89,0,0,1-.467,1.272,1.628,1.628,0,0,1-1.307.544c-.253,0-.6-.01-1.046-.031q.032-.775.033-1.746,0-.933-.033-1.593h.449c.073,0,.183,0,.329-.007s.24-.008.284-.008a1.733,1.733,0,0,1,1.343.461A1.6,1.6,0,0,1,350.9,1212.72Zm-.7.111a1.235,1.235,0,0,0-.287-.83,1.089,1.089,0,0,0-.878-.338,2.747,2.747,0,0,0-.3.023c.017.342.026.7.026,1.072q0,.613.025,1.215a1.667,1.667,0,0,0,.333.033.969.969,0,0,0,.817-.342A1.322,1.322,0,0,0,350.2,1212.831Z" transform="translate(-328.36 -1211.09)"/><path class="i" d="M356.32,1214.507H355.5a5.381,5.381,0,0,0-.234-.959h-1.185a4.968,4.968,0,0,0-.241.959h-.772q0-.1.6-1.641a12.826,12.826,0,0,0,.6-1.7h.97a14.028,14.028,0,0,0,.543,1.673A14.863,14.863,0,0,1,356.32,1214.507Zm-1.185-1.448a14.561,14.561,0,0,1-.439-1.431h-.042q0,.1-.453,1.431Z" transform="translate(-328.844 -1211.091)"/><path class="i" d="M359.721,1212.041a1,1,0,0,1-.455.9,2.026,2.026,0,0,1-1.117.292c-.08,0-.138,0-.172-.005q0,.483.029,1.272h-.72q.032-.741.033-1.746,0-.924-.033-1.593h.446c.063,0,.184,0,.364-.007s.335-.008.467-.008a1.473,1.473,0,0,1,.823.22A.746.746,0,0,1,359.721,1212.041Zm-.662.141q0-.549-.729-.549a2.022,2.022,0,0,0-.385.039q.028.485.029,1.1c.042,0,.092.005.148.005Q359.06,1212.774,359.059,1212.182Z" transform="translate(-329.253 -1211.09)"/><path class="i" d="M363.127,1212.041a1,1,0,0,1-.455.9,2.024,2.024,0,0,1-1.117.292c-.08,0-.137,0-.172-.005q0,.483.028,1.272h-.72q.034-.741.033-1.746,0-.924-.033-1.593h.446c.063,0,.185,0,.365-.007s.335-.008.467-.008a1.472,1.472,0,0,1,.823.22A.746.746,0,0,1,363.127,1212.041Zm-.661.141q0-.549-.729-.549a2.008,2.008,0,0,0-.385.039q.028.485.028,1.1.064.005.149.005Q362.466,1212.774,362.466,1212.182Z" transform="translate(-329.584 -1211.09)"/><path class="i" d="M368.608,1212.768a1.843,1.843,0,0,1-.482,1.306,1.566,1.566,0,0,1-1.193.518,1.507,1.507,0,0,1-1.133-.476,1.678,1.678,0,0,1-.457-1.21,1.839,1.839,0,0,1,.482-1.3,1.563,1.563,0,0,1,1.193-.518,1.509,1.509,0,0,1,1.133.474A1.677,1.677,0,0,1,368.608,1212.768Zm-.708.074a1.321,1.321,0,0,0-.274-.869.847.847,0,0,0-.677-.334.782.782,0,0,0-.636.336,1.344,1.344,0,0,0-.262.849,1.319,1.319,0,0,0,.276.868.843.843,0,0,0,.675.335.782.782,0,0,0,.636-.338A1.343,1.343,0,0,0,367.9,1212.842Z" transform="translate(-330.036 -1211.083)"/><path class="i" d="M372.513,1214.507h-.634a6.284,6.284,0,0,0-.705-1.11,6.094,6.094,0,0,1-.841-1.448h-.042a9.082,9.082,0,0,1,.064,1.015q0,.634.036,1.544h-.631q.039-.795.039-1.746,0-.936-.039-1.593h.762a4.831,4.831,0,0,0,.633,1.085,6.374,6.374,0,0,1,.775,1.367h.039a9.586,9.586,0,0,1-.062-1.027q0-.695-.035-1.426h.641q-.037.636-.036,1.593T372.513,1214.507Z" transform="translate(-330.465 -1211.091)"/></g></svg>