<?xml version="1.0" encoding="utf-8"?>
<!-- Generator: Adobe Illustrator 24.0.2, SVG Export Plug-In . SVG Version: 6.00 Build 0)  -->
<svg version="1.1" id="Capa_1" xmlns="http://www.w3.org/2000/svg" xmlns:xlink="http://www.w3.org/1999/xlink" x="0px" y="0px"
	 viewBox="0 0 51.8 48" style="enable-background:new 0 0 51.8 48;" xml:space="preserve">
<style type="text/css">
	.st0{opacity:0.441;fill:#FA3776;enable-background:new    ;}
	.st1{enable-background:new    ;}
	.st2{fill:#FA3776;}
</style>
<g id="Grupo_2724" transform="translate(-596.172 -263.047)">
	<path class="st0" d="M618.4,299.3c-4.4,0.4-9-1.1-12.3-4.5c-5.3-5.3-6-13.6-1.7-19.8l14.9,14.9c0.7-1.7,1.8-3.2,3.1-4.5l-14.2-14.2
		c6.1-4.3,14.5-3.6,19.8,1.7v0c2.3,2.3,3.7,5.1,4.3,8.1c0.3,0,0.5,0,0.8,0c1.7,0,3.2,0.3,4.7,0.8c-1.1-10.5-9.9-18.7-20.7-18.7
		c-11.5,0-20.8,9.3-20.8,20.8c0,11.5,9.3,20.8,20.8,20.8c1.2,0,2.4-0.1,3.6-0.3C619.5,302.8,618.8,301.1,618.4,299.3z"/>
	<g class="st1">
		<path class="st2" d="M633,308.7c-6.7,0-12.1-5.4-12.1-12.1c0-6.7,5.4-12.1,12.1-12.1s12.1,5.4,12.1,12.1
			C645.1,303.3,639.7,308.7,633,308.7z M630.8,301.3c0,1.2,1,2.2,2.2,2.2c1.2,0,2.2-1,2.2-2.2s-1-2.2-2.2-2.2
			C631.8,299.1,630.8,300.1,630.8,301.3z M631.2,297.6c0,0.3,0.3,0.6,0.6,0.6h2.4c0.3,0,0.6-0.2,0.6-0.6l0.4-6.6
			c0-0.3-0.2-0.6-0.6-0.6h-3.1c-0.3,0-0.6,0.3-0.6,0.6L631.2,297.6z"/>
	</g>
</g>
</svg>
