<svg xmlns="http://www.w3.org/2000/svg" width="17" height="17" viewBox="0 0 17 17">
  <path id="check-circle" d="M-8.905-3.593a.932.932,0,0,1-1.315,0l-2.125-2.125a.932.932,0,0,1,0-1.315.932.932,0,0,1,1.315,0l1.468,1.468L-5.97-9.157a.932.932,0,0,1,1.315,0,.932.932,0,0,1,0,1.315ZM0-6.375a8.5,8.5,0,0,1-8.5,8.5,8.5,8.5,0,0,1-8.5-8.5,8.5,8.5,0,0,1,8.5-8.5A8.5,8.5,0,0,1,0-6.375Zm-8.5-6.906a6.905,6.905,0,0,0-6.906,6.906A6.905,6.905,0,0,0-8.5.531,6.905,6.905,0,0,0-1.594-6.375,6.905,6.905,0,0,0-8.5-13.281Z" transform="translate(17 14.875)" fill="#3fc698"/>
</svg>
