<svg xmlns="http://www.w3.org/2000/svg" width="67.812" height="35" viewBox="0 0 67.812 35">
  <g id="Grupo_2769" data-name="Grupo 2769" transform="translate(-978.902 -512.5)">
    <path id="Trazado_619" data-name="Trazado 619" d="M0-32.5c-11.045,0-20,7.275-20,16.25A14.439,14.439,0,0,0-15.545-6.036a20,20,0,0,1-4.283,7.481.72.72,0,0,0-.172.43.625.625,0,0,0,.625.625h0A17.863,17.863,0,0,0-8.391-1.514,23.8,23.8,0,0,0,0,0C11.045,0,20-7.275,20-16.25S11.045-32.5,0-32.5ZM1.875-8.872V-7.5A1.25,1.25,0,0,1,.625-6.25H-.625A1.25,1.25,0,0,1-1.875-7.5V-8.885a5.706,5.706,0,0,1-2.483-.9.936.936,0,0,1-.121-1.436l1.369-1.369a.964.964,0,0,1,1.1-.159,1.916,1.916,0,0,0,.8.173H1.355a.659.659,0,0,0,.659-.658.662.662,0,0,0-.478-.634l-3.912-1.117A4.575,4.575,0,0,1-5.728-18.7a4.4,4.4,0,0,1,3.853-4.926V-25a1.25,1.25,0,0,1,1.25-1.25H.625A1.25,1.25,0,0,1,1.875-25v1.385a5.706,5.706,0,0,1,2.483.9.936.936,0,0,1,.121,1.436L3.11-19.915a.964.964,0,0,1-1.1.159,2.278,2.278,0,0,0-.8-.173H-1.355a.659.659,0,0,0-.659.658.662.662,0,0,0,.478.634l3.912,1.117A4.576,4.576,0,0,1,5.728-13.8,4.4,4.4,0,0,1,1.875-8.872Z" transform="translate(1026.715 545)" fill="#3fc698"/>
    <path id="Trazado_618" data-name="Trazado 618" d="M0-10.125a6.749,6.749,0,0,0,6.75-6.75A6.749,6.749,0,0,0,0-23.625a6.749,6.749,0,0,0-6.75,6.75A6.749,6.749,0,0,0,0-10.125ZM4.725-8.437H3.844A9.19,9.19,0,0,1,0-7.594a9.208,9.208,0,0,1-3.844-.844h-.881A7.089,7.089,0,0,0-11.812-1.35V.844A2.532,2.532,0,0,0-9.281,3.375H9.281A2.532,2.532,0,0,0,11.812.844V-1.35A7.089,7.089,0,0,0,4.725-8.437Z" transform="translate(990.715 544)" fill="#3fc698"/>
  </g>
</svg>
