<svg xmlns="http://www.w3.org/2000/svg" width="54.95" height="45.232" viewBox="0 0 54.95 45.232"><defs><style>.a{fill:#c6c6c6;}</style></defs><g transform="translate(-2.5 -10.9)"><path class="a" d="M-6911.276-17242.693a.975.975,0,0,1-.882-.562.912.912,0,0,1,.152-.99,8.6,8.6,0,0,0,1.737-2.838,9.459,9.459,0,0,1-3.117-2.77,6.22,6.22,0,0,1-1.164-3.59c0-4.5,5.136-8.156,11.45-8.156a13.914,13.914,0,0,1,8.064,2.387,7.163,7.163,0,0,1,3.333,5.77,7.168,7.168,0,0,1-3.333,5.768,13.916,13.916,0,0,1-8.064,2.387c-.64,0-1.294-.059-1.85-.113a60.36,60.36,0,0,1-6.013,2.66A1.1,1.1,0,0,1-6911.276-17242.693Zm6-9.041a.336.336,0,0,0-.077.008l-.971.238a.32.32,0,0,0-.217.143.286.286,0,0,0-.012.229,2.9,2.9,0,0,0,2.881,1.994v.779a.217.217,0,0,0,.238.242h.2a.219.219,0,0,0,.243-.242v-.793c1.644-.143,2.664-1.066,2.664-2.408-.028-1.111-.755-1.891-2.222-2.379l-.442-.156v-1.811a1.018,1.018,0,0,1,.767.645.293.293,0,0,0,.274.211.48.48,0,0,0,.112-.016l.957-.289a.306.306,0,0,0,.208-.154.27.27,0,0,0-.012-.227,2.614,2.614,0,0,0-2.3-1.7v-.84a.217.217,0,0,0-.243-.238h-.2a.213.213,0,0,0-.238.238v.828a2.5,2.5,0,0,0-2.591,2.4,2,2,0,0,0,.737,1.508,4.073,4.073,0,0,0,1.433.785l.42.156v1.957a1.476,1.476,0,0,1-1.3-.875C-6905.048-17251.66-6905.146-17251.734-6905.279-17251.734Zm2.288,1.086v-1.682l.069.039c.5.2.745.461.745.814,0,.422-.289.715-.813.826Zm-.685-3.684v0l-.072-.031c-.592-.246-.671-.535-.671-.785,0-.391.271-.668.745-.766v1.584Z" transform="translate(6939.898 17272.5)"/><circle class="a" cx="6.305" cy="6.305" r="6.305" transform="translate(12.102 22.989)"/><path class="a" d="M29.4,63.258a7.333,7.333,0,0,0-7.23-5.958H14.7a7.418,7.418,0,0,0-7.4,7.4v2.372H3.194a.668.668,0,0,0-.694.694v1.5a.668.668,0,0,0,.694.694H24.885A10.188,10.188,0,0,1,29.4,63.258Z" transform="translate(0 -19.561)"/><path class="a" d="M87,74.1a11.439,11.439,0,0,1,1.041,2.892h4.338a.668.668,0,0,0,.694-.694v-1.5a.668.668,0,0,0-.694-.694H87Z" transform="translate(-35.624 -26.644)"/><path class="a" d="M60.607,69.7H53.2a7.418,7.418,0,0,0-7.4,7.4v3.123a.668.668,0,0,0,.694.694H67.317a.668.668,0,0,0,.694-.694V77.1A7.381,7.381,0,0,0,60.607,69.7Z" transform="translate(-18.254 -24.789)"/><circle class="a" cx="6.305" cy="6.305" r="6.305" transform="translate(32.346 30.161)"/></g></svg>