<svg xmlns="http://www.w3.org/2000/svg" width="80.406" height="80.406" viewBox="0 0 80.406 80.406"><defs><style>.a{fill:#3fc698;}</style></defs><g transform="translate(0 -1.672)"><path class="a" d="M40.2-71.328A40.2,40.2,0,0,0,0-31.125a40.2,40.2,0,0,0,40.2,40.2,40.2,40.2,0,0,0,40.2-40.2A40.2,40.2,0,0,0,40.2-71.328ZM60.953-2.983A34.831,34.831,0,0,1,40.2,3.891a34.831,34.831,0,0,1-20.75-6.873v-2.2A10.385,10.385,0,0,1,29.828-15.562c1.8,0,4.458,1.848,10.375,1.848,5.933,0,8.559-1.848,10.375-1.848A10.385,10.385,0,0,1,60.953-5.187Zm4.96-4.458A15.512,15.512,0,0,0,50.578-20.75C47.255-20.75,45.65-18.9,40.2-18.9S33.167-20.75,29.828-20.75A15.512,15.512,0,0,0,14.493-7.441,34.827,34.827,0,0,1,5.187-31.125,35.056,35.056,0,0,1,40.2-66.14,35.056,35.056,0,0,1,75.219-31.125,34.827,34.827,0,0,1,65.913-7.441ZM40.2-53.172A14.266,14.266,0,0,0,25.937-38.906,14.266,14.266,0,0,0,40.2-24.641,14.266,14.266,0,0,0,54.469-38.906,14.266,14.266,0,0,0,40.2-53.172Zm0,23.344a9.084,9.084,0,0,1-9.078-9.078A9.084,9.084,0,0,1,40.2-47.984a9.084,9.084,0,0,1,9.078,9.078A9.084,9.084,0,0,1,40.2-29.828Z" transform="translate(0 73)"/></g></svg>