<svg xmlns="http://www.w3.org/2000/svg" width="43.997" height="44.004" viewBox="0 0 43.997 44.004"><defs><style>.a{fill:#fff;}.b{fill:#3fc698;}</style></defs><g transform="translate(-682.469 -341.789)"><ellipse class="a" cx="20.5" cy="21" rx="20.5" ry="21" transform="translate(682.469 341.789)"/><path class="b" d="M19.453-.414,11.664-8.2a1.874,1.874,0,0,0-1.328-.547H9.062a16.171,16.171,0,0,0,3.437-10A16.247,16.247,0,0,0-3.75-35,16.247,16.247,0,0,0-20-18.75,16.247,16.247,0,0,0-3.75-2.5a16.171,16.171,0,0,0,10-3.437v1.273A1.874,1.874,0,0,0,6.8-3.336l7.789,7.789a1.867,1.867,0,0,0,2.648,0l2.211-2.211A1.884,1.884,0,0,0,19.453-.414ZM-3.75-8.75a9.994,9.994,0,0,1-10-10,9.994,9.994,0,0,1,10-10,9.994,9.994,0,0,1,10,10A9.994,9.994,0,0,1-3.75-8.75Z" transform="translate(706.469 380.789)"/></g></svg>