<svg xmlns="http://www.w3.org/2000/svg" width="223.188" height="38.556" viewBox="0 0 223.188 38.556">
  <g id="Grupo_275" data-name="Grupo 275" transform="translate(-1852 105.166)">
    <path id="Trazado_228" data-name="Trazado 228" d="M2.6,0H4.186a1.175,1.175,0,0,0,1.3-1.2l.858-9.932,4,9.932a1.4,1.4,0,0,0,1.43.988h.7A1.4,1.4,0,0,0,13.91-1.2l4-9.932L18.746-1.2A1.2,1.2,0,0,0,20.072,0h1.586a1.084,1.084,0,0,0,1.2-1.326L21.4-17a1.188,1.188,0,0,0-1.3-1.2H18.2a1.4,1.4,0,0,0-1.43.988L12.116-5.9,7.488-17.212A1.429,1.429,0,0,0,6.032-18.2H4.16A1.175,1.175,0,0,0,2.86-17L1.4-1.326A1.075,1.075,0,0,0,2.6,0ZM27.872-14.95a2.168,2.168,0,0,0,2.418-2.08,2.144,2.144,0,0,0-2.418-2.106,2.13,2.13,0,0,0-2.418,2.106A2.168,2.168,0,0,0,27.872-14.95ZM27.118,0h1.508A1.144,1.144,0,0,0,29.9-1.248V-12.116a1.144,1.144,0,0,0-1.274-1.248H27.118a1.125,1.125,0,0,0-1.248,1.248V-1.248A1.125,1.125,0,0,0,27.118,0ZM34.4,0h1.534A1.125,1.125,0,0,0,37.18-1.248V-6.812c0-2.5,1.43-3.562,2.808-3.562s2.106,1.092,2.106,2.964v6.162A1.125,1.125,0,0,0,43.342,0H44.85a1.144,1.144,0,0,0,1.274-1.248V-7.7c0-3.146-1.3-5.954-4.888-5.954a4.087,4.087,0,0,0-4.056,2.418v-.884a1.125,1.125,0,0,0-1.248-1.248H34.4a1.125,1.125,0,0,0-1.248,1.248V-1.248A1.125,1.125,0,0,0,34.4,0ZM55.406.286c3.874,0,6.916-1.9,6.916-5.46-.052-2.288-1.378-4.16-4.94-5.356l-2.366-.858c-1.612-.6-1.9-1.3-1.9-1.95,0-1.2,1.118-1.846,2.418-1.846a2.573,2.573,0,0,1,2.366,1.2,1.339,1.339,0,0,0,1.612.7l1.04-.286a1.043,1.043,0,0,0,.754-1.586,6,6,0,0,0-5.824-3.328c-3.562,0-6.448,2.08-6.448,5.408.026,2.808,2.678,4.42,4.836,5.122l2.366.858c1.378.468,2.08,1.2,2.08,2.106,0,1.2-1.17,1.976-2.938,1.976A3.7,3.7,0,0,1,52.1-4.628c-.416-.676-.806-.988-1.534-.806l-1.118.26c-.806.208-1.222.754-.884,1.534C49.53-1.222,52,.286,55.406.286ZM66.014,0h1.534A1.125,1.125,0,0,0,68.8-1.248V-6.89c0-2.5,1.222-3.484,2.418-3.484s1.9,1.014,1.9,2.886v6.24A1.125,1.125,0,0,0,74.36,0h1.534a1.125,1.125,0,0,0,1.248-1.248V-7.02c.052-2.444,1.274-3.354,2.392-3.354,1.2,0,1.924,1.014,1.924,2.886v6.24A1.125,1.125,0,0,0,82.706,0h1.508a1.144,1.144,0,0,0,1.274-1.248V-7.67c0-3.146-1.456-5.98-4.914-5.98a4.558,4.558,0,0,0-4.29,2.314A4.15,4.15,0,0,0,72.41-13.65,3.655,3.655,0,0,0,68.8-11.232v-.884a1.125,1.125,0,0,0-1.248-1.248H66.014a1.125,1.125,0,0,0-1.248,1.248V-1.248A1.125,1.125,0,0,0,66.014,0ZM95.082-15.028a3.023,3.023,0,0,0,3.276-2.938,3.032,3.032,0,0,0-3.276-2.99,3.016,3.016,0,0,0-3.224,2.99A3.007,3.007,0,0,0,95.082-15.028Zm0-1.586a1.378,1.378,0,0,1-1.43-1.352,1.341,1.341,0,0,1,1.43-1.326,1.327,1.327,0,0,1,1.43,1.326A1.362,1.362,0,0,1,95.082-16.614ZM94.146.286a4.875,4.875,0,0,0,4.29-2.158v.624A1.125,1.125,0,0,0,99.684,0h1.534a1.125,1.125,0,0,0,1.248-1.248V-12.116a1.125,1.125,0,0,0-1.248-1.248H99.684a1.125,1.125,0,0,0-1.248,1.248v.65a4.839,4.839,0,0,0-4.29-2.184c-3.744,0-6.422,3.042-6.422,6.968C87.724-2.73,90.4.286,94.146.286Zm.936-3.224c-2.106,0-3.328-1.664-3.328-3.744,0-2.054,1.222-3.744,3.328-3.744a3.443,3.443,0,0,1,3.406,3.744A3.443,3.443,0,0,1,95.082-2.938ZM108.706-14.95a2.168,2.168,0,0,0,2.418-2.08,2.144,2.144,0,0,0-2.418-2.106,2.13,2.13,0,0,0-2.418,2.106A2.168,2.168,0,0,0,108.706-14.95ZM105.69,6.136c2.262,0,4.966-.962,4.966-5.044V-12.116a1.125,1.125,0,0,0-1.248-1.248H107.9a1.125,1.125,0,0,0-1.248,1.248V1.612c0,.962-.442,1.534-1.248,1.534-.65,0-1.092-.364-1.092-.858V2.132c0-.26-.182-.468-.546-.468H101.92a.606.606,0,0,0-.65.494,2.236,2.236,0,0,0-.026.416C101.244,5.044,103.35,6.136,105.69,6.136ZM120.51.286a7.109,7.109,0,0,0,7.41-6.968,7.109,7.109,0,0,0-7.41-6.968,7.109,7.109,0,0,0-7.41,6.968A7.093,7.093,0,0,0,120.51.286Zm0-3.25a3.587,3.587,0,0,1-3.588-3.692,3.593,3.593,0,0,1,3.588-3.718A3.609,3.609,0,0,1,124.1-6.656,3.6,3.6,0,0,1,120.51-2.964ZM138.58.286c3.77,0,6.448-3.016,6.448-6.968,0-3.926-2.678-6.968-6.448-6.968a4.825,4.825,0,0,0-4.264,2.184V-17.55a1.144,1.144,0,0,0-1.274-1.248h-1.508a1.125,1.125,0,0,0-1.248,1.248v16.3A1.125,1.125,0,0,0,131.534,0h1.508a1.144,1.144,0,0,0,1.274-1.248v-.624A4.86,4.86,0,0,0,138.58.286Zm-.91-3.224c-2.08,0-3.406-1.612-3.432-3.744.026-2.132,1.352-3.744,3.432-3.744S141-8.736,141-6.682C141-4.6,139.75-2.938,137.67-2.938ZM155.74.286c3.77,0,6.448-3.016,6.448-6.968,0-3.926-2.678-6.968-6.448-6.968a4.825,4.825,0,0,0-4.264,2.184V-17.55A1.144,1.144,0,0,0,150.2-18.8h-1.508a1.125,1.125,0,0,0-1.248,1.248v16.3A1.125,1.125,0,0,0,148.694,0H150.2a1.144,1.144,0,0,0,1.274-1.248v-.624A4.86,4.86,0,0,0,155.74.286Zm-.91-3.224c-2.08,0-3.406-1.612-3.432-3.744.026-2.132,1.352-3.744,3.432-3.744s3.328,1.69,3.328,3.744C158.158-4.6,156.91-2.938,154.83-2.938Z" transform="translate(1913 -77)" fill="#fff"/>
    <g id="Grupo_274" data-name="Grupo 274" transform="translate(1436.436 -449.56)">
      <path id="Trazado_45" data-name="Trazado 45" d="M460.372,344.394l-41.45,3.179a3.369,3.369,0,0,0-3.359,3.359v23.219a3.369,3.369,0,0,0,3.359,3.359l9.687.743,4.747-9.18h0a9.343,9.343,0,1,1,3.909,2.115l-3.556,7.456-1.933,3.771c-.141.32.05.7.536.462l6.844-3.814,21.215,1.626a3.369,3.369,0,0,0,3.36-3.359V347.753A3.369,3.369,0,0,0,460.372,344.394Z" transform="translate(0 0)" fill="#fff"/>
      <circle id="Elipse_12" data-name="Elipse 12" cx="5.121" cy="5.121" r="5.121" transform="translate(432.348 362.101) rotate(-45)" fill="#fff"/>
    </g>
  </g>
</svg>
