<svg xmlns="http://www.w3.org/2000/svg" width="41.656" height="41.656" viewBox="0 0 41.656 41.656">
  <path id="Trazado_616" data-name="Trazado 616" d="M0-36.953A20.828,20.828,0,0,0-20.828-16.125,20.828,20.828,0,0,0,0,4.7,20.828,20.828,0,0,0,20.828-16.125,20.828,20.828,0,0,0,0-36.953Zm10.927,9.9a15.455,15.455,0,0,1,1.737,19.79L-8.863-28.788A15.455,15.455,0,0,1,10.927-27.052ZM-10.927-5.2a15.455,15.455,0,0,1-1.737-19.79L8.863-3.461A15.455,15.455,0,0,1-10.927-5.2Z" transform="translate(20.828 36.953)" fill="#3cc9ba"/>
</svg>
