<svg xmlns="http://www.w3.org/2000/svg" width="175.658" height="175.628" viewBox="0 0 175.658 175.628"><defs><style>.a{fill:#fff;}</style></defs><g transform="translate(-329.855 -119.975)"><path class="a" d="M545.975,300.342c.035,1.471.064,2.942.107,4.414.032,1.074-.564,1.519-1.55,1.541q-1.7.036-3.41.007c-.788-.013-1.158.3-1.133,1.125.032,1.052-.009,2.1-.012,3.157,0,.946.4,1.517,1.419,1.517,5.178,0,10.357-.009,15.534.006.918,0,1.3-.414,1.279-1.3-.026-1.01-.034-2.021-.039-3.031a1.279,1.279,0,0,1,1.459-1.469c1.136.013,2.273.018,3.41,0,.843-.013,1.244.373,1.228,1.217-.02,1.01-.016,2.021-.038,3.031-.022,1.035.44,1.569,1.508,1.551.926-.016,1.855-.042,2.778.015,1.489.09,1.82.475,1.822,1.955,0,.884-.026,1.769.007,2.651.037,1-.352,1.491-1.4,1.444-.967-.043-1.938-.04-2.9.008-1.267.063-1.8.649-1.8,1.919,0,2.82.027,5.641.038,8.461.005,1.571-.142,1.734-1.731,1.727-1.471-.007-2.943-.062-4.415-.1.021-.67.055-1.339.06-2.01.032-4.235.569-3.979-4.271-3.944a1.257,1.257,0,0,0-.251.01c-.962.2-1.592.683-1.567,1.773a17.242,17.242,0,0,0,.058,2.883c.1.511.7,1.28,1.119,1.31,1.619.117,3.256-.017,4.886-.057.015,1.637.023,3.273.049,4.91.014.884-.368,1.322-1.283,1.294-.881-.026-1.763-.009-2.644,0-1.654.016-2.191.553-2.175,2.17.008.8,0,1.6.042,2.392.053,1.045-.346,1.57-1.461,1.508-.963-.053-1.932-.037-2.9,0a1.633,1.633,0,0,0-1.753,1.829c-.028,1.383-.046,2.766-.067,4.149l.035-.029c-1.257.035-2.515.092-3.772.1-2.138.014-2.275-.149-2.249-2.307.046-3.808.465-3.808-3.7-3.754-1.891.024-2.366.511-2.37,2.367-.007,3.233-.05,6.465-.077,9.7l.029-.035-4.037.1c-1.406.035-1.982.607-1.979,2q.008,4.109.036,8.218c.012,1.762-.109,1.9-1.813,1.905-.927,0-1.855-.016-2.781,0a1.3,1.3,0,0,1-1.5-1.444q-.02-7.523,0-15.046a1.594,1.594,0,0,1,1.772-1.7c1.011-.025,2.024-.035,3.034,0,.925.029,1.3-.412,1.289-1.295-.015-1.138-.009-2.275-.013-3.413a1.216,1.216,0,0,0-1.329-1.343c-5.1-.021-10.2-.029-15.3.006a1.536,1.536,0,0,0-1.578,1.627c-.049.967-.024,1.938-.009,2.907a1.348,1.348,0,0,0,1.571,1.511c1.011-.029,2.023,0,3.034,0a1.3,1.3,0,0,1,1.487,1.457c0,1.054-.027,2.108.014,3.16.043,1.1-.451,1.465-1.522,1.458-4.973-.035-9.946-.017-14.92-.013-1.615,0-1.783.144-1.761,1.711a24.23,24.23,0,0,0,.223,2.5,1.5,1.5,0,0,1-1.364,1.845c-3.539,0-7.077-.044-10.615-.072l.032.031c-.051-1.469-.16-2.938-.134-4.405.021-1.2-.444-1.647-1.648-1.624-2.99.055-5.983.026-8.974.014-1.408-.005-1.917-.691-1.669-2.086a6.252,6.252,0,0,0,.078-1.744c-.177-1.638.311-2.216,1.985-2.228l10.357-.068-.033-.033c-.035,1.721-.063,3.442-.111,5.162-.022.781.384,1.009,1.1,1.006q4.853-.023,9.707,0c.748,0,1.063-.3,1.057-1.049q-.063-8.632-.1-17.266l-.03.035c1.642.028,3.284.078,4.925.076a1.5,1.5,0,0,0,1.522-1.706c-.1-2.81-.2-5.62-.266-8.431a1.692,1.692,0,0,1,1.9-1.973c.968-.029,1.938-.033,2.906,0,.914.028,1.315-.4,1.293-1.286-.04-1.642-.071-3.283-.107-4.925l-.032.033c1.513.036,3.026.086,4.539.105,1.128.014,1.717.5,1.668,1.683-.041.966-.047,1.935-.041,2.9.007.95.448,1.5,1.46,1.483,1.052-.012,2.106-.045,3.155.012,1.091.059,1.519-.4,1.5-1.476-.044-2.187-.008-4.376-.037-6.563-.05-3.728-.427-4.205,4.057-4.107,1.987.043,2.077-.07,2.021-2.045-.033-1.166.3-2.81-.313-3.368-.7-.634-2.28-.336-3.479-.371-1.8-.052-2.307-.551-2.3-2.338q.028-4.165.031-8.33c0-.69,0-1.454-.974-1.442-1.761.022-3.521.112-5.279.17.061-1.719.129-3.435.174-5.153.021-.792-.416-1.121-1.188-1.11-1.092.017-2.185.03-3.276-.006-1.213-.04-1.639.608-1.625,1.711.013,1.008.068,2.019.011,3.023-.062,1.077.418,1.374,1.426,1.359,1.5-.022,3,.089,4.507.143.047.667.131,1.333.135,2,.022,4.065.6,3.946-4.079,3.893-1.389-.016-1.987-.633-1.994-2,0-.925-.02-1.852.027-2.775.044-.885-.242-1.336-1.21-1.291-1.133.053-2.27.026-3.405.01a1.307,1.307,0,0,0-1.47,1.472,10.745,10.745,0,0,0,.134,2.128c.3,1.562-.593,2.571-1.921,2.492-1.46-.088-2.935.063-4.4.111.134-1.5.283-3,.394-4.506a1.465,1.465,0,0,0-1.535-1.686q-4.614-.027-9.227,0c-1.175.006-1.752.8-1.562,1.989a13.936,13.936,0,0,1,.216,2.245,1.674,1.674,0,0,1-1.805,1.81c-.884.035-1.77.03-2.654,0a1.72,1.72,0,0,1-1.779-2.355,4.14,4.14,0,0,0,.156-.863q.027-6.7.025-13.4a1.394,1.394,0,0,0-1.649-1.572c-.925.04-1.854.021-2.78,0-1.228-.023-1.925-.658-1.881-1.862.051-1.378.233-2.751.357-4.126l-.032.032c3.021-.034,6.042-.08,9.064-.1,2.712-.018,3.313-.691,2.958-3.395-.027-.205-.112-.4-.155-.607-.269-1.27.31-2.034,1.575-2.061.756-.016,1.512,0,2.268,0,2.259,0,2.488.288,2.154,2.588a9.772,9.772,0,0,0-.049,1.383c0,1.47.578,2.059,2.021,2.1,1.3.033,2.594.085,3.893.126.051,1.331.106,2.664.146,4a1.726,1.726,0,0,0,1.926,1.933c.881.019,1.763.025,2.643,0a1.6,1.6,0,0,0,1.683-1.863c-.026-.778.082-1.562.041-2.339-.043-.818-.041-1.81-1.206-1.824-1.757-.021-3.515.083-5.272.134a17.925,17.925,0,0,0,.2-1.865c.015-2.893-.014-5.786-.008-8.679,0-1.352.378-1.736,1.708-1.742,1.424-.008,2.849.03,4.274.049.027,1.258.074,2.515.076,3.773,0,1.684.534,2.223,2.25,2.238q4.909.042,9.82.1l-.033-.032c.037,1.469.135,2.941.093,4.408-.035,1.225.476,1.675,1.656,1.6.922-.057,1.851-.015,2.776-.008,1.5.012,1.671.174,1.669,1.665,0,2.777-.024,5.554-.037,8.331-.008,1.542.548,2.094,2.114,2.128,1.3.028,2.6.077,3.9.116l-.032-.032c.026,1.344.056,2.689.078,4.033a1.707,1.707,0,0,0,1.922,1.942c.968.026,1.937.032,2.9,0,.925-.029,1.295.416,1.282,1.3q-.023,1.641,0,3.284c.011,1.01-.548,1.447-1.48,1.473-1.052.029-2.105.022-3.158.012a1.3,1.3,0,0,0-1.463,1.479c-.01,1.095.035,2.19.01,3.284-.021.923.43,1.3,1.3,1.3q4.8,0,9.6,0c.923,0,1.27-.45,1.238-1.339-.039-1.094-.034-2.189-.021-3.284.011-.809.341-1.423,1.242-1.421,1.6,0,3.191.068,4.786.108Zm-8.853,36.016c2.484,0,4.967-.03,7.45.014,1.066.019,1.528-.364,1.522-1.462q-.039-7.513,0-15.027c.006-1.162-.5-1.716-1.642-1.716-4.883,0-9.766-.015-14.648.007-1.385.006-1.954.643-1.955,2.037q0,7.2,0,14.4c0,1.388.331,1.738,1.695,1.747C532.07,336.371,534.6,336.359,537.122,336.358Zm-24.3,0c.421,0,.841,0,1.262,0,1.525-.015,1.673-.157,1.68-1.647.005-.925.019-1.851-.01-2.776a2.217,2.217,0,0,0-.211-1.1c-.663-1.016-5.073-.721-5.652.354a1.776,1.776,0,0,0-.215.706c-.03.46,0,.925,0,1.387C509.692,336.361,509.692,336.361,512.819,336.361Zm2.91-57.491a10.566,10.566,0,0,0-.037-2.007,1.225,1.225,0,0,0-.8-.823c-1.337-.089-2.684-.055-4.027-.021a1.253,1.253,0,0,0-.764.328c-.709.682-.645,4.649.1,5.254a2.571,2.571,0,0,0,1.141.432,7.225,7.225,0,0,0,1.257.02C515.755,282.052,515.755,282.052,515.729,278.869Zm-27.082,3.181c-.379,0-.758,0-1.138,0-1.863.008-2.216.479-1.886,2.4a3.435,3.435,0,0,1-.087,1.237c-.308,1.5.361,2.393,1.86,2.423q1.2.024,2.4,0a1.784,1.784,0,0,0,1.892-2.318,5.265,5.265,0,0,1,0-1.709,1.54,1.54,0,0,0-1.648-2.028C489.575,282.044,489.111,282.052,488.647,282.051Z" transform="translate(-70.905 -71.111)"/><path class="a" d="M342.055,222.037c1.472-.027,2.945-.068,4.417-.076a1.429,1.429,0,0,0,1.63-1.618c-.007-1.053-.021-2.106-.036-3.158-.013-.885.391-1.3,1.3-1.294q10.739.019,21.478,0a1.314,1.314,0,0,1,1.5,1.445c.02,1.01.055,2.024-.011,3.031a1.509,1.509,0,0,1-1.692,1.6c-2.948-.025-5.9.034-8.843-.026-1.221-.025-1.637.454-1.629,1.633.032,4.927.008,9.854.013,14.781,0,1.517.294,1.793,1.907,1.794q10.17.008,20.341.007c.714,0,1.428.063,2.143.1l-.041-.042c-.03,1.421-.083,2.841-.085,4.261,0,1.453.3,1.719,1.8,1.747,1.462.027,2.924.065,4.386.1l-.036-.036q0,6.087,0,12.173l.032-.032c-1.711-.024-3.422-.037-5.132-.078-.746-.018-1.06.306-1.043,1.047.039,1.711.051,3.422.074,5.133l.036-.031c-3.742-.028-7.484-.077-11.225-.047-.336,0-.95.512-.956.8-.039,1.8.056,3.606.105,5.408-1.758-.055-3.516-.165-5.268-.112-.331.01-.875.637-.92,1.026-.129,1.118-.038,2.26-.063,3.392s.575,1.578,1.628,1.577c1.007,0,2.014-.026,3.02.006,1.089.035,1.476-.469,1.457-1.534-.027-1.461.068-2.924.11-4.386a47.251,47.251,0,0,1,4.778-.065c.423.032,1.019.8,1.128,1.321a12.66,12.66,0,0,1,.051,2.769,1.68,1.68,0,0,1-1.854,1.882c-.968.034-1.94.05-2.905,0s-1.407.289-1.337,1.3c.061.881.025,1.768.029,2.652.008,1.538-.549,2.1-2.125,2.124-.8.013-1.605.057-2.4-.009-1.246-.1-1.667.48-1.585,1.644.053.755.026,1.516.028,2.274.006,1.926.053,1.984,1.963,1.977.8,0,1.6-.119,2.394-.06a1.648,1.648,0,0,1,1.731,1.875c-.021.505-.023,1.011-.019,1.516.019,2.645.021,2.657-2.681,2.643-3.821-.021-3.4.426-3.386-3.336,0-.791,0-1.582,0-2.451-1.814,0-3.485-.048-5.15.042a1.291,1.291,0,0,0-.864.893,23.347,23.347,0,0,0-.026,3.154c.034,1.137-.415,1.71-1.622,1.708q-13.648-.026-27.3,0c-1.114,0-1.463-.479-1.461-1.528q.027-16.49,0-32.981c0-1.188.408-1.7,1.623-1.629,1.511.09,3.027.088,4.541.126l-.037-.04c-.012,5.226-.016,10.452-.04,15.677-.01,2.125.252,2.431,2.36,2.433,4,0,3.788-.349,3.706,3.748-.04,1.991.281,2.31,2.344,2.319q3.982.016,7.965,0c1.673,0,1.82-.155,1.83-1.782q.033-5.119.069-10.237l-.032.033c1.3-.047,2.594-.107,3.892-.138,1.63-.039,2.156-.577,2.151-2.207-.016-4.79,0-9.581-.05-14.372-.012-1.174.387-1.657,1.611-1.632,2.94.061,5.883.01,8.825.023,1.442.006,1.726.338,1.752,1.82.025,1.467.086,2.933.13,4.4-1.718-.051-3.434-.105-5.151-.147-.733-.018-1.07.387-1.075,1.094-.007,1.174-.007,2.349-.009,3.524,0,1.005.559,1.425,1.506,1.428,1.05,0,2.1-.022,3.148.009,1.006.029,1.445-.392,1.436-1.423-.014-1.506.067-3.012.108-4.518.458-.043.916-.12,1.374-.121,3.071-.011,6.142-.021,9.213,0,1.016.009,1.465-.411,1.432-1.434-.033-1.051.016-2.1.006-3.155-.01-.949-.448-1.493-1.46-1.482-1.052.012-2.1,0-3.155,0a1.291,1.291,0,0,1-1.478-1.459c.008-1.052.037-2.1.029-3.155-.006-.888-.415-1.44-1.366-1.44q-10.853,0-21.707-.007c-.862,0-1.224.416-1.214,1.236.012.967.031,1.935.033,2.9,0,1.377-.485,1.881-1.885,1.921s-2.774.05-4.161.074l.04.04c-.025-4.622-.06-9.243-.074-13.865q-.014-4.413.024-8.825c.01-1.142-.454-1.717-1.644-1.681-1.469.044-2.941.035-4.411.05l.031.038V222ZM357.241,288.4c3.305-.021,2.92.286,2.977-2.441.077-3.657.012-3.38-3.354-3.357-3.066.02-2.694-.349-2.717,2.67C354.122,288.665,353.769,288.391,357.241,288.4Z" transform="translate(0 -47.402)"/><path class="a" d="M473.964,354.016c-3.617.035-7.236.12-10.852.075-1.126-.014-1.137-1.05-1.113-1.894.025-.917.16-1.831.194-2.749a1.172,1.172,0,0,0-1.372-1.382c-1.01.032-2.022-.013-3.032.011a1.744,1.744,0,0,0-1.809,2.353,3.284,3.284,0,0,1,.129.486c.138,2.823.163,3.3-2.72,3.243-4.505-.085-9.013-.026-13.519-.02-1.664,0-1.954.276-1.936,1.9.036,3.364.1,6.728.149,10.092l.034-.037c-2.945.057-5.891.159-8.836.161-3.871,0-3.463.5-3.459-3.388,0-4.257-.01-8.514-.018-12.771,0-1.771.242-2.014,2.076-2.021.8,0,1.6-.027,2.4,0,1.117.045,1.633-.486,1.628-1.579,0-.885.014-1.77-.006-2.655a1.663,1.663,0,0,0-1.787-1.822c-.884-.04-1.77,0-2.655-.012-1.5-.014-1.658-.165-1.657-1.674q0-6.512.019-13.024c0-.674,0-1.348-.014-2.023-.015-.847.395-1.223,1.239-1.207,1.1.021,2.193-.033,3.287.011,1.124.044,1.579-.4,1.568-1.561-.042-4.931-.021-9.863-.013-14.794,0-.587.068-1.173.1-1.76l-.035.031c1.5-.04,3.006-.122,4.509-.1,1.068.012,1.513-.4,1.5-1.488-.023-1.5.059-3.006.1-4.509l-.032.032c1.385-.036,2.769-.1,4.154-.1,1.535-.006,1.823.333,1.856,1.856.031,1.465.121,2.929.183,4.391-1.6-.066-3.2-.085-4.786-.208-1.177-.092-1.52.375-1.507,1.518.055,4.845.031,9.692.039,14.538,0,1.54-.559,2.125-2.109,2.149a29.46,29.46,0,0,0-3.029.053,1.3,1.3,0,0,0-.892.867c-.111,1.255-.068,2.524-.056,3.788.008.892.442,1.257,1.369,1.168a21.456,21.456,0,0,1,2.9-.056,1.686,1.686,0,0,1,1.813,1.929,25.81,25.81,0,0,0,.022,3.028c.049.39.593,1.017.923,1.025,1.76.039,3.523-.084,5.283-.148-.056,1.554-.121,3.106-.158,4.658-.025,1.054-.446,1.66-1.59,1.626-1.01-.029-2.021-.023-3.03,0-.929.026-1.5.451-1.483,1.466s.033,2.022-.016,3.029c-.053,1.11.354,1.6,1.531,1.575,2.566-.059,5.136-.072,7.7,0,2.894.078,3.188,0,2.841-3.545-.012-.122-.1-.236-.116-.359a1.746,1.746,0,0,1,1.8-2.164c.968-.029,1.937-.036,2.9,0a1.349,1.349,0,0,0,1.57-1.512q.036-4.419,0-8.838a1.352,1.352,0,0,0-1.558-1.528c-1.009.032-2.02-.006-3.03.008-1.39.018-1.715.443-1.572,1.875a9.217,9.217,0,0,1,.056,2.51c-.091.5-.626,1.289-1,1.313-1.62.1-3.254-.031-4.883-.078a10.336,10.336,0,0,1-.147-1.239q-.013-13.622,0-27.243a8.329,8.329,0,0,1,.178-1.221c1.38-.058,2.759-.15,4.139-.163,1.429-.013,1.763.358,1.762,1.818q0,3.977-.02,7.954c-.008,2.02.062,4.044-.058,6.057-.109,1.811.277,2.351,2.115,2.354,3.283,0,6.565-.011,9.848.006,1.975.01,3.95.065,5.925.1.031,1.467.11,2.936.076,4.4-.021.912.338,1.353,1.219,1.353,1.084,0,2.17-.075,3.254-.048a1.771,1.771,0,0,1,1.811,2.273,14.2,14.2,0,0,0-.195,2.24c-.015,5.964,0,11.929-.012,17.894,0,.583-.082,1.166-.126,1.75Zm-6.09-15.906.121-.005c0-2.314-.012-4.627.007-6.941.006-.706-.23-1.164-.986-1.15a30.212,30.212,0,0,0-3.642.174,1.652,1.652,0,0,0-1.189.924,13.433,13.433,0,0,0,.016,2.569c.007,4.332.015,8.665-.008,13,0,.882.138,1.469,1.225,1.405a28.712,28.712,0,0,1,3.28,0c1.251.069,1.547-.8,1.532-1.682C468.179,343.636,468,340.874,467.874,338.11Z" transform="translate(-47.418 -88.888)"/><path class="a" d="M438.033,216.552l4.036-.1c1.382-.033,1.958-.622,1.961-2.023q.008-4.169,0-8.339c0-1.365-.369-1.738-1.705-1.761-1.011-.017-2.022.006-3.032-.012a1.2,1.2,0,0,1-1.347-1.314c.015-1.555.069-3.111.106-4.667l12.161-.042a2.543,2.543,0,0,0-.107.491c-.071,3.317-.174,6.635-.176,9.952a1.467,1.467,0,0,0,1.626,1.657c1.134-.034,2.272-.025,3.407,0,.772.017,1.18-.264,1.178-1.092-.009-3.113.039-6.227-.005-9.339-.015-1.077-.5-1.808-1.8-1.717-1.382.1-2.773.061-4.16.083-.026-1.471-.056-2.943-.078-4.415-.014-.937-.26-1.7-1.384-1.705-3.2-.014-6.4,0-9.6-.011-.791,0-1.188.368-1.171,1.141.035,1.68.1,3.359.147,5.039-3.407-.039-6.815-.083-10.222-.114-1.889-.018-2.068-.211-2.065-2.128q.013-7.072,0-14.144c0-1.783.118-1.915,1.933-1.919.842,0,1.684.024,2.525-.005,1.2-.041,1.665.585,1.647,1.7q-.023,1.452-.039,2.9a1.274,1.274,0,0,0,1.462,1.462c.884-.009,1.768.008,2.652,0,1.4-.017,1.984-.6,1.983-1.984q-.008-7.072-.034-14.144c-.008-1.95.084-2.065,2.047-2.059q5.114.016,10.228.048l-.041-.038c-.029,2.649-.083,5.3-.077,7.947,0,1.424.11,2.848.168,4.27-1.683-.033-3.365-.046-5.045-.1-1.046-.036-1.308.663-1.335,1.454-.034,1.044.091,2.093.111,3.141.019.976.463,1.483,1.46,1.472.673-.007,1.346,0,2.02,0,2.262,0,2.628-.386,2.625-2.606,0-1.129.083-2.259.129-3.389,1.429-.022,2.86,0,4.285-.082,1.138-.069,1.455.649,1.624,1.512a5.174,5.174,0,0,1,0,1.384c-.257,3.144-.226,3.181,3.012,3.182,2.842,0,3.549-.858,3.011-3.664-.031-.163-.124-.316-.154-.479a1.493,1.493,0,0,1,1.53-1.913c1.051-.023,2.1-.021,3.154,0a1.539,1.539,0,0,1,1.576,1.677c-.1,2.722-.2,5.444-.268,8.167-.043,1.73.5,2.274,2.193,2.277,2.86.005,5.721.042,8.58-.017,1.236-.026,1.578.757,1.58,1.657,0,1.5-.2,3-.313,4.5-1.427-.026-2.858,0-4.281-.1A1.385,1.385,0,0,0,474.1,199.7c-.022,2.806.022,5.618.208,8.416.093,1.4-.447,2.245-1.914,2.276l-4.535.1c.137-1.54.37-3.08.37-4.62,0-.833-.387-1.627-1.55-1.552a24.452,24.452,0,0,1-3.152,0c-1.163-.075-1.548.716-1.547,1.551,0,1.54.235,3.08.372,4.619-1.721-.03-3.442-.049-5.162-.095-.754-.02-1.066.32-1.05,1.058.024,1.05.038,2.1.017,3.15a1.667,1.667,0,0,1-1.872,1.85c-.966.021-1.933-.011-2.9.012-1.11.026-1.617.675-1.478,1.793a18.574,18.574,0,0,1,.166,1.994c.046,2.813.067,5.626.1,8.439l.032-.032c-1.508-.024-3.017-.043-4.525-.075-1.369-.028-1.907-.7-1.762-2.088a20.028,20.028,0,0,0,.106-2.506,1.306,1.306,0,0,0-1.469-1.466c-1.508.032-3.016.043-4.524.063l.036.036q0-3.052,0-6.1Z" transform="translate(-47.418 -23.708)"/><path class="a" d="M492.133,138.217c1.6-.016,3.2-.041,4.794-.043.858,0,1.391-.382,1.387-1.257-.015-3.615-.064-7.23-.1-10.845l-.036.036c1.641-.02,3.281-.026,4.921-.066.926-.023,1.293.448,1.293,1.312q0,7.764-.005,15.528c0,.931-.506,1.365-1.43,1.355q-1.451-.016-2.9,0c-1.424.02-1.745.372-1.763,1.83-.017,1.428-.057,2.856-.087,4.285l.039-.036c-1.3-.006-2.6-.018-3.907-.016-1.875,0-2.1.258-2.106,2.114-.013,3.359-.06,6.717-.093,10.076l.035-.035c-1.386-.01-2.772-.015-4.158-.031-1.3-.016-1.824-.509-1.838-1.825-.01-.837.047-1.676.114-2.511.1-1.214-.306-1.708-1.524-1.72-1.6-.016-3.192,0-4.788,0l.035.035c.064-1.3.034-2.614.216-3.9.227-1.6-.175-2.2-1.773-2.205-4.885-.006-9.771,0-14.657-.005a1.682,1.682,0,0,1-1.837-2.18c.121-.783.154-1.58.238-2.369.123-1.166-.417-1.547-1.552-1.53-3.495.052-6.991.025-10.487.029l.041.038c-.04-3.276-.1-6.552-.115-9.828-.011-2.012-.311-2.348-2.306-2.35-2.733,0-5.466-.006-8.2,0-1.457,0-1.652.206-1.656,1.69,0,.841.042,1.681.033,2.522-.014,1.322-.517,1.829-1.806,1.847-1.387.019-2.774.027-4.161.039l.036.034c-.045-1.344-.122-2.688-.128-4.032-.008-1.81-.251-2.092-2.007-2.1-.843,0-1.687-.027-2.528,0-1.05.039-1.575-.424-1.569-1.483s.016-2.107,0-3.16c-.017-.992.391-1.488,1.437-1.433.883.046,1.77.012,2.654.008,1.736-.008,2.03-.319,2.01-2.108-.01-.885-.023-1.77-.028-2.654,0-.869.379-1.33,1.3-1.3,1.053.029,2.107.026,3.16,0,1.207-.029,1.65.626,1.634,1.732-.014.969-.022,1.938-.041,2.907-.019.986.4,1.452,1.443,1.439,2.992-.036,5.985-.048,8.976.005,1.232.022,1.669-.658,1.728-1.681a10.955,10.955,0,0,0-.154-2.38c-.21-1.292.325-2,1.648-2.017.927-.013,1.854-.011,2.781,0,1.247.014,1.768.479,1.791,1.728a14.161,14.161,0,0,1-.2,2.376c-.174,1.141.381,1.941,1.5,1.948,3.118.021,6.236-.012,9.355.019.866.009,1.235-.311,1.2-1.178-.036-1.053-.051-2.108-.014-3.16.044-1.246.558-1.72,1.8-1.733.969-.011,1.939-.017,2.908,0a1.529,1.529,0,0,1,1.589,1.889,7.469,7.469,0,0,0,.02,1.959c.2,1.363-.443,2.2-1.808,2.207-1.1.01-2.192.024-3.287,0-.861-.021-1.229.368-1.215,1.215.017,1.011-.033,2.023-.008,3.034.033,1.33.532,1.813,1.848,1.817,2.865.009,5.731,0,8.6.005,1.61,0,2.031.61,1.8,2.184-.184,1.284-.155,2.6-.219,3.9q-8.154-.01-16.31-.018a1.7,1.7,0,0,0-1.76,2.129,18.937,18.937,0,0,1,.238,2.622c-.012.974.335,1.333,1.331,1.326q7.522-.055,15.046,0a1.453,1.453,0,0,0,1.681-1.577c.007-1.505-.166-3.012-.264-4.518l6.12.058-.028-.036.1,4.161c.035,1.4.512,1.883,1.905,1.894.927.008,1.854-.008,2.781,0a1.223,1.223,0,0,0,1.4-1.384c-.015-1.558-.057-3.116-.087-4.674Z" transform="translate(-47.415)"/><path class="a" d="M351.132,119.987q9.608,0,19.217,0c1.766,0,2.023.291,2.023,2.08q-.006,19.154,0,38.308c0,1.713-.324,2.055-2.08,2.056q-19.218,0-38.435,0c-1.746,0-1.971-.242-1.971-1.978q0-19.281,0-38.561c0-1.665.219-1.9,1.9-1.9Q341.46,119.982,351.132,119.987Zm.02,6.064q-6.634,0-13.268,0c-1.7,0-1.932.235-1.932,1.867q0,13.268,0,26.535c0,1.65.244,1.912,1.9,1.912q13.268.007,26.535,0c1.564,0,1.92-.378,1.92-1.952q0-13.205,0-26.409c0-1.629-.292-1.95-1.89-1.953Q357.786,126.043,351.152,126.052Z" transform="translate(-0.016 -0.006)"/><path class="a" d="M614.408,119.989q9.672,0,19.344,0c1.6,0,1.848.252,1.848,1.828q0,19.343,0,38.687c0,1.662-.242,1.925-1.894,1.926q-19.344.006-38.687,0c-1.543,0-1.9-.4-1.9-1.976q0-19.281,0-38.561c0-1.581.316-1.9,1.948-1.9Q604.736,119.984,614.408,119.989Zm15.128,21.243q0-6.7,0-13.393c0-1.512-.254-1.782-1.761-1.783q-13.394-.01-26.787,0c-1.464,0-1.806.348-1.807,1.784q-.005,13.33,0,26.661c0,1.478.379,1.867,1.878,1.867q13.33.008,26.661,0c1.569,0,1.818-.271,1.818-1.869Q629.539,147.865,629.536,141.232Z" transform="translate(-130.105 -0.006)"/><path class="a" d="M351.027,425.664q-9.669,0-19.337,0c-1.654,0-1.8-.164-1.8-1.8q0-19.337,0-38.674c0-1.674.285-1.965,2.019-1.966q19.084-.005,38.169,0c1.8,0,2.294.531,2.293,2.329q-.007,19.021,0,38.042c0,1.817-.214,2.069-2.009,2.07Q360.7,425.67,351.027,425.664Zm-.071-6.062q6.764,0,13.528,0c1.553,0,1.826-.3,1.826-1.873q0-13.149,0-26.3c0-1.515-.53-2.139-1.971-2.141q-13.339-.02-26.678,0c-1.35,0-1.708.388-1.709,1.764-.006,8.977.01,17.953-.018,26.93,0,1.183.4,1.651,1.62,1.639C342.021,419.573,346.489,419.6,350.956,419.6Z" transform="translate(-0.016 -130.097)"/><path class="a" d="M611.03,425.019c3.661.023,7.323.037,10.984.076.942.01,1.273-.47,1.252-1.332-.019-.841-.025-1.683-.036-2.525-.024-1.793.38-2.2,2.231-2.205,2.778-.008,5.557,0,8.335-.007.5,0,1-.073,1.5-.112l-.037-.036c.029,1.515.093,3.03.077,4.545-.012,1.157.454,1.724,1.648,1.678.968-.037,1.938-.006,2.908,0,1.014,0,1.563.465,1.561,1.524-.007,3.076-.011,6.153,0,9.229.005.94-.37,1.408-1.353,1.377-1.095-.033-2.192-.017-3.287,0a1.279,1.279,0,0,1-1.467-1.462c.006-.969.009-1.939.042-2.907.04-1.147-.459-1.729-1.639-1.7-.885.022-1.771-.019-2.655.011-1.344.044-1.814.533-1.814,1.856,0,.927.008,1.855.044,2.781.039,1.01-.4,1.443-1.429,1.43-2.823-.034-5.647-.014-8.471-.008-1.914,0-2.294.4-2.266,2.294q.018,1.264.029,2.528c.009.821-.356,1.242-1.218,1.239-3.161-.013-6.322-.007-9.483,0-1.094,0-1.464-.622-1.466-1.61,0-1.517-.021-3.033-.033-4.55l-.033.036c1.592.02,3.184.012,4.774.07,1.044.038,1.417-.443,1.406-1.434-.042-3.6-.054-7.206-.077-10.809Z" transform="translate(-135.96 -147.72)"/><path class="a" d="M587.308,251.924l0,12.174.041-.04c-1.431-.021-2.862-.062-4.293-.057-1.45.005-1.744.329-1.74,1.827q.014,7.14.037,14.279c.006,1.814-.23,2.062-2.016,2.076q-5.116.041-10.232.086l.032.032c.015-1.516.04-3.032.042-4.549,0-1.067.435-1.662,1.577-1.633,1.011.025,2.022,0,3.033,0,.959-.005,1.5-.446,1.5-1.449q0-4.677.005-9.353c0-.862-.321-1.331-1.264-1.325-5.687.036-11.375.049-17.063.069l.033.032c.02-1.429.048-2.858.058-4.287.011-1.537.31-1.866,1.836-1.872,2.776-.011,5.552,0,8.328,0,1.79,0,2.019-.243,2-2.07-.008-.841-.038-1.682-.034-2.523a1.3,1.3,0,0,1,1.474-1.466c1.513.02,3.027.032,4.541.047.016,1.386.025,2.773.05,4.159a1.632,1.632,0,0,0,1.738,1.844c.966.034,1.934,0,2.9.008.905,0,1.454-.407,1.448-1.347-.011-1.553-.064-3.106-.1-4.659l6.106.033Z" transform="translate(-112.238 -65.183)"/><path class="a" d="M623.026,282.023l6.1,0-.031-.036c.018,1.339.038,2.678.052,4.017s.554,1.93,1.861,1.97c.879.027,1.759,0,2.639.006,1.067,0,1.632-.483,1.607-1.6-.032-1.465-.038-2.931-.055-4.4l-.035.035,4.408-.105c1.378-.033,1.731-.362,1.737-1.712.007-1.429-.025-2.859-.04-4.288l-.037.04c1.641-.032,3.283-.059,4.923-.1.857-.019,1.22.422,1.219,1.243,0,3.16,0,6.319-.006,9.479a1.286,1.286,0,0,1-1.434,1.388c-1.052.032-2.106.027-3.159.011-1.072-.016-1.5.53-1.508,1.557-.007,1.557-.055,3.113-.086,4.669l.038-.036c-3.614-.038-7.229-.1-10.843-.1-1.068,0-1.238.8-1.232,1.679.018,2.693.015,5.387.038,8.08.019,2.136-.163,2.328-2.262,2.345-3.323.026-6.645.067-9.968.1l.035.028c.012-1.39.038-2.78.033-4.169-.007-1.768.208-2.008,1.926-2.021.885-.007,1.77.005,2.654-.007a1.365,1.365,0,0,0,1.528-1.561q-.046-8.277-.069-16.555Z" transform="translate(-141.888 -77.037)"/><path class="a" d="M557.092,203.971c.03,1.344.068,2.687.087,4.031.02,1.395.579,1.992,1.972,1.995,4.84.01,9.68,0,14.519.007,1.568,0,1.756.183,1.739,1.727-.016,1.471-.072,2.943-.111,4.414l.039-.038c-1.459-.014-2.918,0-4.376-.049-1.173-.036-1.661.527-1.658,1.654,0,1.5-.026,3-.041,4.5q-5.048-.043-10.1-.088c-1.4-.015-1.978-.6-1.982-1.987,0-.968.022-1.936.022-2.9,0-.755-.34-1.176-1.147-1.169q-5.555.049-11.11.08c.035-1.461.075-2.923.1-4.385.026-1.354.377-1.733,1.693-1.756.963-.017,1.925-.019,2.887,0a1.309,1.309,0,0,0,1.522-1.521q-.047-2.258-.095-4.515l-.035.035h6.1Z" transform="translate(-106.301 -41.509)"/><path class="a" d="M604.953,222.035l4.421-.08c1.483-.026,1.757-.3,1.758-1.811,0-.927-.044-1.854-.035-2.781a1.3,1.3,0,0,1,1.47-1.471c3.119.01,6.237.021,9.356-.006,1-.009,1.342.472,1.341,1.394q-.013,10.683-.006,21.366c0,.979-.449,1.494-1.444,1.5-.969,0-1.939.029-2.907,0-1.245-.044-1.745-.569-1.75-1.8,0-1.011.023-2.022.032-3.033a1.061,1.061,0,0,0-1.236-1.223c-1.643.032-3.286.039-4.929.056l.036.03q.034-2.44.067-4.88c.012-.877-.392-1.3-1.3-1.273-1.625.049-3.252.061-4.877.089q.02-3.055.039-6.109Z" transform="translate(-135.955 -47.4)"/><path class="a" d="M342.057,233.978c-.007,3.326-.019,6.652-.017,9.977,0,1.754-.313,2.1-2.031,2.1q-4.168.008-8.336,0c-1.5-.006-1.8-.293-1.8-1.776-.007-4.926.017-9.852-.018-14.777-.009-1.175.4-1.709,1.619-1.644,1.512.081,3.028.065,4.543.092l-.037-.039c-.015,1.46-.015,2.92-.052,4.379-.029,1.156.5,1.661,1.655,1.651,1.5-.012,3,.046,4.5.074Z" transform="translate(-0.001 -53.314)"/><path class="a" d="M568.953,179.982c1.636-.017,3.272-.016,4.907-.057.929-.024,1.285.444,1.284,1.3,0,3.147,0,6.294-.007,9.44,0,1.006-.564,1.4-1.526,1.389-1.552-.01-3.1.018-4.657.029l.036.031q0-6.087,0-12.174Z" transform="translate(-118.164 -29.627)"/><path class="a" d="M341.962,294.02q-.04-2.45-.079-4.9c-.012-.791.289-1.282,1.169-1.272q5.526.059,11.053.1l-.04-.04c-.009,1.214-.034,2.428-.023,3.642.019,1.961-.346,2.339-2.321,2.352q-4.9.034-9.8.075Z" transform="translate(-5.944 -82.964)"/><path class="a" d="M432.005,155.993c-.034,3.277-.081,6.554-.1,9.831-.009,1.849-.372,2.256-2.16,2.259-.884,0-1.767.006-2.65-.008a1.151,1.151,0,0,1-1.27-1.246c-.018-3.238-.011-6.477,0-9.715a1.023,1.023,0,0,1,1.169-1.156c1.682.029,3.363.045,5.046.067Z" transform="translate(-47.425 -17.783)"/><path class="a" d="M557.192,126.076q-5.053-.014-10.105-.029c-1.434-.006-1.9-.45-1.935-1.849-.021-.884-.026-1.769,0-2.652.026-.986.473-1.568,1.546-1.563q4.674.02,9.348,0c.853,0,1.267.4,1.253,1.214-.027,1.638-.091,3.276-.14,4.915Z" transform="translate(-106.392 -0.003)"/><path class="a" d="M659.156,221.955c0,1.515-.009,3.03,0,4.545a1.332,1.332,0,0,1-1.546,1.521c-.968-.011-1.936-.007-2.9,0-1.073.009-1.655-.482-1.655-1.588q0-4.482,0-8.963c0-1,.407-1.591,1.488-1.576s2.189.029,3.283,0c.992-.029,1.349.468,1.339,1.393C659.144,218.841,659.156,220.4,659.156,221.955Z" transform="translate(-159.725 -47.402)"/><path class="a" d="M664.906,407.2c.018-3.317.041-6.634.051-9.951,0-1.548.445-2.037,2-2.055,4.6-.053,4.1-.182,4.085,3.9-.011,2.226-.018,4.454.034,6.679.026,1.131-.411,1.618-1.558,1.551-1.547-.09-3.1-.109-4.65-.159Z" transform="translate(-165.566 -136.01)"/><path class="a" d="M491.715,454.979c-.033,1.43-.076,2.86-.1,4.291-.022,1.5-.359,1.845-1.872,1.858-.927.009-1.854.014-2.781,0-1.293-.022-1.831-.758-1.618-2.046a5.065,5.065,0,0,0-.015-1.716,1.728,1.728,0,0,1,1.864-2.294c1.516-.028,3.033-.04,4.55-.059Z" transform="translate(-76.81 -165.561)"/><path class="a" d="M544.989,150.07c.023-1.429.052-2.859.069-4.289s.381-1.8,1.793-1.816c1.011-.012,2.021.019,3.031-.007.844-.022,1.278.364,1.265,1.195-.025,1.639-.079,3.278-.122,4.916l.04-.038-6.1,0Z" transform="translate(-106.307 -11.852)"/><path class="a" d="M640.994,282.022q.011-2.2.023-4.4c.007-1.469.283-1.767,1.781-1.764,1.422,0,2.844.06,4.266.093l-.031-.036v6.1l.035-.035h-6.1Z" transform="translate(-153.751 -77.039)"/><path class="a" d="M652.994,270.028c.005-1.467.008-2.935.016-4.4.008-1.429.288-1.753,1.667-1.754,1.465,0,2.93.064,4.395.1l-.033-.034-.008,6.092.037-.04h-6.1Z" transform="translate(-159.682 -71.114)"/><path class="a" d="M341.959,222.037c-.027-1.6-.049-3.193-.082-4.788-.02-.943.4-1.389,1.371-1.36,1.092.033,2.185.014,3.278.006,1-.008,1.447.52,1.453,1.477.01,1.555.013,3.109.018,4.664l.031-.036-6.1,0Z" transform="translate(-5.941 -47.4)"/><path class="a" d="M437.979,251.967c1.555-.027,3.11-.073,4.664-.074,1.051,0,1.328.7,1.34,1.6q.03,2.271.062,4.542l.028-.035-6.1,0,.041.042q0-3.054,0-6.107Z" transform="translate(-53.431 -65.195)"/><path class="a" d="M431.989,245.987c-1.515-.019-3.031-.069-4.546-.049-1.177.016-1.69-.52-1.658-1.678.028-1.01.024-2.021.007-3.031-.016-.932.354-1.41,1.348-1.37,1.051.042,2.106.031,3.158,0,1.126-.029,1.6.536,1.6,1.611.009,1.515.036,3.03.056,4.545Z" transform="translate(-47.408 -59.247)"/><path class="a" d="M599.065,449.027c-1.5.031-3,.057-4.506.1-1.059.028-1.511-.527-1.521-1.53q-.024-2.319-.047-4.637l-.029.035c1.544.023,3.087.056,4.631.065,1.014.006,1.563.459,1.542,1.5-.03,1.5-.069,3-.1,4.5Z" transform="translate(-130.029 -159.62)"/><path class="a" d="M665.008,258.032c0-1.471,0-2.942,0-4.413,0-1.441.274-1.733,1.671-1.757,1.009-.017,2.018.023,3.026-.009.938-.029,1.423.345,1.408,1.321-.018,1.092-.006,2.185,0,3.278a1.3,1.3,0,0,1-1.474,1.467c-1.554.02-3.108.052-4.661.078Z" transform="translate(-165.618 -65.175)"/><path class="a" d="M664.86,312.017c1.715-.049,3.431-.156,5.142-.1a1.424,1.424,0,0,1,.987.967,33.459,33.459,0,0,1,.044,3.77,1.209,1.209,0,0,1-1.3,1.24,24.077,24.077,0,0,1-3.145,0,1.545,1.545,0,0,1-1.652-1.768c.051-1.38-.018-2.765-.036-4.146Z" transform="translate(-165.561 -94.851)"/><path class="a" d="M616.951,275.945c1.629-.033,3.259-.052,4.887-.1.913-.029,1.3.41,1.285,1.285q-.05,2.445-.1,4.889l.038-.041c-1.344-.023-2.688-.042-4.032-.07-1.458-.03-2.006-.611-2.008-2.091,0-1.3-.019-2.605-.029-3.908Z" transform="translate(-141.884 -77.03)"/><path class="a" d="M449.933,430.866q2.007.068,4.014.136c1.311.042,1.909.632,1.933,1.925.006.336-.014.672-.016,1.008-.018,3.13-.018,3.145-3.2,3.126-2.867-.017-2.948.453-2.856-2.838.031-1.131.105-2.26.161-3.392Z" transform="translate(-59.269 -153.626)"/><path class="a" d="M432.049,449.052c-1.72.05-3.439.1-5.16.148-.747.019-1.06-.407-1.064-1.1-.007-1.219-.017-2.438,0-3.657.013-.883.552-1.269,1.376-1.286,1.009-.021,2.02-.042,3.027,0a1.617,1.617,0,0,1,1.682,1.782q.049,2.075.1,4.15Z" transform="translate(-47.425 -159.705)"/><path class="a" d="M437.934,454.878q2.01.061,4.019.121c1.32.037,1.917.619,1.941,1.91.008.42-.015.84-.014,1.26,0,2.893.006,2.907-2.939,2.889-3.373-.021-3.183.454-3.122-3.2.017-1,.1-2.009.149-3.015Z" transform="translate(-53.344 -165.493)"/><path class="a" d="M671.128,338.732c-.017,3.112-.017,3.112-3.2,3.11a8.251,8.251,0,0,1-1.385-.03c-.964-.167-1.616-.622-1.534-1.766.064-.879.03-1.765.008-2.648-.028-1.084.426-1.654,1.563-1.624.966.026,1.934-.005,2.9.007,1.48.017,1.643.191,1.646,1.69C671.129,337.891,671.128,338.311,671.128,338.732Z" transform="translate(-165.632 -106.649)"/><path class="a" d="M404.781,239.865c3.106,0,3.106,0,3.12,3.1,0,.463.043.929.006,1.388a1.527,1.527,0,0,1-1.51,1.551c-1.091.069-2.189.042-3.283.009a1.218,1.218,0,0,1-1.292-1.374c0-1.095.017-2.19-.012-3.284-.027-1.026.438-1.467,1.456-1.393C403.768,239.9,404.276,239.867,404.781,239.865Z" transform="translate(-35.56 -59.244)"/><path class="a" d="M551.23,458.332c.087,3.313-.016,2.863-2.85,2.86-2.666,0-3.345.67-3.234-3.251.071-2.48.317-2.773,2.821-2.812C551.495,455.076,551.3,455.235,551.23,458.332Z" transform="translate(-106.393 -165.632)"/><path class="a" d="M497.671,425.156c-.141-1.413-.355-2.823-.4-4.239a1.559,1.559,0,0,1,1.586-1.74c1.008-.052,2.021-.046,3.029,0a1.733,1.733,0,0,1,1.682,2.152,7.423,7.423,0,0,0-.024,1.949c.142,1.122-.41,1.935-1.5,1.938-1.469.005-2.939-.056-4.409-.089Z" transform="translate(-82.738 -147.849)"/><path class="a" d="M539.151,359.486c-1.595.042-3.19.116-4.785.114-.917,0-1.179-.689-1.206-1.464-.031-.884-.018-1.769,0-2.654a1.708,1.708,0,0,1,1.848-1.9c.968-.041,1.94-.053,2.906,0s1.407-.283,1.341-1.3c-.062-.965-.03-1.937-.031-2.906,0-1.061.458-1.65,1.6-1.614,1.052.033,2.108.039,3.159,0,.987-.038,1.371.417,1.347,1.363q-.039,1.579,0,3.159c.027,1.087-.578,1.512-1.555,1.536-1.1.027-2.192.039-3.286,0-.932-.031-1.263.377-1.255,1.289.014,1.47-.066,2.94-.107,4.411Z" transform="translate(-100.465 -112.571)"/><path class="a" d="M508.965,341.987c.038-1.456.088-2.912.113-4.368s.35-1.822,1.742-1.822c1.416,0,2.832.056,4.248.087.118,1.332.252,2.662.348,4a1.736,1.736,0,0,1-1.795,1.966C512.07,341.912,510.517,341.942,508.965,341.987Z" transform="translate(-88.517 -106.661)"/><path class="a" d="M532.96,227.97l6.1,0q.033,2.018.066,4.036c.021,1.39.59,1.966,1.993,1.984.926.012,1.854.032,2.778,0,.9-.034,1.332.361,1.326,1.259-.008,1.137,0,2.273,0,3.41a1.254,1.254,0,0,1-1.407,1.394c-1.053.012-2.106.024-3.158,0-1.078-.021-1.526.566-1.521,1.556,0,.839.06,1.678.132,2.514.113,1.324-.435,1.961-1.768,1.992-1.514.035-3.028.065-4.542.1.041-2.978.115-5.956.115-8.934C533.073,234.175,533,231.073,532.96,227.97Z" transform="translate(-100.375 -53.37)"/><path class="a" d="M497.612,251.968h5.593c.126,1.416.286,2.83.366,4.248a1.627,1.627,0,0,1-1.712,1.753c-.967.032-1.936.032-2.9,0a1.625,1.625,0,0,1-1.71-1.752C497.329,254.8,497.487,253.384,497.612,251.968Z" transform="translate(-82.725 -65.232)"/><path class="a" d="M592.962,239.97l6.1,0v6.1h-6.1Q592.961,243.021,592.962,239.97Z" transform="translate(-130.029 -59.301)"/><path class="a" d="M596.226,389.244c-2.694-.009-3.263.486-3.108-3.093.018-.419-.017-.841-.013-1.261a1.558,1.558,0,0,1,1.539-1.664,22.021,22.021,0,0,1,3.278-.009,1.244,1.244,0,0,1,1.281,1.4c-.012,1.135-.006,2.271,0,3.407.007.823-.348,1.26-1.212,1.23C597.4,389.227,596.815,389.244,596.226,389.244Z" transform="translate(-130.094 -130.068)"/><path class="a" d="M372.005,317.975q-2.209-.055-4.416-.11c-1.39-.037-1.716-.356-1.733-1.733-.013-1.011.011-2.022,0-3.033-.013-.884.361-1.326,1.284-1.3,1.01.029,2.022-.008,3.033,0,1.5.017,1.786.311,1.791,1.78s.01,2.948.014,4.423Z" transform="translate(-17.79 -94.801)"/><path class="a" d="M527.107,191.906c.127,1.537.346,3.074.342,4.61A1.391,1.391,0,0,1,526,197.952a17.571,17.571,0,0,1-3.386-.055c-.535-.1-.966-.826-1.412-1.3-.087-.093-.034-.324-.035-.492-.017-4.752-.045-4.22,3.96-4.205.671,0,1.341.026,2.011.04Z" transform="translate(-94.542 -35.534)"/><path class="a" d="M362.909,162.144c-2.483,0-4.966-.018-7.449.008-1.109.012-1.609-.475-1.606-1.585q.019-7.576,0-15.151c0-1.08.475-1.48,1.541-1.474q7.513.043,15.025,0c1.174-.005,1.681.525,1.678,1.671-.01,4.924,0,9.848-.008,14.773,0,1.338-.4,1.742-1.728,1.751C367.875,162.156,365.392,162.144,362.909,162.144Z" transform="translate(-11.859 -11.845)"/><path class="a" d="M626.36,143.955c2.483,0,4.967.029,7.45-.013,1.088-.018,1.52.44,1.516,1.5q-.024,7.576,0,15.152c0,1.125-.538,1.563-1.633,1.558-4.967-.019-9.934,0-14.9-.013-1.3,0-1.7-.434-1.7-1.776q-.009-7.324,0-14.648c0-1.426.335-1.751,1.822-1.758C621.393,143.947,623.877,143.955,626.36,143.955Z" transform="translate(-141.951 -11.845)"/><path class="a" d="M362.793,425.38c-2.484,0-4.969-.033-7.452.013-1.088.02-1.506-.407-1.5-1.486q.039-7.515,0-15.03c0-1.164.511-1.689,1.664-1.687,4.884.01,9.768-.007,14.652.012,1.351.005,1.919.6,1.922,1.925q.01,7.263,0,14.525c0,1.381-.328,1.717-1.711,1.725C367.846,425.391,365.32,425.381,362.793,425.38Z" transform="translate(-11.854 -141.943)"/></g></svg>