<svg xmlns="http://www.w3.org/2000/svg" width="70.327" height="31.129" viewBox="0 0 70.327 31.129"><defs><style>.a,.b{fill:#d9d9d9;}.b{opacity:0.5;}</style></defs><g transform="translate(-458.729 -230.106)"><path class="a" d="M508.4,244.674a3.95,3.95,0,0,0,4.445,4.1,3.143,3.143,0,0,0,2.074-.9.5.5,0,0,1,.324-.132c.659-.012,1.318-.006,2.029-.006a4.283,4.283,0,0,1-1.253,1.572,5.521,5.521,0,0,1-6.207.791,5.73,5.73,0,0,1-3.07-3.888,7.271,7.271,0,0,1,1.354-6.94,5.361,5.361,0,0,1,7.884-.334,6.14,6.14,0,0,1,1.795,4.433c0,.388-.382.8-.656,1.151-.1.123-.4.118-.606.119-2.558.01-5.116.01-7.674.014C508.69,244.655,508.543,244.667,508.4,244.674Zm7.378-1.937c.243-1.533-1.536-3.462-3.3-3.545a3.718,3.718,0,0,0-3.943,3.545Z"/><path class="a" d="M528.784,237.663c-.307.483-.57.911-.846,1.331q-1.566,2.374-3.145,4.742c-.148.22-.044.343.065.507q1.938,2.921,3.869,5.847c.1.156.2.321.329.54h-2.42s-.124-.18-.2-.3c-.989-1.487-1.97-2.979-2.995-4.532-.426.64-.826,1.238-1.223,1.838-.6.906-1.185,1.82-1.8,2.714-.1.139-.208.278-.208.278h-2.4c.464-.713.893-1.376,1.327-2.035.961-1.457,1.92-2.917,2.894-4.366a.441.441,0,0,0-.009-.578q-1.779-2.679-3.539-5.372c-.118-.18-.228-.365-.385-.617h2.412s.119.164.188.269q1.2,1.8,2.386,3.613c.1.149.205.293.345.493.17-.236.331-.444.476-.664.76-1.146,1.508-2.3,2.282-3.436.094-.137.187-.263.187-.263S528.036,237.663,528.784,237.663Z"/><path class="a" d="M480.789,247.155c.852,0,1.549-.01,2.245.01a.474.474,0,0,1,.3.218,3.045,3.045,0,0,0,3.962,1.148,1.762,1.762,0,0,0,1.073-1.666,1.528,1.528,0,0,0-1.155-1.491c-.623-.2-1.279-.311-1.921-.459a6.127,6.127,0,0,1-2.643-1.186,3.4,3.4,0,0,1,.24-5.439,4.92,4.92,0,0,1,6.306.566,15.412,15.412,0,0,1,1.048,1.4c-.86,0-1.571.006-2.281-.007a.452.452,0,0,1-.259-.165,2.783,2.783,0,0,0-3.612-.234,1.566,1.566,0,0,0,.341,2.71,11.61,11.61,0,0,0,2.251.619,5.418,5.418,0,0,1,2.667,1.214,3.439,3.439,0,0,1-.133,5.114,5.217,5.217,0,0,1-7.157-.417A15.375,15.375,0,0,1,480.789,247.155Z"/><path class="a" d="M497.529,237.676v1.785H494.6v.5c0,2.241.061,4.485-.02,6.724a2.049,2.049,0,0,0,2.844,2.049l.413-.134c0,.588.01,1.142-.012,1.694,0,.078-.15.183-.251.219a4.3,4.3,0,0,1-4.253-1.048,4.09,4.09,0,0,1-.749-2.641c-.009-2.283,0-4.565,0-6.848v-.488h-1.581V237.7h1.555c.01-.188.025-.333.025-.478,0-1.017.008-2.035-.005-3.053a.479.479,0,0,1,.284-.485c.563-.314,1.111-.654,1.737-1.025v5.021Z"/><path class="a" d="M501.841,250.606h-1.995V237.685h1.812s.04.158.067.254c.084.3.139.605.222.988a4.108,4.108,0,0,1,2.72-1.414,17.843,17.843,0,0,1,1.964-.013v2.057a14.48,14.48,0,0,0-1.866.012,3.2,3.2,0,0,0-2.923,3.394q0,3.57,0,7.14Z"/><path class="a" d="M476.555,230.106l-17.826,10.509,17.826,10.11Z"/><path class="b" d="M458.729,261.235l17.826-10.509-17.826-10.11Z"/></g></svg>