<svg xmlns="http://www.w3.org/2000/svg" width="86" height="58" viewBox="0 0 86 58">
  <g id="upload-pic" transform="translate(-7 -973.362)">
    <path id="Trazado_588" data-name="Trazado 588" d="M11,973.362a3.991,3.991,0,0,0-4,4v31.406l24.781-19a2.024,2.024,0,0,1,2.5.063l18.844,16.031,14.75-10.156a2.059,2.059,0,0,1,2.438.156l6.438,5.687A15.371,15.371,0,0,1,87,1003.519V977.362a3.991,3.991,0,0,0-4-4H11Zm43,8a5,5,0,1,1-5,5A5,5,0,0,1,54,981.362ZM32.938,993.893,7,1013.8v7.563a3.991,3.991,0,0,0,4,4H65.156a15.969,15.969,0,0,1,7.094-22.5l-3.406-3-14.719,10.125a2.058,2.058,0,0,1-2.406-.125ZM79,1003.362a14,14,0,1,0,14,14A14,14,0,0,0,79,1003.362Zm0,5a1.959,1.959,0,0,1,1.438.656c1.665,1.484,3.306,3.336,4.969,4.938a1.96,1.96,0,0,1,0,2.812,1.981,1.981,0,0,1-2.812,0L81,1015.175v9.188a2,2,0,0,1-4,0v-9.187l-1.594,1.594a1.989,1.989,0,0,1-2.812-2.812c1.627-1.637,3.333-3.424,4.969-4.938A1.959,1.959,0,0,1,79,1008.362Z" fill="#3fc698"/>
  </g>
</svg>
