<svg xmlns="http://www.w3.org/2000/svg" width="42" height="31.5" viewBox="0 0 42 31.5">
  <g id="Grupo_127" data-name="Grupo 127" transform="translate(-6 -969.362)">
    <path id="Trazado_143" data-name="Trazado 143" d="M8.386,969.362A2.381,2.381,0,0,0,6,971.749v16.943l11.768-10.5a.933.933,0,0,1,1.342.075l8.457,9.337,6.622-5.608a.955.955,0,0,1,1.223-.015l5.623,4.579c.1,0,.187-.015.283-.015a7.593,7.593,0,0,1,1.909.253V971.749a2.381,2.381,0,0,0-2.386-2.386Zm20.045,5.727a2.386,2.386,0,1,1-2.386,2.386A2.386,2.386,0,0,1,28.432,975.089Zm-10.1,5.16L6,991.257V993.7a2.381,2.381,0,0,0,2.386,2.386H33.935a7.568,7.568,0,0,1,4.683-9.038l-3.8-3.087-6.727,5.682a.955.955,0,0,1-1.312-.075ZM41.318,987.5A6.682,6.682,0,1,0,48,994.18,6.682,6.682,0,0,0,41.318,987.5Zm0,2.386A.935.935,0,0,1,42,990.2c.795.708,1.578,1.592,2.371,2.357a.935.935,0,0,1,0,1.342.945.945,0,0,1-1.342,0l-.761-.761v4.385a.955.955,0,1,1-1.909,0v-4.385l-.761.761a.949.949,0,0,1-1.342-1.342c.776-.781,1.591-1.634,2.371-2.357A.935.935,0,0,1,41.318,989.885Z" fill="#9a9a9a"/>
  </g>
</svg>
