<svg xmlns="http://www.w3.org/2000/svg" xmlns:xlink="http://www.w3.org/1999/xlink" width="78.348" height="20.605" viewBox="0 0 78.348 20.605"><defs><style>.a{stroke:rgba(0,0,0,0);fill:url(#a);}</style><linearGradient id="a" x1="0.5" x2="0.5" y2="1" gradientUnits="objectBoundingBox"><stop offset="0" stop-color="#3fc698"/><stop offset="1" stop-color="#3fc698"/></linearGradient></defs><g transform="translate(0.737 0.5)"><path class="a" d="M568.162,411.426l3.289,9.609,3.225-9.609h3.8L572.8,425.678h-2.837l-5.675-14.252Z" transform="translate(-564.293 -411.039)"/><path class="a" d="M587.041,423.421c2.386,0,3.741-1.161,5.03-2.837.71-.9,1.613-1.1,2.258-.581a1.642,1.642,0,0,1,0,2.386,8.95,8.95,0,0,1-7.288,3.934c-3.289,0-6.191-1.806-8.19-4.966a1.514,1.514,0,0,1,.194-2.192,1.557,1.557,0,0,1,2.192.645c1.419,2.128,3.354,3.611,5.8,3.611Zm4.45-7.932a1.935,1.935,0,1,1-1.935-1.935A1.941,1.941,0,0,1,591.491,415.489Z" transform="translate(-564.293 -411.039)"/><path class="a" d="M600.584,411.426v1.935a5.414,5.414,0,0,1,4.643-2.322c2.773,0,6,2.322,6,7.287,0,5.224-3.1,7.739-6.32,7.739a5.161,5.161,0,0,1-4.385-2.257v6.836h-3.483V411.426Zm0,7.094c0,2.9,1.677,4.45,3.547,4.45,1.806,0,3.611-1.419,3.611-4.45,0-2.967-1.8-4.385-3.611-4.385S600.584,415.489,600.584,418.52Z" transform="translate(-564.293 -411.039)"/><path class="a" d="M617.351,411.426v1.935a5.416,5.416,0,0,1,4.643-2.322c2.773,0,6,2.322,6,7.287,0,5.224-3.1,7.739-6.32,7.739a5.161,5.161,0,0,1-4.385-2.257v6.836H613.8V411.426Zm0,7.094c0,2.9,1.677,4.45,3.547,4.45,1.806,0,3.611-1.419,3.611-4.45,0-2.967-1.8-4.385-3.611-4.385C619.028,414.135,617.351,415.489,617.351,418.52Z" transform="translate(-564.293 -411.039)"/><path class="a" d="M635.408,411.039c2.9,0,4.966,1.354,5.869,4.708l-3.16.516c-.065-1.677-1.1-2.257-2.644-2.257-1.161,0-2.064.516-2.064,1.354,0,.645.451,1.29,1.806,1.548l2.386.451a4.031,4.031,0,0,1,3.611,4.063c0,3.1-2.773,4.643-5.417,4.643-2.773,0-5.868-1.419-6.32-4.9l3.16-.516c.194,1.806,1.29,2.451,3.1,2.451,1.354,0,2.257-.516,2.257-1.355,0-.774-.452-1.354-1.935-1.612l-2.193-.387a4.208,4.208,0,0,1-3.74-4.127c.065-3.225,2.967-4.579,5.288-4.579Z" transform="translate(-564.293 -411.039)"/></g></svg>