<svg xmlns="http://www.w3.org/2000/svg" width="65.454" height="40.3" viewBox="0 0 65.454 40.3">
  <g id="Grupo_23" data-name="Grupo 23" transform="translate(-2.026 -1027.759)">
    <path id="Trazado_52" data-name="Trazado 52" d="M14.116,1027.759l-12.09,17.268,5.755,4.03,12.09-17.268Zm-7.209,15.233a1.17,1.17,0,1,1-.453.1,1.171,1.171,0,0,1,.453-.1Z" transform="translate(0 0)" fill="#40c3a3" fill-rule="evenodd"/>
    <path id="Trazado_53" data-name="Trazado 53" d="M28.109,1027.759l-5.755,4.03,12.09,17.268,5.755-4.03Zm7.246,15.233a1.2,1.2,0,1,1-.119,0q.059,0,.119,0Z" transform="translate(27.282 0)" fill="#40c3a3" fill-rule="evenodd"/>
    <path id="Trazado_54" data-name="Trazado 54" d="M17.131,1031.054h9.748l8.042,2.3a1.174,1.174,0,0,0,.846-.077l1.638-.818,7.058,10.082-4.016,5.023-17.437-11.623a1.173,1.173,0,0,0-.65-.2H18.847a1.173,1.173,0,0,0-.974.522l-1.994,2.991H11.665l5.466-8.2Z" transform="translate(12.936 4.422)" fill="#40c3a3" fill-rule="evenodd"/>
    <path id="Trazado_55" data-name="Trazado 55" d="M14.176,1031.337c.176.1.154.1.352.211a13.6,13.6,0,0,0,3.28,1.436,9.5,9.5,0,0,0,2.278.178l-4.154,6.23a1.171,1.171,0,0,0,.974,1.821h7.026a1.171,1.171,0,0,0,.974-.521L26.9,1037.7h2.534l19.752,13.17-2.136,2.85-10.8-6.482-1.208,2.008,9.13,5.476-1.807,2.484-8.44-5.274-1.24,1.985,7.639,4.775-1.5,2.063-7.287-4.163-1.162,2.031,4.725,2.7-1.267,1.935-7.621-2.909.54-.841a3.541,3.541,0,0,0-1.048-4.863,3.44,3.44,0,0,0-1.546-.522,3.518,3.518,0,0,0-1.569-3.092,3.466,3.466,0,0,0-1.194-.485,3.467,3.467,0,0,0-1.363-4.007l-.128-.082a3.5,3.5,0,0,0-4.652.8,3.45,3.45,0,0,0-.883-.841,3.523,3.523,0,0,0-4.282.38l-3.961-3.962,8.046-11.5Z" transform="translate(5.507 4.802)" fill="#40c3a3" fill-rule="evenodd"/>
    <path id="Trazado_56" data-name="Trazado 56" d="M10.9,1038.552a1.209,1.209,0,0,1,.439.173,1.134,1.134,0,0,1,.407,1.477l-2.42,3.669a1.129,1.129,0,0,1-1.345.059,1.145,1.145,0,0,1-.348-1.619l2.09-3.234a1.133,1.133,0,0,1,1.176-.526Z" transform="translate(7.266 14.457)" fill="#40c3a3" fill-rule="evenodd"/>
    <path id="Trazado_57" data-name="Trazado 57" d="M14.712,1038.563a1.166,1.166,0,0,1,.421.173l.128.082a1.1,1.1,0,0,1,.32,1.569l-1.171,1.775c-.055.07-.119.133-.169.211l-3.2,4.9a.3.3,0,0,1-.023.047l-.073.11a1.114,1.114,0,0,1-1.574.325l-.123-.082a1.1,1.1,0,0,1-.32-1.564l.476-.718a3.475,3.475,0,0,0,.444-.549l2.086-3.239c.053-.082.083-.171.128-.256l1.5-2.283a1.112,1.112,0,0,1,1.148-.5Z" transform="translate(8.993 14.474)" fill="#40c3a3" fill-rule="evenodd"/>
    <path id="Trazado_58" data-name="Trazado 58" d="M15.054,1040.516a1.2,1.2,0,0,1,.435.182,1.142,1.142,0,0,1,.339,1.619l-.339.522a3.475,3.475,0,0,0-.453.553l-2.086,3.239a3.363,3.363,0,0,0-.188.366l-.142.22a1.166,1.166,0,0,1-1.967-1.253l3.307-5.023a1.128,1.128,0,0,1,1.093-.425Z" transform="translate(11.327 17.095)" fill="#40c3a3" fill-rule="evenodd"/>
    <path id="Trazado_59" data-name="Trazado 59" d="M15.735,1042.065a1.221,1.221,0,0,1,.439.178,1.145,1.145,0,0,1,.348,1.619l-2.086,3.239a1.143,1.143,0,0,1-1.619.348,1.131,1.131,0,0,1-.444-1.391l2.461-3.76a1.107,1.107,0,0,1,.9-.234Z" transform="translate(13.774 19.173)" fill="#40c3a3" fill-rule="evenodd"/>
  </g>
</svg>
