<svg xmlns="http://www.w3.org/2000/svg" width="273.82" height="49.623" viewBox="0 0 273.82 49.623">
  <g id="logo_svg" transform="translate(-139 -28.834)">
    <g id="Grupo_22" data-name="Grupo 22" transform="translate(139 28.834)">
      <path id="Trazado_45" data-name="Trazado 45" d="M473.234,344.394l-53.347,4.091a4.335,4.335,0,0,0-4.323,4.323v29.884a4.336,4.336,0,0,0,4.323,4.323l12.468.956,6.109-11.815h0a12.026,12.026,0,1,1,5.031,2.722l-4.577,9.6-2.487,4.853c-.181.412.064.9.69.595l8.809-4.909,27.3,2.093a4.336,4.336,0,0,0,4.324-4.323V348.717A4.336,4.336,0,0,0,473.234,344.394Z" transform="translate(-415.564 -344.394)" fill="#fff"/>
      <circle id="Elipse_12" data-name="Elipse 12" cx="6.591" cy="6.591" r="6.591" transform="translate(21.602 22.79) rotate(-45)" fill="#fff"/>
    </g>
    <path id="Trazado_61" data-name="Trazado 61" d="M3.1,0H4.991a1.4,1.4,0,0,0,1.55-1.426L7.564-13.268,12.338-1.426a1.667,1.667,0,0,0,1.7,1.178h.837a1.667,1.667,0,0,0,1.705-1.178l4.774-11.842.992,11.842A1.426,1.426,0,0,0,23.932,0h1.891a1.293,1.293,0,0,0,1.426-1.581L25.513-20.274a1.416,1.416,0,0,0-1.55-1.426H21.7a1.667,1.667,0,0,0-1.7,1.178L14.446-7.037,8.928-20.522A1.7,1.7,0,0,0,7.192-21.7H4.96a1.4,1.4,0,0,0-1.55,1.426L1.674-1.581A1.282,1.282,0,0,0,3.1,0ZM33.232-17.825a2.585,2.585,0,0,0,2.883-2.48c0-1.426-1.054-2.511-2.883-2.511-1.86,0-2.883,1.085-2.883,2.511A2.585,2.585,0,0,0,33.232-17.825ZM32.333,0h1.8A1.364,1.364,0,0,0,35.65-1.488V-14.446a1.364,1.364,0,0,0-1.519-1.488h-1.8a1.341,1.341,0,0,0-1.488,1.488V-1.488A1.341,1.341,0,0,0,32.333,0Zm8.68,0h1.829A1.341,1.341,0,0,0,44.33-1.488V-8.122c0-2.976,1.7-4.247,3.348-4.247s2.511,1.3,2.511,3.534v7.347A1.341,1.341,0,0,0,51.677,0h1.8a1.364,1.364,0,0,0,1.519-1.488V-9.176c0-3.751-1.55-7.1-5.828-7.1a4.873,4.873,0,0,0-4.836,2.883v-1.054a1.341,1.341,0,0,0-1.488-1.488H41.013a1.341,1.341,0,0,0-1.488,1.488V-1.488A1.341,1.341,0,0,0,41.013,0ZM66.061.341c4.619,0,8.246-2.263,8.246-6.51-.062-2.728-1.643-4.96-5.89-6.386L65.6-13.578c-1.922-.713-2.263-1.55-2.263-2.325,0-1.426,1.333-2.2,2.883-2.2a3.068,3.068,0,0,1,2.821,1.426,1.6,1.6,0,0,0,1.922.837l1.24-.341a1.244,1.244,0,0,0,.9-1.891c-1.178-2.48-3.565-3.968-6.944-3.968-4.247,0-7.688,2.48-7.688,6.448.031,3.348,3.193,5.27,5.766,6.107l2.821,1.023c1.643.558,2.48,1.426,2.48,2.511,0,1.426-1.4,2.356-3.5,2.356a4.41,4.41,0,0,1-3.906-1.922c-.5-.806-.961-1.178-1.829-.961l-1.333.31c-.961.248-1.457.9-1.054,1.829C59.055-1.457,62,.341,66.061.341ZM78.709,0h1.829a1.341,1.341,0,0,0,1.488-1.488V-8.215c0-2.976,1.457-4.154,2.883-4.154s2.263,1.209,2.263,3.441v7.44A1.341,1.341,0,0,0,88.66,0h1.829a1.341,1.341,0,0,0,1.488-1.488V-8.37c.062-2.914,1.519-4,2.852-4,1.426,0,2.294,1.209,2.294,3.441v7.44A1.341,1.341,0,0,0,98.611,0h1.8a1.364,1.364,0,0,0,1.519-1.488V-9.145c0-3.751-1.736-7.13-5.859-7.13a5.435,5.435,0,0,0-5.115,2.759,4.948,4.948,0,0,0-4.619-2.759,4.358,4.358,0,0,0-4.309,2.883v-1.054a1.341,1.341,0,0,0-1.488-1.488H78.709a1.341,1.341,0,0,0-1.488,1.488V-1.488A1.341,1.341,0,0,0,78.709,0Zm34.658-17.918a3.6,3.6,0,0,0,3.906-3.5,3.615,3.615,0,0,0-3.906-3.565,3.6,3.6,0,0,0-3.844,3.565A3.585,3.585,0,0,0,113.367-17.918Zm0-1.891a1.643,1.643,0,0,1-1.705-1.612A1.6,1.6,0,0,1,113.367-23a1.582,1.582,0,0,1,1.705,1.581A1.624,1.624,0,0,1,113.367-19.809ZM112.251.341a5.812,5.812,0,0,0,5.115-2.573v.744A1.341,1.341,0,0,0,118.854,0h1.829a1.341,1.341,0,0,0,1.488-1.488V-14.446a1.341,1.341,0,0,0-1.488-1.488h-1.829a1.341,1.341,0,0,0-1.488,1.488v.775a5.77,5.77,0,0,0-5.115-2.6c-4.464,0-7.657,3.627-7.657,8.308C104.594-3.255,107.787.341,112.251.341ZM113.367-3.5c-2.511,0-3.968-1.984-3.968-4.464,0-2.449,1.457-4.464,3.968-4.464,2.449,0,4.061,1.922,4.061,4.464S115.816-3.5,113.367-3.5Zm16.244-14.322a2.585,2.585,0,0,0,2.883-2.48c0-1.426-1.054-2.511-2.883-2.511-1.86,0-2.883,1.085-2.883,2.511A2.585,2.585,0,0,0,129.611-17.825Zm-3.6,25.141c2.7,0,5.921-1.147,5.921-6.014V-14.446a1.341,1.341,0,0,0-1.488-1.488h-1.8a1.341,1.341,0,0,0-1.488,1.488V1.922c0,1.147-.527,1.829-1.488,1.829-.775,0-1.3-.434-1.3-1.023V2.542c0-.31-.217-.558-.651-.558h-2.2a.722.722,0,0,0-.775.589,2.667,2.667,0,0,0-.031.5C120.714,6.014,123.225,7.316,126.015,7.316ZM143.685.341c5.053,0,8.835-3.72,8.835-8.308s-3.782-8.308-8.835-8.308-8.835,3.72-8.835,8.308C134.85-3.348,138.632.341,143.685.341Zm0-3.875a4.276,4.276,0,0,1-4.278-4.4,4.284,4.284,0,0,1,4.278-4.433,4.3,4.3,0,0,1,4.278,4.433A4.3,4.3,0,0,1,143.685-3.534ZM165.23.341c4.495,0,7.688-3.6,7.688-8.308,0-4.681-3.193-8.308-7.688-8.308a5.752,5.752,0,0,0-5.084,2.6v-7.254a1.364,1.364,0,0,0-1.519-1.488h-1.8a1.341,1.341,0,0,0-1.488,1.488V-1.488A1.341,1.341,0,0,0,156.829,0h1.8a1.364,1.364,0,0,0,1.519-1.488v-.744A5.8,5.8,0,0,0,165.23.341ZM164.145-3.5c-2.48,0-4.061-1.922-4.092-4.464.031-2.542,1.612-4.464,4.092-4.464s3.968,2.015,3.968,4.464C168.113-5.487,166.625-3.5,164.145-3.5ZM185.69.341c4.495,0,7.688-3.6,7.688-8.308,0-4.681-3.193-8.308-7.688-8.308a5.752,5.752,0,0,0-5.084,2.6v-7.254a1.364,1.364,0,0,0-1.519-1.488h-1.8a1.341,1.341,0,0,0-1.488,1.488V-1.488A1.341,1.341,0,0,0,177.289,0h1.8a1.364,1.364,0,0,0,1.519-1.488v-.744A5.8,5.8,0,0,0,185.69.341ZM184.6-3.5c-2.48,0-4.061-1.922-4.092-4.464.031-2.542,1.612-4.464,4.092-4.464s3.968,2.015,3.968,4.464C188.573-5.487,187.085-3.5,184.6-3.5Z" transform="translate(219.442 60.66)" fill="#fff"/>
  </g>
</svg>
