<svg xmlns="http://www.w3.org/2000/svg" width="44.974" height="45.416" viewBox="0 0 44.974 45.416">
  <path id="Trazado_46" data-name="Trazado 46" d="M10.25,36.984a1.558,1.558,0,0,1,0-2.274l1.718-1.718a14.742,14.742,0,0,1-2.375-5.811H7.117A1.6,1.6,0,0,1,5.5,25.564V23.038a1.6,1.6,0,0,1,1.617-1.617H9.542a15.614,15.614,0,0,1,2.425-5.811L10.25,13.892a1.558,1.558,0,0,1,0-2.274L12.018,9.85a1.558,1.558,0,0,1,2.274,0l1.769,1.769a15.644,15.644,0,0,1,5.76-2.375V6.717A1.6,1.6,0,0,1,23.438,5.1h2.526a1.6,1.6,0,0,1,1.617,1.617V9.193a15.3,15.3,0,0,1,5.76,2.375L35.11,9.8a1.558,1.558,0,0,1,2.274,0l1.769,1.769a1.558,1.558,0,0,1,0,2.274L37.435,15.56a15.614,15.614,0,0,1,2.425,5.811h2.425A1.6,1.6,0,0,1,43.9,22.987v2.526a1.6,1.6,0,0,1-1.617,1.617H39.86a15.427,15.427,0,0,1-1.314,3.992l-3.588-3.588a10.727,10.727,0,1,0-7.327,7.074L31.321,38.3a15.047,15.047,0,0,1-3.689,1.213v2.375A1.6,1.6,0,0,1,26.015,43.5H23.489a1.6,1.6,0,0,1-1.617-1.617V39.511a16.208,16.208,0,0,1-5.861-2.425l-1.667,1.667a1.558,1.558,0,0,1-2.274,0ZM24.4,25.362a1.921,1.921,0,0,1-2.729,0L20,23.745a.833.833,0,0,0-1.415.556,6.2,6.2,0,0,0,1.819,4.6,6.3,6.3,0,0,0,4.851,1.819,3.8,3.8,0,0,1,2.779,1.011l4.8,4.8h0l4.143,4.143A3.688,3.688,0,0,1,37.991,43.6a6.274,6.274,0,0,0,1.769,5.1,6.167,6.167,0,0,0,5.1,1.769.842.842,0,0,0,.505-1.415l-1.87-1.87a1.921,1.921,0,0,1,0-2.729L44.66,43.3a1.921,1.921,0,0,1,2.729,0l1.667,1.667a.833.833,0,0,0,1.415-.556,6.2,6.2,0,0,0-1.819-4.6A6.3,6.3,0,0,0,43.8,37.995a3.8,3.8,0,0,1-2.779-1.011l-4.8-4.8h0L32.079,28.04a3.688,3.688,0,0,1-1.011-2.931,6.274,6.274,0,0,0-1.769-5.1,6.167,6.167,0,0,0-5.1-1.769.842.842,0,0,0-.505,1.415l1.87,1.87a1.921,1.921,0,0,1,0,2.729Z" transform="translate(-5.5 -5.1)" fill="#41bbb5"/>
</svg>
