<svg xmlns="http://www.w3.org/2000/svg" width="32" height="27" viewBox="0 0 32 27">
  <g id="Grupo_2719" data-name="Grupo 2719" transform="translate(536.638 189.335)">
    <g id="Rectángulo_756" data-name="Rectángulo 756" transform="translate(-536.638 -183.335)" fill="none" stroke="#fff" stroke-width="2.5">
      <rect width="32" height="21" rx="4" stroke="none"/>
      <rect x="1.25" y="1.25" width="29.5" height="18.5" rx="2.75" fill="none"/>
    </g>
    <g id="Rectángulo_757" data-name="Rectángulo 757" transform="translate(-528.638 -189.335)" fill="none" stroke="#fff" stroke-width="2.5">
      <path d="M4,0h8a4,4,0,0,1,4,4V9a0,0,0,0,1,0,0H0A0,0,0,0,1,0,9V4A4,4,0,0,1,4,0Z" stroke="none"/>
      <path d="M4,1.25h8A2.75,2.75,0,0,1,14.75,4V6.5A1.25,1.25,0,0,1,13.5,7.75H2.5A1.25,1.25,0,0,1,1.25,6.5V4A2.75,2.75,0,0,1,4,1.25Z" fill="none"/>
    </g>
    <line id="Línea_26" data-name="Línea 26" y2="18.351" transform="translate(-529.016 -182.218)" fill="none" stroke="#fff" stroke-width="2.5"/>
    <line id="Línea_27" data-name="Línea 27" y2="18.351" transform="translate(-512.26 -182.218)" fill="none" stroke="#fff" stroke-width="2.5"/>
  </g>
</svg>
