<svg xmlns="http://www.w3.org/2000/svg" width="22.556" height="25" viewBox="0 0 22.556 25">
  <g id="Icon_feather-user" data-name="Icon feather-user" transform="translate(-563.222 -277.5)">
    <g id="Trazado_233" data-name="Trazado 233">
      <path id="Trazado_240" data-name="Trazado 240" d="M584.278,302.5a1.5,1.5,0,0,1-1.5-1.5v-2.444a3.393,3.393,0,0,0-3.389-3.389h-9.778a3.393,3.393,0,0,0-3.389,3.389V301a1.5,1.5,0,0,1-3,0v-2.444a6.4,6.4,0,0,1,6.389-6.389h9.778a6.4,6.4,0,0,1,6.389,6.389V301A1.5,1.5,0,0,1,584.278,302.5Z" fill="#fff"/>
    </g>
    <g id="Trazado_234" data-name="Trazado 234">
      <path id="Trazado_241" data-name="Trazado 241" d="M574.5,290.278a6.389,6.389,0,1,1,6.389-6.389A6.4,6.4,0,0,1,574.5,290.278Zm0-9.778a3.389,3.389,0,1,0,3.389,3.389A3.392,3.392,0,0,0,574.5,280.5Z" fill="#fff"/>
    </g>
  </g>
</svg>
